<svg id="Layer_1" data-name="Layer 1" xmlns="http://www.w3.org/2000/svg" viewBox="0 0 78.3 49.03"><title>be-icon</title><path d="M78.3,36.74c-.24.82-.46,1.65-.74,2.46-1.43,4.1-4.43,6.63-8.34,8.17a22.65,22.65,0,0,1-14.25.9,14.94,14.94,0,0,1-11-9.93,21,21,0,0,1,1.7-18.1c3-5.16,7.72-7.61,13.5-7.91a27.15,27.15,0,0,1,8,.7c6.64,1.7,9.7,6.6,10.74,13,.08.49.22,1,.33,1.47v4.29H53.88c-.24,5.23,2.38,9.18,6.66,9.66a8.89,8.89,0,0,0,4.65-1c2.41-1.19,3-3.7,3.4-6.21h9.7ZM53.86,26.86H68.44c-.21-4.61-3-7.32-7.37-7.28S54,22.34,53.86,26.86Z" fill="#df6705"/><path d="M32.78,22.51a24.65,24.65,0,0,1,3.38,1.41c2.79,1.69,3.79,4.49,4.07,7.5a19.39,19.39,0,0,1-1.33,10.19,11.92,11.92,0,0,1-11,7.27C18.77,49.15,9.64,49,.5,49a2.68,2.68,0,0,1-.5-.11V.09C.41.06.85,0,1.29,0,9.66,0,18,0,26.39,0a16.84,16.84,0,0,1,3.78.44,10.91,10.91,0,0,1,8.59,9.94,24.42,24.42,0,0,1,.13,4A8.51,8.51,0,0,1,32.78,22.51Zm-23,19.1c5.23,0,10.32.15,15.4,0,4.09-.16,6.37-2.73,6.58-6.8s-1.89-7-5.82-7.51a75.43,75.43,0,0,0-9.29-.32c-2.27,0-4.55,0-6.87,0Zm0-22c4.61,0,9.14.07,13.66,0a3.93,3.93,0,0,0,3.42-2.27,8,8,0,0,0,.08-7.49A4,4,0,0,0,23.41,7.4c-4.52-.11-9,0-13.64,0Z" fill="#df6705"/><path d="M70.91,5V9.66H51.45V5Z" fill="#df6705"/></svg>