<svg id="Layer_2" data-name="Layer 2" xmlns="http://www.w3.org/2000/svg" width="170" height="170" viewBox="0 0 170 170"><title>boomtechfooter_logo</title><path id="SINGLE_COLOR" d="M152,61.2h-7.5c-.9,0-1.7,1.5-2.1,3.7H111.1V60.7h2.8c.2,1.2,5.6,2.2,12.2,2.2.3,0,.6-.5.8-1.3a13.3,13.3,0,0,0,.3-3.1c0-2.4-.5-4.4-1.1-4.4-6.6,0-12,1-12,2.1h-3V54.8h-6.2v.9h-1.2l-1.5-5.5H97l-1.4,5.5H94.4v-.9H88.6v1.5H81.6V56h0l-.3-.4h0a.9.9,0,0,0-.6-.3H78.9c-.9,0-1.7,1.4-1.7,3.2s.7,3.2,1.7,3.2h1.7c.2,0,.6-.2.9-.9h7.4l.3,4.1H84.8l-1-.7a10,10,0,0,0-7.1.5c.1-3.4-.6-8.1-1-8.4s-.3-.8-.3-1.5a11.9,11.9,0,0,0-.1-1.4L74,48.2c1.5-1.3,4.8-.2,5.7,5.5.3-11.8-5.8-10.6-7-9.3.3-.5,1.8-2.5,5.7-1.9a9.1,9.1,0,0,0-6.1.1c0-.6,0-.9,0-.9,0-1.8-5.2-3.1-6.6-.7a4.4,4.4,0,0,0-.2,1l-1.1.4-1.1-.4c-2.4-.3-5.6,1.4-6.1,3.8l-1,.9-.7-.5-.6-.6h.1c-.3-.3-.1-.1-.1-.1.1-2.2,2.1-3.3,3.6-4.9,3.6-5.3-.8-13.5.9-18.2-2,5.3-5.5,5.4-6.5,11.1,1.1-7.7-2.4-10-3.4-15.6-.4,4.3-4.5,9.2-3.3,12.2-2.4-5.3-7-6.2-10.9-10.7.7,3.8,2,11.4,6.2,13.7-6.5-3.3-8-1.5-15.7-4.2,5.1,4.2,2.8,7.1,11.6,9.4-4.6-1.2-7.3.5-13.2,2.8,7.5-1.4,9,1.1,13.8,1.3-6.2.1-6.9,3-13,8.2,5.1-3.4,9.9-3.1,14.5-3.5-2.6,1.7-4.8,5.9-8.7,6.8,3.3,1.4,11.8-2.9,13.7-4-5.8,3.6.4,9.1.7,10-.3-6.8,3.2-5.8,6.1-8.3h.5l2.1,1.6h.1a3.8,3.8,0,0,0,0,.4c-.1,8.6,4.7,11,4.7,11.1H29.7a19.3,19.3,0,0,0-.7-2c-.9-2.2-2.2-3.7-3.6-3.9H17.1l-.6.2-1.1.7-.6.7-.5.7a11.5,11.5,0,0,0-.8,1.6,20.5,20.5,0,0,0-1.7,8.6v.2h0c0,.2,0,.4,0,.5,0,7.3,2.6,13.3,5.7,13.3h7.6a3,3,0,0,0,2.1-.9,8.6,8.6,0,0,0,2-3c.3-.6.7-1.9.9-2.6H48.3a70.3,70.3,0,0,0,.3,8.4c.4-1.1,2.2-4,6.8-3.1a8.6,8.6,0,0,0-6.3,6.3c.5-.5,1.9-3.1,7.2-4.3-2.3,2.6-2.1,4.9-1.9,5.5h1.2l2.5-3A55.1,55.1,0,0,0,74.8,87c.3,0,.2,1.6.2,1.6s1.9-3.2,2.1-2.9A20.4,20.4,0,0,1,78,89l.4-.6a34.8,34.8,0,0,0,.7-4,2.7,2.7,0,0,1,.7,1.8l.5,3.9.8.2c.8.1,1.5,0,1.7-.5l3.2,1.9a10.5,10.5,0,0,0,3.3,1.5,3.8,3.8,0,0,0-.1.8c0,1.3,5.3,3.6,6.3,3.6h.6a43.5,43.5,0,0,0-6.9,2.9c-.2.2-4.4,3.8-5.6,5.4h0l-2,1.5-.7.6,2.8-4.4a6.3,6.3,0,0,0,1.1-1.9,9.1,9.1,0,0,0-4.9-3.7,7.9,7.9,0,0,0-4.4,1.5s-.4-1.6-.4-1.9A9.4,9.4,0,0,0,78,95.9a24.1,24.1,0,0,0,.4-3.2c-3.6-.3-10.3,1.4-12.1,2.8s-1.9-1-2.7-2h-.8c.8,1.6,3.2,6.7,3.8,7.7a12,12,0,0,0-1.8,4.4,15.8,15.8,0,0,0-.4,4.3L62.6,113c-.3.4-10.8,16.7-10.7,26.1a18,18,0,0,0,.1,3.1h0l.7.7.9.7,2,1.1,2.2.8,1.2.2h1l.4-.2h.3l.2-.2.4-.4.2-.2.2.3.7.2H63l1.2.2h1.6l.9-.2h.9a10.6,10.6,0,0,0,1.8-1.4l1.7-1.8a10.8,10.8,0,0,0,1.6-2.2,4.6,4.6,0,0,0,.5-1.4,7.4,7.4,0,0,0,.1-1.4c0-.4,0-.8,0-1.2a5.5,5.5,0,0,1,.1-1.1v-.5l.2-.5.5-.9,1.1-1.5.9-1.4v-1.2a1.2,1.2,0,0,0,0-.8h-.1v-.2a5,5,0,0,0-.5-.9l-2.5,3.4L72,131.3,70.6,133l-1.4,1.7-1.5,1.7-1.5,1.7-1.5,1.7-3,3.4-2,1.5H58.1a14.3,14.3,0,0,1-4.1-1.5,5,5,0,0,1-1.5-1,4.5,4.5,0,0,1-.5-1.7l.2.2,1,.6.5.3H54V139l.3-1.7.2-.8.2-.8.2-.8.2-.8.5-1.6.5-1.6.5-1.6.6-1.6.3-.8.3-.8.7-1.6.7-1.5c.5-1,1-2,1.6-3l1.7-2.9h.2l-.6,1.6-.3.8-.2.4v.4l-.6,1.6-.6,1.6-.5,1.6-.5,1.6-.3.8-.2.8-.2.8-.2.8c-.6,2.1-1.1,4.3-1.5,6.4l-.2.8v.8l-.3,1.6v2.4c0,.1,0,.3-.1.4h2.4l1.1-.2h.6a42.9,42.9,0,0,0,3.7-4.2c5.5-5.6,14.1-15.8,13.6-17.1s-2.5-2.9-2.6-3.1l-.6-.5-.7-.3h-.8l.9-.2h.9l.8.3.7.3.7.3,1.6,1.4c-.2-.3-1.5-2-1.9-2s-1.6-1.1-1.8-1.2a6.8,6.8,0,0,1,5,2c.3-.7,3-2.1,3.6-2.2a9.6,9.6,0,0,1,.3-3,22.5,22.5,0,0,1,.3-2.3l.3-.8h0l.3-1v1a5.2,5.2,0,0,0,0,.8v.8l.2.8.2.7h0a16,16,0,0,0,0,1.6c0,.1,0,1.5,0,1.5s0-1.5,0-1.6v-1.9c0-.1,0-.2,0-.3s0-.2,0-.3v-.3a6.6,6.6,0,0,1,.2-1l.2-.5.2-.5.5-1h0l.5-.9-.2,1a6.9,6.9,0,0,0-.1,1,6.2,6.2,0,0,0,0,1,6,6,0,0,0,.2,1v.5c0,.1-.4,2.4.1,2.8,7.7-1.5,11.7-3.6,11.7-3.6s3.8-1.8,5.5-3.8c.2-.2.5-3.3.6-3.8l.2-.8.2-.8h0l.3-.9v.9c0,.8,0,1.6,0,2.4v.9h0v.6l.3-.6.6-1.1.7-1,.8-.9h0l.7-.7-.4.8-.3.6-.3.6-.6,1.3-.5,1.3-.2.6.5-.5,1.3-.9,1.4-.7H111l.9-.2-.7.4-1.2.8-1.1.9-1.1.9c-1.5.9-2.5,1.3-3,2.6a11.6,11.6,0,0,0,0,3.3,22.3,22.3,0,0,0,.4,2.3c.2.8.4,1.5.7,2.3l.8,2.2.4,1.1.5,1.1,1.9,4.2h.1l.3,1.1.2.7.2.7c.3.8.6,1.7.9,2.5h-.3l-.9.3h-.3l-.3.2-.2.3-.2.3h0l.5.3h.8l.2.2a18.5,18.5,0,0,1,.8,2c.2.7.4,1.4.6,2.1s.3,1.4.4,2.1.2,1.4.2,2.2h0l.3.5-.3.5-.2.6h0l.3,6.5h0a1.4,1.4,0,0,0,.5.8l.9.5.9.2h.4a2.7,2.7,0,0,0,0,.5v.7h.1a2.7,2.7,0,0,0,.8.9l1,.5a6.6,6.6,0,0,0,2.1.2h1l.9-.2,1.9-.4,1.9-.4,1.9-.4,3.8-.9h.1a3.4,3.4,0,0,0,0-.6v-.6l-.2-1.2-.5-2.4a.8.8,0,0,0-.2-.5l-.4-.4-.5-.3-.5-.2h0l-1.5-.3h-.4l-1.3-.6h0l-.7-.8h0a6.6,6.6,0,0,0-1.1-1.3,12.4,12.4,0,0,1-1.2-1.6h0s-.8-1.8-1.6-8.2a7.9,7.9,0,0,1,2.2-2.6,11.3,11.3,0,0,0-2.7-.8l-.3-2.5c-1.7-26.6-2.3-28.2-2.3-28.2a13.7,13.7,0,0,0-2.5-2.5c.1.6.2,1.3.4,1.8v1.5a12.2,12.2,0,0,1,.3,1.3,10.8,10.8,0,0,1,.1,1.3c.1.9.1,1.7.1,2.6s0,1.7,0,2.6,0,1.7,0,2.6l-.6.6c0-1.7-.1-3.4-.3-5.1s-.2-1.7-.3-2.5-.1-.8-.2-1.3l-.4-2.5h0a15.4,15.4,0,0,0-.6-3.3,1.7,1.7,0,0,0-.7-.6H113c-2.5-1.1-9.3-.7-16.3,1.4a2.1,2.1,0,0,0,0-1.3c-.1-.5-.3-1.1-.7-1.1v-.2a1.1,1.1,0,0,0,1-1,1.1,1.1,0,0,0-.6-1.3h-.2l.2-1.1h.8c.4,0,.8-.4.8-.9h0a.9.9,0,0,0-.7-1.1H97l.2-.5h1.2c.4,0,.9-.5.9-1.1a1.6,1.6,0,0,0-.1-.7v-.2l-.3-.3a1.5,1.5,0,0,1,.9-.4l1.5-.2h1.3l1.6-.2h1.3v-.2h0l8.5,4.3.2.6v.2c1,1.4,4.6,2.5,4.8,2.5s-.2,1.4-.2,1.6,4.5,1.6,5.8,1.6h.9a.7.7,0,0,0,.6-.4c.3-.6-.2-1.8-.3-1.9v-.2a1.1,1.1,0,0,1,0-.3,1.2,1.2,0,0,0-.8-1.5h0a1.3,1.3,0,0,0,1.4-1.1,1.4,1.4,0,0,0-.8-1.5,1.4,1.4,0,0,0,.6-2.5l.4-.5h.1a1.4,1.4,0,0,0,1.5-1.3c0-.4.1-1-.5-1.2a9.3,9.3,0,0,0,1.8-4.3h13c.5,1.9,1.2,3.1,2,3.1h7.7c1-.2,1.7-2,2-3.5a32.8,32.8,0,0,0,.7-7.2C154.9,65.1,153.7,61.2,152,61.2Zm-25.9-6c.3,0,.6,1.5.6,3.3s-.3,3.3-.6,3.3-.6-1.5-.6-3.3S125.7,55.2,126.1,55.2ZM125,58.5a6.2,6.2,0,0,0,.7,3.9c-5.8,0-11.8-.8-11.8-2.2V58.5Zm-46.3,3c-1.3-.5-1.2-3-1.2-3h1.9s0,2.8,1.3,3Zm2-.8h.8s-.4.6-.8.6h-.1c-.5,0-1-1.4-1-3.2s.5-2.5,1-2.5H81a1.1,1.1,0,0,1,.4.6h-.8C79.9,57,80.1,60,80.6,60.7Zm31,71.1h0Zm10.5,9.9.4.5c-1.3-.4-4.3.5-5.5,1.3l.8.8A9,9,0,0,1,123,143l.4.4a10.3,10.3,0,0,0-5,1.6l1.1,1.1a10.7,10.7,0,0,1,5.1-1.4l.7.7H125c-1.1-.2-3.8.8-4.8,1.5s0,.4,0,.5l-.5.2-3.4-3.5c0-.1.1-.4.1-.5s4.3-2.1,5.5-1.8Zm-.4-.9h-.2a7.2,7.2,0,0,0-4.5,1.4,2.6,2.6,0,0,1-.4-1.2,2.1,2.1,0,0,1,1.4-.7l.2.4a9.5,9.5,0,0,1,2.6-.6v-.6h.6Zm-.5-2.1h-.4a7.2,7.2,0,0,0-4.4,1.1,2.6,2.6,0,0,1-.3-1.3,3.7,3.7,0,0,1,1.5-.6v.4a9.5,9.5,0,0,1,2.6-.4c0-.1,0-.4,0-.6h.7Zm-4.1-3.4v.4a9.5,9.5,0,0,1,2.6-.4c0-.1,0-.4,0-.6h.8l.2,1.4h-.1a7.3,7.3,0,0,0-4.8,1.1,2.6,2.6,0,0,1-.3-1.3A2.2,2.2,0,0,1,117.1,135.2Zm-1.8,16.4h0Zm10.1-57.7h0c.2.3.5,1.2.3,1.5a.4.4,0,0,1-.3.2h-.1a2.7,2.7,0,0,0-.3-1.5ZM110.7,55.2v1h-2.2v-1Zm0,9.7h-2.1V60.7h2.1ZM102,50.5l1.4,5.2h-2.1L100,50.5ZM94.4,61.4h10.5v3.5H94.4Zm-2.4-6.3h2v.6h-2Zm-.2,6.3h2.2v3.4H91.9ZM72.8,52.1a18.7,18.7,0,0,0,.4-1.9,9.4,9.4,0,0,1,1.2,3.1,14.9,14.9,0,0,1,.3,1.5c0,.8.1,1.5.5,1.8a31.3,31.3,0,0,1,.8,8H69.3c-1.1-3-2.9-8-2.5-8.8a12.7,12.7,0,0,0,2.4,1.6,16.7,16.7,0,0,1-3-5.4V50.8h0c0-.3.2-.6.8-.9a6.8,6.8,0,0,1,2.1-.7h.3v-.2h0a2.8,2.8,0,0,1,1.3-.5,1.6,1.6,0,0,1,1,.3C72,49.1,72.2,49.3,72.8,52.1ZM69.1,40.3c1.5.2,2.6.8,2.5,1.5s-1.3,1.1-2.8,1-2.6-.8-2.5-1.5S67.6,40.1,69.1,40.3Zm-2.3,3.5a4.1,4.1,0,0,0,2.8.6,8.4,8.4,0,0,0-1.7,2.4c-.1.1-1.9-.6-3.5.3A3.3,3.3,0,0,0,65.4,45c0-.3-.1-.6-.1-.6A4.2,4.2,0,0,1,66.7,43.8Zm-6.2-.5c1.7-.8,3.5-.5,4,.5s-.5,2.6-2.2,3.4-3.5.5-4-.5S58.8,44.1,60.5,43.3Zm-6.6,8.2-.2.8v.4c0,.1-.8-.9-1.3-1.5h0v-.2a3.5,3.5,0,0,1,0-.4,4.3,4.3,0,0,1,.1-.7,5.9,5.9,0,0,1,.5-1.4l.9-1.3.4-.5.6-.3.5.2A10,10,0,0,0,54,48.9a10.9,10.9,0,0,1,1.4-2.1l.5.3a13.2,13.2,0,0,0-1.9,4.1Zm3.9,8.7v-.3c-5.4-7.6-2.1-12.4-.8-13.9V48l-.4,2.8c.2.4.8,5.4,1.2,9.3Zm-.1-9.1.2-1.5,1.6.4L59,51.3v1.6H58Zm.8,8.8a3.7,3.7,0,0,1,.3-1.2l.6-.6.4-.2h0s0-5.2.1-5.7a25.6,25.6,0,0,1,.8-2.8A8.4,8.4,0,0,0,63.3,48l-.6,1a4.8,4.8,0,0,0-.3,1.4c-.1,1.2-.4,10.8-.3,11.3a6.1,6.1,0,0,0,1.8,3.1H62.4a8.6,8.6,0,0,1-1.1-1.5l-.8-.3a3,3,0,0,1-1.2-.8l-.4-.5A4,4,0,0,1,58.5,59.8Zm-36.7,25H17.3c-1.5-.6-2-2-2.8-3.8s-1.2-5.3-1.2-8.7c0-.2,0-.4,0-.5h6.3c0,.1,0,.2,0,.5A24.2,24.2,0,0,0,21.3,82v.2a7.8,7.8,0,0,0,1.8,2.6Zm2,.4h0Zm4.4-3.9c-.9,2.1-2,3.3-3,3.3s-2-1-2.8-2.8h-.1a23.8,23.8,0,0,1-1.7-9.3,24,24,0,0,1,1.7-9.3h.1c.8-1.8,1.9-2.9,2.8-2.9s2.1,1.2,3,3.3l.6,1.6H25.3c-3.4.9-3.3,12.7,0,14.1h3.5C28.7,79.7,28.3,80.8,28.1,81.3Zm-2.4-2.7c-2.5-1.4-2.3-6.7-2.3-6.7H45.6a16.9,16.9,0,0,0,1.6,6.8Zm22.5,0c-2-3.8-2.5-10,.1-13.2h4.8c-2.9,3.3-1.4,11.5,0,13.3ZM59,84.8s-2,.4-2.6-.2A5.9,5.9,0,0,1,56,83l.3-3.7a39.5,39.5,0,0,0,3,5.4Zm.2-5.7H79.2a4.4,4.4,0,0,1-2,1.1c-.6,0-9.5,1.2-13.4,1.3A31,31,0,0,1,59.2,79.1Zm23.5,3.6a5.2,5.2,0,0,0-1.7-.1h-.7a14.1,14.1,0,0,1-.1,6.4c.1-.8.1-1.6,0-2.4s0-1.1-.1-1.7-.2-1.8-.2-1.8H77.9a90,90,0,0,0-17.2,1.1l-.8.2a3,3,0,0,1-.2-2.5l2.1,1c4.8-.4,16-1.7,18.2-1.9a4.1,4.1,0,0,0,1.1-1.8v-.2h6l1.4,1.2h0a1.9,1.9,0,0,1,.6,1.1v.2l-2.5.2s-1.2-.1,1.9-1.6c-.1,0-3.8,1-4.7,1.9S83.2,82.8,82.8,82.7Zm3.6,7.5A5.6,5.6,0,0,1,83,88.4s1.1-3.5,0-5.1a5.3,5.3,0,0,1,4.6-.4S88,88.4,86.3,90.2Zm4.5,2.1c-.1.3-.6.4-1.1.3h-.5c-.2-.2-.4-.4-.3-.6s.3-.3.6-.3h.5C90.6,91.7,91,92,90.9,92.3Zm.6-2.7c-.1.3-.6.3-1.1.2h-.2c-.4-.2-.6-.5-.6-.7s.4-.3.9-.2h.2C91.2,89,91.5,89.3,91.4,89.6Zm.7-2.9c-.1.3-.6.5-1.1.4h0c-.6-.1-1-.4-.9-.7s.6-.5,1.1-.4h.9Zm-.6-2.7c-.6,0-1.1-.2-1.1-.5s.5-.5,1.1-.5,1.1.2,1.1.5S92.1,84.1,91.6,84.1ZM96.3,96c.1.5.1,1.2-.2,1.3h-.6c.4-.6-.1-2.3-.6-2.3s-.2-.2-.2-.7h.7v.3c0,.2.1.2.2.2S96.2,95.5,96.3,96Zm-.6-3.8H95l.2-1h.7Zm.8-3.1h-.7l.2-.5h.7Zm1.6-2.7h-.6l.6-.2h.4Zm.2-4.7A.7.7,0,0,1,99,81h.9v.7H98.3Zm5.5,2.6a.7.7,0,0,1-.7.7H98.9a.6.6,0,0,1-.6-.5v-.7h1.7l.7.5h.9v-.6h.7a1,1,0,0,0,1-.9v-.2a1,1,0,0,0-1-.9h-.4a2.4,2.4,0,0,1,.8-.7h.7c.4.1.5.4.5.8Zm-2.5-.5v.3h-.7v-.3Zm-.3-2.1a2.8,2.8,0,0,1,.6-.7h.7a2.1,2.1,0,0,0-.7.7Zm4.3,3.3h0l-.3.3h-.6c.6-.7,1.8-4.2,2.3-6.2h.7l-.4,1.4-.6,1.7-.6,1.6-.3.8Zm.3-.1v-.2l.3-.8.6-1.6h0l.2-.6.3-.9a61.1,61.1,0,0,0,6.3,4.5l-.8,1.1a.5.5,0,0,0,0,.6,4.4,4.4,0,0,1,.8,1.3v.6Zm2-5.6v-.2h9.6a11.6,11.6,0,0,1,1,3.1,21.8,21.8,0,0,0-3.4,1.4C113.6,82.9,109.9,80.9,107.6,79.2Zm12.4,6-1.9-.4c-.7-.2-.9-1-.7-1.7s.6-.5.9-.6a2.7,2.7,0,0,1,.1.5c0,.6,1,.6,1.6,1A4,4,0,0,1,120,85.2Zm4.5,6.4h0Zm1.2-5.3-.5-.2.2-.3h.7Zm1.2-3.2h-1c.5-.9,1.9-3.1,1.9-4h.9A9.7,9.7,0,0,1,126.9,83.1ZM54.4,78.7c-1.8-1.5-1.9-6.8-1.9-6.8h89.2a32.6,32.6,0,0,0,.7,6.6Zm90.1,3.1c-1.1,0-2.4-4.3-2.4-10.1h7.1c0,4.4.8,8.9,2.1,10.1Zm7.7-2.4c-.9,0-1.7-3.5-1.7-7.7s.8-7.7,1.7-7.7,1.7,3.5,1.7,7.7S153.2,79.4,152.3,79.4Z" fill="#303740"/><path d="M85,170a85,85,0,1,1,85-85A85.1,85.1,0,0,1,85,170ZM85,3a82,82,0,1,0,82,82A82.1,82.1,0,0,0,85,3Z" fill="#303740"/></svg>