<svg id="Layer_2" data-name="Layer 2" xmlns="http://www.w3.org/2000/svg" width="294.62" height="40.97" viewBox="0 0 294.62 40.97"><title>bt-logo</title><g id="WORDMARK"><path d="M30.18,12l0-6.22A5.67,5.67,0,0,0,24.49.17H0V40.8H24.52a5.62,5.62,0,0,0,5.62-5.62l0-14.15a4.5,4.5,0,0,0-4.5-4.5A4.5,4.5,0,0,0,30.18,12ZM22,32c0,1-1.34,1.83-2.35,1.83l-11.51,0,0-12.09,11.51,0c1,0,2.35.81,2.35,1.82Zm-.06-19.14c0,1-1.39,1.94-2.4,1.94H8.07V7.12H19.55c1,0,2.4.7,2.4,1.71Z" fill="#df3f05"/><path d="M57.88.1H41.75a9.62,9.62,0,0,0-9.62,9.62V31.25a9.62,9.62,0,0,0,9.62,9.62H57.88a9.62,9.62,0,0,0,9.62-9.62V9.72A9.62,9.62,0,0,0,57.88.1Zm1.58,29.62a4,4,0,0,1-4,4H44a4,4,0,0,1-4-4l.14-18.41a4.08,4.08,0,0,1,4.08-4.08H55.71a3.89,3.89,0,0,1,3.89,3.89Z" fill="#df3f05"/><path d="M95.2.1H79.06a9.62,9.62,0,0,0-9.62,9.62V31.25a9.62,9.62,0,0,0,9.62,9.62H95.2a9.62,9.62,0,0,0,9.62-9.62V9.72A9.62,9.62,0,0,0,95.2.1Zm1.66,29.71a4,4,0,0,1-4,4H81.44a4,4,0,0,1-4-4V11.31a4.08,4.08,0,0,1,4.08-4.08H93a3.89,3.89,0,0,1,3.89,3.89Z" fill="#df3f05"/><path d="M138.53.18H106.76V40.79h7.41l0-33.67h8.15l0,33.67h8.37l0-33.67h5.49c1.42,0,2.58,2.27,2.58,3.69l0,30h7.52V7.92A7.73,7.73,0,0,0,138.53.18Z" fill="#df3f05"/><polygon points="170.78 40.83 170.66 7.3 184.72 7.34 184.71 0.14 148.21 0.14 148.21 7.28 162.24 7.26 162.36 40.83 170.78 40.83" fill="#df3f05"/><path d="M195.05,21.72l19.32,0-.11-7.07L195,14.84l0-4.07c0-1.62,2.21-3.54,3.83-3.54h22.76V0H194.43a7.76,7.76,0,0,0-7.76,7.76V41h35l0-7.12-26.68,0Z" fill="#df3f05"/><path d="M251.12,29.91a3.87,3.87,0,0,1-3.87,3.87H235.49a3.87,3.87,0,0,1-3.87-3.87l.12-18.81a3.87,3.87,0,0,1,3.87-3.87h11.76a3.55,3.55,0,0,1,3.82,3.53l8.05,0v-1A9.62,9.62,0,0,0,249.62.1H233.25a9.62,9.62,0,0,0-9.62,9.62V31.24a9.62,9.62,0,0,0,9.62,9.62h16.37a9.62,9.62,0,0,0,9.62-9.62l.1-1.36Z" fill="#df3f05"/><polygon points="286.68 0.42 286.6 14.68 269.08 14.68 269.16 0.42 261.28 0.42 261.28 40.55 269.19 40.55 269.18 21.94 286.7 21.94 286.71 40.55 294.62 40.55 294.62 0.42 286.68 0.42" fill="#df3f05"/><path d="M30.18,12l0-6.22A5.67,5.67,0,0,0,24.49.17H0V40.8H24.52a5.62,5.62,0,0,0,5.62-5.62l0-14.15a4.5,4.5,0,0,0-4.5-4.5A4.5,4.5,0,0,0,30.18,12ZM22,32c0,1-1.34,1.83-2.35,1.83l-11.51,0,0-12.09,11.51,0c1,0,2.35.81,2.35,1.82Zm-.06-19.14c0,1-1.39,1.94-2.4,1.94H8.07V7.12H19.55c1,0,2.4.7,2.4,1.71Z" fill="#df3f05"/><path d="M57.88.1H41.75a9.62,9.62,0,0,0-9.62,9.62V31.25a9.62,9.62,0,0,0,9.62,9.62H57.88a9.62,9.62,0,0,0,9.62-9.62V9.72A9.62,9.62,0,0,0,57.88.1Zm1.58,29.62a4,4,0,0,1-4,4H44a4,4,0,0,1-4-4l.14-18.41a4.08,4.08,0,0,1,4.08-4.08H55.71a3.89,3.89,0,0,1,3.89,3.89Z" fill="#df3f05"/><path d="M95.2.1H79.06a9.62,9.62,0,0,0-9.62,9.62V31.25a9.62,9.62,0,0,0,9.62,9.62H95.2a9.62,9.62,0,0,0,9.62-9.62V9.72A9.62,9.62,0,0,0,95.2.1Zm1.66,29.71a4,4,0,0,1-4,4H81.44a4,4,0,0,1-4-4V11.31a4.08,4.08,0,0,1,4.08-4.08H93a3.89,3.89,0,0,1,3.89,3.89Z" fill="#df3f05"/><path d="M138.53.18H106.76V40.79h7.41l0-33.67h8.15l0,33.67h8.37l0-33.67h5.49c1.42,0,2.58,2.27,2.58,3.69l0,30h7.52V7.92A7.73,7.73,0,0,0,138.53.18Z" fill="#df3f05"/><polygon points="170.78 40.83 170.66 7.3 184.72 7.34 184.71 0.14 148.21 0.14 148.21 7.28 162.24 7.26 162.36 40.83 170.78 40.83" fill="#df3f05"/><path d="M195.05,21.72l19.32,0-.11-7.07L195,14.84l0-4.07c0-1.62,2.21-3.54,3.83-3.54h22.76V0H194.43a7.76,7.76,0,0,0-7.76,7.76V41h35l0-7.12-26.68,0Z" fill="#df3f05"/><path d="M251.12,29.91a3.87,3.87,0,0,1-3.87,3.87H235.49a3.87,3.87,0,0,1-3.87-3.87l.12-18.81a3.87,3.87,0,0,1,3.87-3.87h11.76a3.55,3.55,0,0,1,3.82,3.53l8.05,0v-1A9.62,9.62,0,0,0,249.62.1H233.25a9.62,9.62,0,0,0-9.62,9.62V31.24a9.62,9.62,0,0,0,9.62,9.62h16.37a9.62,9.62,0,0,0,9.62-9.62l.1-1.36Z" fill="#df3f05"/><polygon points="286.68 0.42 286.6 14.68 269.08 14.68 269.16 0.42 261.28 0.42 261.28 40.55 269.19 40.55 269.18 21.94 286.7 21.94 286.71 40.55 294.62 40.55 294.62 0.42 286.68 0.42" fill="#df3f05"/></g></svg>