<svg id="DESKTOP" xmlns="http://www.w3.org/2000/svg" width="393.25" height="316.49" viewBox="0 0 393.25 316.49"><title>rear_zooka_explosion</title><g id="REARZOOKAEXPLOSION"><path id="outersmoke" d="M377,192.45c3.63,1.14,14.56-3.38,14.56-3.38,2.28,3.78,1.59,5.62,1.59,5.62-2.16,2.16-15,7.12-15,7.12-5,2.44-4.78,4.69-4.78,4.69,3.41.94,14.57-3,14.57-3-15.71,7.32-24,15.13-24,15.13-.82,3.81,1.91,4.49,1.91,4.49h5a76.05,76.05,0,0,0-16.16,7.06,78.75,78.75,0,0,0,13.43,2c-8.42,2.5-18.9,4.33-18.9,4.33,1.14,5.24,10.47,14.34,10.47,14.34,8.42,16.16.46,44.39.46,44.39-9.9,9.9-51,21.17-51,21.17,8-6.15,9.11-9.79,9.11-9.79a17.78,17.78,0,0,0-4.78,1.14c5.92-5,14.57-12.52,14.57-12.52-5.46,2.28-7.28.68-7.28.68,4.33-2,9.79-6.83,9.79-6.83-8.2,1.37-18.9,6.15-18.9,6.15-5.24,0-30.28,2.28-30.28,2.28-9.11.91-32.55,8.88-32.55,8.88-2.73,0-9.79-3-9.79-3,6.37.46,17.53-6.83,17.53-6.83,5.24-3.87,14.34-8,14.34-8-12.29,2.5-25.27-.45-25.27-.45-5.92,0-16.85,3.18-16.85,3.18-14.8,3-20.49,3-20.49,3-6.83,2.5-33,5-33,5-15.71,1.14-20.49-1.37-20.49-1.37-7.51.68-24.36-.46-24.36-.46l10.47-4.1-7.51-.68,31.19-8.65c-8.88.46-30-5.69-30-5.69,8.88-.81,20-5,20-5-.91-3.41-14.11-2.73-14.11-2.73l-22.54-1.82c-5-1.82-7.06-4.1-7.06-4.1-6.37,0-24.36.46-24.36.46l-13-.91L120,255l28-6.15,5.46-4.55c-1.14-1.82-12.29-1.59-12.29-1.59,7.51-2,21.63-1.82,21.63-1.82,2-.46,3.41-5.46,3.41-5.46-5.46,0-16.62,2-16.62,2l-10.24,3.41-19.58-.23a22.07,22.07,0,0,1-.68-7.74v-21.4c-3-3.64-12.07-7.28-12.07-7.28C91.74,203.81,72.62,199,72.62,199c7.28-5.24,45.07-20.49,45.07-20.49-13.66,0-46.9-10.24-46.9-10.24,6.83-1.14,16.62-3.64,16.62-3.64-15.94-1.37-67.84-24.13-67.84-24.13-.46-2.28,0-8,0-8C14.34,131.87,0,121.17,0,121.17c23.68-1.14,108.59,0,108.59,0l-.46-4.78c-8.2-1.82-16.39-4.1-16.39-4.1,7.06-1.82,19.35,0,19.35,0-5.92-.91-6.6-3.41-6.6-3.41h6.15a40,40,0,0,0-6.37-4.78A63.91,63.91,0,0,0,94,103.18C88.78,102,75.35,92.71,75.35,92.71c-5-2.5-22.31-8.2-22.31-8.2L85.6,90.66c10.24.46,18,1.37,18,1.37l-6.83-7.51c6.83,2.5,21.63,7.74,21.63,7.74a19.62,19.62,0,0,1-5.46-7.74,69.85,69.85,0,0,0,9.33,5c7.06,0,20.49,4.1,20.49,4.1l4.55,2.5c5.46,0,10.24-.23,10.24-.23l-6.15-3.41,5.69-3.87c-8.88-3.87-22.77-20-22.77-20l4.78.46C114.28,55.83,93.79,47,93.79,47L46,33.52c40.29,4.55,86.74,20,86.74,20L130,49l39.38,10.93c-.91-4.1,5-6.15,5-6.15L173,50.14l1.82-1.37,10,7.28c0-2-11.84-12.75-11.84-12.75,8,.46,26,13.43,26,13.43-8-10.24-2-20.94-2-20.94a133.67,133.67,0,0,0-3.64-15.48C199,28.06,199,30.11,199,30.11l.23-14.57C215.13,26.24,229,33.75,229,33.75c0,5,2.73,10.47,2.73,10.47,5,2,6.6,7.74,6.6,7.74,3.19,5.46,9.11,9.11,9.11,9.11,5.69,2.73,8.88,9.33,8.88,9.33-3.64-.91-15-5.92-15-5.92a14.43,14.43,0,0,0,6.37,7.06l14.11,13,4.55,2.28c-4.33-7.51-8.2-14.57-8.2-14.57C265,75,289.34,98.4,289.34,98.4c0-1.59,2.5-3,2.5-3-5.92-6.83-28.46-27.32-28.46-27.32,4.33,1.37,18.67,13.2,18.67,13.2l1.82-2.28,6.83,3c-2-4.1-23.45-24.13-23.45-24.13l5.46.23L260,43.08c14.34,6.15,35.74,30.06,35.74,30.06,1.6-1.6,4.6-1.38,4.6-1.38C296.86,65.62,279.78,47,279.78,47L290,50.37c-1.37-3-18-21.63-18-21.63,8.2,3,35.06,39.61,35.06,39.61,0-3.87,4.33-4.78,4.33-4.78-.91-7.06-8-16.39-8-16.39a19,19,0,0,1,5.92.91l.23-8.2,4.1.23c1.37-3.87-4.1-25.27-4.1-25.27,12.07,8.42,21.63,21.63,21.63,21.63,1.61-2.15,5.49-2.61,7.06-2.71l.68,0C362.65,47.64,366.5,70.4,366.5,70.4c-5.45-8.42-29.12-23.68-29.12-23.68l-3.64,2-9.79-6.15c4.78,6.37,11.61,20,11.61,20,0,9.56.23,18.67.23,18.67,5.46,6.83,21.17,37.56,21.17,37.56,1.59-4.55.68-11.15.68-11.15a41.31,41.31,0,0,1,6.37,8c.46-10,.46-18.67.46-18.67l5.46,6.6A127.15,127.15,0,0,0,368.34,85c6.6,10.24,6.15,19.12,6.15,19.12a115.77,115.77,0,0,1-3.87,28.46c2.73,1.59,6.15-3.4,6.15-3.4L384,116.39c4.55,25.72-10.83,34.08-10.83,34.08l-9.29,3-.37,35.29Z" fill="#5b564a"/><path d="M363.93,192.36l.63,0c3.67-.14,22-1.06,22-1.06-4.1,5.92-14.34,11.17-14.34,11.17l-12.29,3.4c-28.23,8.88-17.3,13.45-17.3,13.45l19.12,1.35c-13.66,3.87-16.16,8.2-16.16,8.2,4.78,1.37,13,2.92,13,2.92A73.69,73.69,0,0,1,346,234.68c9.17,11.42,4.78,18.55,4.78,18.55,3.87-2.08,9.11-7.31,9.11-7.31,3.27,17.52,1.37,29.8,1.37,29.8-3,4.12-6.37,9.12-6.37,9.12a38.48,38.48,0,0,0,1.59-10.25c-1.37,4.56-5.24,10.71-5.24,10.71-4.33,4.33-18.67,9.33-18.67,9.33,5.69-7.28,12.52-19.58,12.52-19.58l-3.87,1.37.46-6.83c3.64-2.28,10.24-11.38,10.24-11.38l-2.5-.75c-2,3-14.34,13.73-14.34,13.73l-2.5-.91c3.19-3.19,1.59-5,1.59-5a8.1,8.1,0,0,0-4.33,1.59c-.46,5-13.66,15.51-13.66,15.51l-6.15,2.25a61.88,61.88,0,0,0,14.11-18.89A38.51,38.51,0,0,0,313,271.65c-3-4.78-7.28-.23-7.28-.23-7.51,3.19-53.27,2-53.27,2,3.87-3,19.35-8.2,19.35-8.2-12.29,1.59-50.54-2-50.54-2,5,1.82,19.81,3,19.81,3-23.45,4.78-35.58,1.26-35.58,1.26l7.58-2.63c-2.16-2.16-12.75,1.37-12.75,1.37-8.65,0-57.37-.68-57.37-.68a107.49,107.49,0,0,1,10.47-3c-9.33.91-69.43,1.37-69.43,1.37,33.46-3,54.18-7.28,54.18-7.28l-31-1.37a384.18,384.18,0,0,1,40.29-7.51l4.1-3.19-13-.46L171.42,243l4.55-.68-4.1,3.19a53.37,53.37,0,0,0,10.7,2c-13.2-.68-26.18,4.55-26.18,4.55,9.11.91,26.64-.68,26.64-.68,4.55,3,42.56,3.85,42.56,3.85,1.6,3.66,43.95,6.17,43.95,6.17,2.73-2,1.82-3.19,1.82-3.19-2.62-2.62-20.94-1.14-20.94-1.14L265,248.43c-12.75,5.46-12.52,3.87-12.52,3.87-10.2,1-39.16-1.14-39.16-1.14,10.24-6.15,39.38-10.7,39.38-10.7,2.73-1.59,1.37-2,1.37-2a261.26,261.26,0,0,0-26.86,4.1c-24.81,4.55-43.94,1.37-43.94,1.37l18.44-4.1a89.32,89.32,0,0,0-13.43-.23l1.37-1.37c-4.78.91-17.53-.23-17.53-.23,3.19-.91,10.7-4.78,10.7-4.78,11.38-.91,29.59.23,29.59.23,11.61-1.37,13.43-2,13.43-2-2.39-2.39-13-5.46-13-5.46-17.3,0-39.84,1.47-39.84,1.47-25.5,2.4-73.08-.56-73.08-.56,9.56-1.59,10.93-3.87,10.93-3.87-2.28-2.73-12.07-2.73-12.07-2.73,14.34-1.59,32.78-8.42,32.78-8.42l-.91-3c7.74-.46,43-.23,43-.23l-3-1.82-13.43.23,1.14-2.73c-7.74,1.14-19.35.23-19.35.23,5-1.37,6.37-3.64,6.37-3.64,1.37-3.41-.68-3-.68-3a6.53,6.53,0,0,0-4.78,1.82c-7.28.91-19.35.68-19.35.68-4.78-2-16.85-2-16.85-2l-28.91.46,13.2-4.55c-2.73-1.14-11.84,0-11.84,0l25.5-7.06c7.74-4.78,28.68-7.28,28.68-7.28,13.89,0,32.78,2.73,32.78,2.73-3.19-1.82-12.07-4.55-12.07-4.55,12.75-1.82,31-1.59,31-1.59C173.93,174,160,171,160,171l18.44-3c-5.24-.91-6.6-1.59-6.6-1.59l-.68-4.55-3-.91-.91,4.1c-3.87,0-14.57-.68-14.57-.68-17.3,0-58.05-11.61-58.05-11.61,2-.46,17.3-2.73,17.3-2.73-17.07-4.1-77.4-23.22-77.4-23.22,20,8.88,53.5,20.49,53.5,20.49-9.33.91-21.63-.23-21.63-.23l-.68-4.1-35.51-6.37,8.88-2C21.85,133.46.46,120.49.46,120.49c33.69-.68,50.31,2.28,50.31,2.28L41,116.62c33.46,2.28,35.51,3,35.51,3,2.28,2.73,3,3.19,3.64,3.19.68-1.59-1.14-5.46-1.14-5.46,10.47.68,27.77,5.46,27.77,5.46l-4.1-4.1,7.74.46c8,1.37,23.68,3.87,23.68,3.87l-5-6.37c14.8,1.37,35.74,7.28,35.74,7.28-4.78-2.28-12.52-9.33-12.52-9.33,10,0,23.68,2.5,23.68,2.5a61.75,61.75,0,0,1-9.11-5.69c17.53,1.37,46,13,46,13l3,2c-7.51.68-29.59-5.69-29.59-5.69,5.24,4.55,19.12,8.44,19.12,8.44,10.7,5.22,21.17,9.77,21.17,9.77.68,4.33-.68,4.78-.68,4.78a6.72,6.72,0,0,0-6.6,4.33l-36-1.37c7.51,4.33,10.24,4.78,10.24,4.78-5.69,0-38.93-5.24-38.93-5.24,14.34,7.28,33.69,11.84,33.69,11.84-7.06,0-11.38-.46-11.38-.46,3,4.1,21.4,7.51,21.4,7.51C189,167.84,188,168.29,188,168.29l-5.24-.91L181.21,169c-2.73,1.8-4.1,2.5-4.1,2.5,14.8,4.1,17.3,6.37,17.3,6.37,3.41,5.92-8,6.6-8,6.6a14.5,14.5,0,0,1,1.37,3.64c6.15-.91,14.11,1.14,14.11,1.14-5.69,3.87-6.83,4.55-6.83,4.55-6.15,1.59-15.25-1.37-15.25-1.37,2.5,3.87-4.55,6.83-4.55,6.83a60.06,60.06,0,0,0-12.75,0l.68,1.82c7.06,0,17.3,2.28,17.3,2.28a53.32,53.32,0,0,1,14.8.46l-3.87,3.87a25,25,0,0,1,14.34,1.14c-5,2.28-9.8,4.33-9.8,4.33a31.77,31.77,0,0,1,11.62,1.59c-7.06,2,5,3.41,5,3.41h36.42c-14.57-3.41-18.44-6.15-18.44-6.15l15.48-15.71a22,22,0,0,1-6.51-3.64,155.47,155.47,0,0,1-2.37-15.94c-3.19-2-10.47-3.41-10.47-3.41-19.58,3-38.7-2-38.7-2C201.7,170.11,212.85,161,212.85,161a157.36,157.36,0,0,0,18,3.19,70.73,70.73,0,0,1,16.62,2.73,67.66,67.66,0,0,0-8.2-6.58l8.65,1.8,5.46,4.78c3.41-1.82,5.46-10.7,5.46-10.7l-8,3.64c-5-.91-25.72-8.88-25.72-8.88a48.77,48.77,0,0,1,8.88,1.14c-3.19-3.19-7.51-7.06-7.51-7.06l20.94,3.41a27.5,27.5,0,0,0-2.28-6.6c-6.37-2.28-20-13-20-13l15.25.25-7.28-4.34,6.47,2c-3.05-2.28-23.31-15.48-22.63-15.48s45.3,17.3,45.3,17.3a35.41,35.41,0,0,1,1.59,3.19,2.76,2.76,0,0,1-1.14.23c-.68,0-1.59,1.37-1.59,1.37l18.6,5.79L229.24,106.6a81.81,81.81,0,0,0-9.79-4.78c14.11,9.56,18.44,14.34,18.44,14.34-15.71-5.46-30-11.84-29.37-11.84s7.28-.46,7.28-.46l-8.2-7.06,22.31,2.5c-10.7-7.28-47.35-21.4-47.35-21.4l13,2.28L156.62,63.12l5.24,5.46C159.36,67.67,87,43.31,87,43.31l44.62,10-1.82-4.55L167.1,59c3.41-.46,9.33-1.37,9.33-1.37,4.55.91,8,5.24,8,5.24,26.86,8.65,54,21.63,54,21.63,2.28.46,1.23-2,1.23-2l-6.69-1.82c-3.87-1.59-10-9.56-10-9.56a195.78,195.78,0,0,0,25,10.93c9.11,4.1,19.81,10.24,19.81,10.24,4.78.91,3.19-2,3.19-2-5.24-2-8-7.28-8-7.28a53.79,53.79,0,0,0,7.28,3.19c-4.1-3.19-6.37-10.24-6.37-10.24L290.71,98c0-6.62-7.74-16.18-7.74-16.18l13.66,6.15c-8.65-14.34-36-44.62-36-44.62l40.75,32.33c-7.06-13.43-19.58-26.86-19.58-26.86l8.2,2.73c-3.41-7.06-16.39-24.36-16.39-24.36l36.65,43.48c0-2.5-1.59-8.65-1.59-8.65,36.2,21.4,54.64,70.12,54.64,70.12,2.5-8,9.33-33.24,9.33-33.24l-3.87,38c2,2.73,8.65,2.77,8.65,2.77l-3.89,10.84Z" fill="#aaa8a0"/><path d="M173.65,105.85c-3.59-3.59-21.51-9.22-21.51-9.22a49.82,49.82,0,0,0,5.12,3.44l-14-3.44C132.68,93.9,99.56,86.39,99.56,86.39l8.54,7.17c-9.72-2-48.15-10.34-48.15-10.34,20.49,11,65,24.34,65,24.34l-13.47-8.88c15.71,6.83,44.39,8.88,44.39,8.88l-9.9-7.49C157.6,105.51,173.65,105.85,173.65,105.85Z" fill="#aaa8a0"/><path d="M187.65,275.9a23,23,0,0,1-10.24,4.78c-5.8,1-31.41-1-31.41-1,4.78-2,10.24-4.44,10.24-4.44C165.46,274.19,187.65,275.9,187.65,275.9Z" fill="#aaa8a0"/><path d="M203,286.14c-10.59,3.41-34.15,7.85-34.15,7.85H137.46l30.39-8.69C178.09,284.44,203,286.14,203,286.14Z" fill="#aaa8a0"/><path d="M226.92,52.58a89.58,89.58,0,0,1,15.37,8.2c-2-3.76-9.9-13.32-9.9-13.32l-5.46-2c-3.76-3.76-7.85-14.68-7.85-14.68,5.46,1.37,7.17,2.39,7.17,2.39l-.68-3.36a53.1,53.1,0,0,1,6.83,2.68,52.5,52.5,0,0,0-2.73-8.2l14.68,10.24L242.63,26c-5.46-5.46-26.29-26-26.29-26l4.78,10.59A81.55,81.55,0,0,0,196,4.78c10.61,5.23,12.82,12.65,12.15,10.93-2.39,3.07-9.9,1-9.9,1a19.78,19.78,0,0,1,7.85,17.41,64.82,64.82,0,0,0,5.12,14L200.29,40l6.15,9.56h-5.8l14,11.27-1.71-4.72,2.73,1.31-2.39-7.85,27.66,23.63-6.49-7.93,2.39-1.71Z" fill="#aaa8a0"/><path d="M363.85,186.18c1.18,11-12.22,52.43-12.22,52.43a201.85,201.85,0,0,1,.09-28.67c-.11,13.64-14.31,54.4-14.31,54.4,3.6-35.1-2-45.2-2-45.2.05,20.52-7.09,41.44-7.09,41.44,1.28-17.86,4.14-45.68,4.14-45.68-4.83,16-11.61,22.62-11.61,22.62a34.22,34.22,0,0,0,2.25-16.33c-3.78,2.75-5.76,13.69-5.76,13.69a40.4,40.4,0,0,0-10.46-8.63c-2.63,21.61-39.3,51.41-39.3,51.41,25.3-28.78,24.22-44.06,24.22-44.06l-55.44,22L196,273.83c26.35-19.18,138.58-79.12,138.58-79.12-7.18.22-114,56.67-114,56.67,21.12-31,85.14-57.8,85.14-57.8,8.8-7.61,55.92-16.54,55.92-16.54" fill="#9a9994"/><path d="M361,150.92c.71-8.81-17-39.77-17-39.77,2.73,12.28,1.61,30.8,1.61,30.8-1.59-10.5-18-42.79-18-42.79,2,10.24,3.52,30,3.52,30-4-20.32-13.55-27.37-13.55-27.37,5.05,9.82,11,33.72,11,33.72C323.11,133.08,316,122,316,122a54.67,54.67,0,0,0,2.68,11.15C314,131,310.25,122,310.25,122a40,40,0,0,0,3,10.39c-4.31-3.61-9.82-13.34-9.82-13.34a113.17,113.17,0,0,0,2.31,15.34c-4.79-3-9.76-14.21-9.76-14.21l4.68,14a6.69,6.69,0,0,1-4.28-1.05c-7.51-2.8-13.15-13.19-13.15-13.19-.7,3.74.7,9.65.7,9.65A180.4,180.4,0,0,0,269.23,117l.65,3.3c-8.22-8.85-30.3-22.35-30.3-22.35,18,19.62,23.73,26.73,23.73,26.73,25.87,27.86,72.49,34.46,72.49,34.46C354.8,164.33,361,150.92,361,150.92Z" fill="#9a9994"/><path d="M361.74,149.76c-4.4-11.29-24.59-17.34-24.59-17.34,3.95,2.56,3.95,3.26,3.95,3.26A87.58,87.58,0,0,1,330.17,130c3.19,2.73,5.77,4.7,5.77,4.7-6.07-3.79-9.86-5.77-9.86-5.77,6.22,5.5,5.77,6.78,5.77,6.78-14.57-11.32-54.94-31.81-54.94-31.81,8.2,13.05,21.85,24.43,21.85,24.43l5.16,4.4c3.64,5.77,12.14,14.11,12.14,14.11-9.71-8.35-62.68-36.58-62.68-36.58-4.25-2.43-25-10.17-25-10.17,24.28,21.7,60.4,45.23,60.4,45.23-8.27-1.41-11.53-.66-15.89,3.57-.95.92,3.53,5.53,6.48,7.09-12.29-.65-30,14.51-30,14.51,0,2.43,18.21,12.61,29.82,11.75-2.5,4.51-8.42,13.6-4.19,17.45,5.05,0,10.11-2.47,14.89-5,4.85,1.61-1.14,8.88-1.14,8.88-10.24,9.45-60.33,37.68-60.33,37.68,30.28-.57,75.81-32.9,75.81-32.9-7.06,13.66-26.75,33.12-26.75,33.12,51.45-16.39,84.34-49.17,84.34-49.17Z" fill="#bfb8ac"/><path d="M361.45,59.49c-2.91-7.36-17.07-21.65-17.07-21.65-5.12-2.34-6.47-4-6.47-4a30.42,30.42,0,0,0-6.5,4c-2.74-4.66-19.93-21.63-19.93-21.63.47,6,6.27,25.1,6.27,25.1L310.6,40l1.35,8.19a36.1,36.1,0,0,1-7.86-1c3.89,3.89,6.83,17,6.83,17l19.25,15.24c1.58-5.34.21-17.63.21-17.63l-12-18.1,4.1.34-4.78-16c6.2,15.37,10.35,17.24,10.35,17.24a55.82,55.82,0,0,1,9.11-2.9c3.07,4.1,9.9,7.85,9.9,7.85Z" fill="#aaa8a0"/><path d="M359.69,191.28c0,3.64-5.24,9.33-5.24,9.33a12.06,12.06,0,0,0,.68-4.79c-2.73,8.66-5.24,10.94-5.24,10.94l2.73-7.28c-4.1,3.41-7.06,10.47-7.06,10.47a25,25,0,0,1,4.78-10.7c-11.15,9.56-19.12,11.38-19.12,11.38l4.33-13.89c-8.88,7.28-29.37,7.69-29.37,7.69,0-3.59,13.2-17.71,13.2-17.71-13.43,0-25-7.28-25-7.28-15.25-6.15-17.3-6.83-17.3-6.83,9.79-12.27,24.59-21,24.59-21-10.7-12-36.88-28.87-36.88-28.87l45.76,23,9.56,3.41c-2.5-9.33-21.63-27.77-21.63-27.77C322.13,132.32,336,141.2,336,141.2l-2-5.81,4.1,2.62-.68-2.34c18.21,8.21,22.08,16.22,22.08,16.22Z" fill="#fde3d2"/><path d="M357.51,154.44c-5.56-8-17.4-12.55-17.4-12.55l3.64,9.24c-3.87-.59-19.12-8.55-19.12-8.55l13.66,15.71c-17-2.42-20.88,14.37-20.88,14.37,2,16.1,18.74,13.6,18.74,13.6l-3.38,7.87,12.12,3.54c5.24-2,12.29-11.62,12.29-11.62Z" fill="#fbedd8"/></g></svg>