<svg xmlns="http://www.w3.org/2000/svg" xmlns:xlink="http://www.w3.org/1999/xlink" width="654.3" height="71.54" viewBox="0 0 654.3 71.54"><defs><filter id="AI_GaussianBlur_4" name="AI_GaussianBlur_4"><feGaussianBlur stdDeviation="4"/></filter></defs><title>btanimation_boom</title><g id="DESKTOP"><g filter="url(#AI_GaussianBlur_4)"><path d="M199.4,36.28l5.94-9.69c2.95-4.65-5-8.45-17.57-8.55L87.21,17.28,63.83,41.09,17,88.78l121.61-.06c15.16,0,30.68-5.18,34.61-11.38l16.72-26.1c2.69-4.25-3.91-7.66-14.71-7.71C186,43.57,196.86,40.29,199.4,36.28ZM139,71.14c-1.41,1.95-8.93,3.54-13.72,3.53l-55-.12L90,52.08l51.91.24c4.52,0,9.49,1.47,8.19,3.25Zm24.23-33.71c-1.19,1.64-8.34,3.14-12.72,3.11L100.4,40.3l11-12.32,48.43.3c4.24,0,9.28,1.15,8.14,2.72Z" transform="translate(-17 -17.28)" fill="#1e262c"/><path d="M313.62,18.9l-64.08-.49c-21.31-.16-42.67,6.05-47.82,14.19L178.24,69.74c-6.53,10.33,8.81,19.09,34.45,19.08l76.95,0c25,0,47.27-8.63,49.67-18.77L348,33.47C349.88,25.44,334.51,19.06,313.62,18.9Zm-9.45,48.2c-1.35,4.15-10.71,7.57-20.9,7.56l-52.47-.06c-10.34,0-16.85-3.48-14.58-7.68L234,35.3c1.91-3.53,11-6.3,20.24-6.24l47,.3c8.74.06,14.95,2.77,13.87,6.11Z" transform="translate(-17 -17.28)" fill="#1e262c"/><path d="M450.84,19.94l-62-.47c-20.63-.16-38.91,6-40.81,14L339.31,70C336.91,80.15,355,88.74,379.62,88.73l74,0c24.1,0,42.32-8.46,40.89-18.43l-5.14-35.95C488.28,26.39,471.07,20.09,450.84,19.94ZM460,67.58c.24,4.08-7.51,7.44-17.33,7.43L392.06,75c-10,0-17.54-3.42-16.92-7.54l4.71-31.29c.52-3.48,8.23-6.21,17.2-6.15l45.42.29c8.46.05,15.45,2.73,15.65,6Z" transform="translate(-17 -17.28)" fill="#1e262c"/><path d="M640.48,32.53,671.3,88.42l-32.6,0L614.2,36.69c-1-2.15-7-5.55-12.37-5.58L581,31l22.47,57.48-36.87,0L549,30.77l-31.36-.2,12.71,57.92-33.21,0-9.75-68.18,118.6.9C621.7,21.35,637.06,26.32,640.48,32.53Z" transform="translate(-17 -17.28)" fill="#1e262c"/></g></g></svg>