<svg xmlns="http://www.w3.org/2000/svg" xmlns:xlink="http://www.w3.org/1999/xlink" width="322.81" height="274.55" viewBox="0 0 322.81 274.55"><defs><linearGradient id="New_Gradient_Swatch_5" x1="14.57" y1="139.32" x2="321.9" y2="139.32" gradientUnits="userSpaceOnUse"><stop offset="0" stop-color="#dd7e27"/><stop offset="0.39" stop-color="#de6926"/><stop offset="0.7" stop-color="#dd5026"/><stop offset="0.84" stop-color="#dd4326"/></linearGradient></defs><title>blast_head</title><g id="DESKTOP"><g id="BLASTHIT"><path id="_4" data-name="4" d="M319.17,150.7C319.62,131.23,265,77.26,265,77.26l5,13.34C199,37.33,126.57,21.4,126.57,21.4L110.18,20c10.93,8.2,19.58,15,19.58,15L82.41,15l2.28,5L38.7,0,80.59,27.77,63.74,25.6l39.61,28.12,29.59,16.85L83.32,63.74,109.73,82,51,79.68l39.61,13.2L44.16,86.05,68.75,94.7l-59.19-5,19.12,5.46L0,97.43c50.54,32.33,111.55,55.09,111.55,55.09l66,23.22c-19.12,19.12-110.64,71-110.64,71l42.8-10.47c-34.15,15.48-56.91,24.13-56.91,24.13l46.44-11.84a188.46,188.46,0,0,1-32.33,26c37.33-8.65,82-35.51,82-35.51l-6.83,27.77C161.18,255.88,184.4,234,184.4,234l-31.87,37.79c31,5.46,80.59-14.57,80.59-14.57l.46,14.57C334.65,215.81,319.17,150.7,319.17,150.7Z" fill="#df3f05"/><path id="_3" data-name="3" d="M289.12,124.75c22.31,10.93,29.14,35.51,29.14,35.51.91,34.6-6.83,37.33-6.83,37.33,4.1,0,10.47-4.1,10.47-4.1C302.78,220.82,239,257.25,239,257.25A51.55,51.55,0,0,0,253.15,239c-11.84,7.28-40.07,22.31-40.07,22.31l5.46-7.74c-7.74,5-31.87,14.11-31.87,14.11,10.4-4.1,32.33-19.58,32.33-19.58a92.18,92.18,0,0,1-19.58,9.56c20-15,21.4-31.87,21.4-31.87-6.37,7.28-19.58,13.2-19.58,13.2-2.28-4.1-17.3-10.47-17.3-10.47-13.2,5.92-37.33,31.87-37.33,31.87,8.65-20.94,8.65-28.68,8.65-28.68l3.29-5c-14.39,14.39-68.85,34.6-68.85,34.6,46-27.32,72.85-56.91,72.85-56.91-4-9.56-13.2-3.64-13.2-3.64-5,6.83-9.11,17.3-9.11,17.3a123.06,123.06,0,0,0-1.82-20.49,54.35,54.35,0,0,0-10.93,5.73,53.63,53.63,0,0,1,11.38-18.48A153.68,153.68,0,0,0,123.39,183C130.44,176,138,167.1,138,167.1c-9.56-1.82-16.85-11.84-16.85-11.84,6.37,1.82,17.3.77,17.3.77-3.64-4.87-33.24-9.88-33.24-9.88a260.49,260.49,0,0,1,34.15-1.82C120.65,141.14,14.57,102,14.57,102c52.82-8.2,110.64-3.64,110.64-3.64-10-5.46-34.6-8.65-34.6-8.65C106.09,87.87,127,92.43,127,92.43c4.1-7.28-1.37-10-1.37-10C117,80.13,94.25,66.47,94.25,66.47c12.29,4.1,29.14,7.74,29.14,7.74C106.54,68.75,87,51.9,87,51.9a99.76,99.76,0,0,0,21.4,8.2,140.94,140.94,0,0,1,16.85.91c-13.66-5.46-51-31.87-51-31.87a208.65,208.65,0,0,0,21.85,4.55l-41-22.77L97.43,29.59l-6.37-6.83,77.17,33.45C150.25,42.8,129.31,30,129.31,30c88.33,17.3,179.39,98.8,179.39,98.8C289.57,119.29,289.12,124.75,289.12,124.75Z" fill="url(#New_Gradient_Swatch_5)"/><path id="_2" data-name="2" d="M303.69,139.32c-41.43-51-127-81.5-127-81.5,50.54,27.77,68.75,46,68.75,46C184.85,76.49,135.22,51.9,135.22,51.9c51.9,36.42,95.61,70.57,95.61,70.57-67.38-10-99.26-15-99.26-15C147.06,121.57,189,151.16,189,151.16l13.2,5.92-36.88,9.56C178,177.11,194,184.85,194,184.85l-23.68,10.93,26.41,10.93,10.47,20.94c7.28-15,17.3-21.4,17.3-21.4,6.83,17.76,1.82,27.1,1.82,27.1C279.1,211.72,303.69,139.32,303.69,139.32Z" fill="#e7ac63" opacity="0.58"/><path id="top" d="M258.61,115.19c17.3,4.22,46,22.77,46,22.77a102.28,102.28,0,0,1,13.2,15L311,151.16c7.74,9.56,11.84,30.51,11.84,30.51-5.46-6.37-8.2-6.7-8.2-6.7,3.19,31.74-52.36,62.7-52.36,62.7l-.57-7.74c-4.44,7.74-36.77,19.12-36.77,19.12,6.37-15.94,20.49-36,20.49-36-2.73-9.75-12.29-.91-12.29-.91l-2.73,4.55c-8.65-3.19-9.56-13.39-9.56-13.39-6.83,1.56-10.47,18.4-10.47,18.4a29.7,29.7,0,0,0,1.37,9.56c-14.57-3.64-15.48-36.8-15.48-36.8L178,192.14,201.7,180.3a22.43,22.43,0,0,0-9.11-17.87c17.3-12.18,28.68-9.9,28.68-9.9C205.8,144.79,193,122.93,193,122.93c24.59-.91,41-2.73,41-2.73a65.77,65.77,0,0,1,11.38,3.57c-11.12-11.12-25.5-16.31-25.5-16.31A261.86,261.86,0,0,1,258.61,115.19Z" fill="#edd3b2"/></g></g></svg>