<svg id="DESKTOP" xmlns="http://www.w3.org/2000/svg" xmlns:xlink="http://www.w3.org/1999/xlink" width="127.59" height="157.54" viewBox="0 0 127.59 157.54"><defs><linearGradient id="New_Gradient_Swatch_5" x1="4.71" y1="81.18" x2="105.75" y2="81.18" gradientUnits="userSpaceOnUse"><stop offset="0" stop-color="#dd7e27"/><stop offset="0.39" stop-color="#de6926"/><stop offset="0.7" stop-color="#dd5026"/><stop offset="0.84" stop-color="#dd4326"/></linearGradient></defs><title>frontzooka_explosion</title><g id="FRONTZOOKAEXPLOSION"><path id="bottom1" d="M4.22,67.46c1.62-3.92,1.62-9.53,1.62-9.53A13.09,13.09,0,0,1,6.56,62c.57-2.49,3.74-7.09,3.74-7.09a10.38,10.38,0,0,0-.5,4.22C18.25,41.2,47.57,16.39,47.57,16.39a35.53,35.53,0,0,0-4.6,6.8A20.55,20.55,0,0,1,48.72,19c-5.17,5.37-13.8,17.92-13.8,17.92A39,39,0,0,1,39.81,33c-3.93,4.89-4,5.85-4,5.85,2.78-2.2,12.94-11.69,12.94-11.69C46.33,30.86,43.45,35,43.45,35c5.27-5,16-12.65,16-12.65C54.19,28.08,54,29,54,29L79.48,7.28l-2,3.64L89.83,1.44,88,4.7,95,0,84.56,10.16l2.11-.29L65.88,30.66l4.22-2.59-4.5,4.7,9.1-3.64-8.82,7,4.7-1.63-2.78,2.2h1.72l2.78-2.2-1.92,2.68,1.72.29L98.36,20l-6.8,6.32,2.11-.67-1.92,2.68,7.19-4.31-7.57,6.61L125.1,14.37l1.05,3.07L123,19.26l-.86-.38-8,4.89,3.07-.77.19.48L88.68,41.59,118,29.32l.29.38L97.21,41.4,111,36.22l-9.3,6.13,10.06-4-9.2,5.08,15-4.12-9.2,5,9.3-3.16,1,4,.38,11.79,8.53.1v58.93l-62.29,2.4-.29,4.5,6.32,1.25a9.83,9.83,0,0,1-2.2,2.11c1.63.29,6,.38,6,.38-2.73,1.44-11.16,2-11.16,2,3.35,4.41,8.62,11.21,8.62,11.21L72.3,141a83.72,83.72,0,0,1-11.4-6C67,142.11,76,147.09,76,147.09c-11.12,0-38.23-5.37-38.23-5.37,11.69,7,28.65,15.81,28.65,15.81-37.37-9.87-47.72-26-47.72-26a82.28,82.28,0,0,0,4.79,15.91c-9.3-8-14.28-27.31-14.28-27.31.19,2.78,2.4,10.73,2.4,10.73-1.82-2.2-3.55-11.31-3.55-11.31L6.85,121c-1.34-2.3-3-17.22-3-17.22l-.45,1.12-.57-2.4c-6.18-11.21-.29-30.28-.29-30.28l-.38-5.85c1.25,2.4,1.72,3.26,1.72,3.26A4,4,0,0,1,4.22,67.46Z" fill="#df3f05"/><path id="thirdlayer" d="M8.06,72.23a23.76,23.76,0,0,0,1.28-7.55,10.36,10.36,0,0,1,.57,3.23c.46-2,3-5.62,3-5.62a8.22,8.22,0,0,0-.4,3.34c6.7-14.19,29.92-33.84,29.92-33.84a28.13,28.13,0,0,0-3.64,5.39,16.27,16.27,0,0,1,4.55-3.34C39.2,38.08,32.37,48,32.37,48a30.86,30.86,0,0,1,3.87-3.11c-3.11,3.87-3.19,4.63-3.19,4.63,2.2-1.75,10.24-9.26,10.24-9.26-1.9,3-4.17,6.22-4.17,6.22a159.36,159.36,0,0,1,12.67-10C47.62,41,47.47,41.8,47.47,41.8L67.65,24.58l-1.59,2.88,9.79-7.51-1.44,2.58,5.54-3.72-8.27,8,1.67-.23L56.88,43.09l3.34-2-3.57,3.72,7.21-2.88-7,5.54,3.72-1.29-2.2,1.75h1.37L62,46.13l-1.52,2.12,1.37.23L82.6,34.67l-5.39,5,1.67-.53-1.52,2.12,5.69-3.41-6,5.24,26.71-12.9.83,2.43-2.5,1.44-.68-.3-6.3,3.87L97.55,37l.15.38L74.94,51.74,98.16,42l.23.3L81.69,51.59l10.93-4.1-7.36,4.86,8-3.19-7.28,4,11.91-3.26-7.28,3.95,7.36-2.5.76,3.19.3,9.33,6.75.08v46.67l-49.32,1.9-.23,3.57,5,1a7.79,7.79,0,0,1-1.75,1.67c1.29.23,4.74.3,4.74.3-2.16,1.14-8.84,1.59-8.84,1.59,2.66,3.49,6.83,8.88,6.83,8.88l-.23.91a66.29,66.29,0,0,1-9-4.78,49.68,49.68,0,0,0,12,9.64c-8.8,0-30.28-4.25-30.28-4.25,9.26,5.54,22.69,12.52,22.69,12.52C27.74,135.74,19.54,123,19.54,123a65.16,65.16,0,0,0,3.79,12.6C16,129.22,12,114,12,114a73.67,73.67,0,0,0,1.9,8.5c-1.44-1.75-2.81-9-2.81-9l-1,1.14C9.07,112.83,7.76,101,7.76,101l-.36.89L6.95,100c-4.89-8.88-.23-24-.23-24l-.3-4.63C7.4,73.29,7.78,74,7.78,74A3.16,3.16,0,0,1,8.06,72.23Z" fill="url(#New_Gradient_Swatch_5)"/><path id="secondlayer" d="M10.58,75.16C11.65,71.55,17,63.5,17,63.5a19.44,19.44,0,0,0-.38,4.25C18.86,61.3,31,46.43,31,46.43c-3,5.24-7.82,18.82-7.82,18.82A130.06,130.06,0,0,1,33.05,56a20,20,0,0,0-1.52,2.88,57.76,57.76,0,0,1,10.78-9l-2.16,2.24a101.83,101.83,0,0,1,10.43-7.85C47.28,47.95,36.5,64.53,36.5,64.53L53.2,53.45C51.72,55.73,48.08,61,48.08,61,51.07,58.91,59,52.5,59,52.5c-2.28,3.53-4,6.11-4,6.11,1.14-.53,9.49-7.28,9.49-7.28-.87,1.18-5.69,6-5.69,6,5.62-4.25,17.3-9.9,17.3-9.9l-7.36,8.31c-4.06,3.6-7.28,6.15-7.28,6.15l-3.07,1.94L70.61,58a31.72,31.72,0,0,1-3.83,4c2.2-1.56,9.94-4.63,9.94-4.63-4.06,4.67-26,19.62-26,19.62,14.87-5.69,34-12.67,34-12.67L85,77.62,42.57,92.23c1.86.65,17.57,2.39,17.57,2.39a12.52,12.52,0,0,1,2.16,2.47c-4.93,1.25-15.86,1.75-15.86,1.75,3.3.11,19.39,1.9,19.39,1.9-1.86,1.37-23.22,2.35-23.22,2.35,1.14.91,7.82,2.39,7.82,2.39C48,106,38.51,104,38.51,104c1.75,1.37,10.43,4,10.43,4-6.18.08-18.21-4-18.21-4A100.33,100.33,0,0,1,41,111.84c-1.44-.08-12-7-12-7,2,2.88,8.84,8.65,8.84,8.65-1.86-.34-11.42-7.55-11.42-7.55,1.52,2.09,5.31,6.34,5.31,6.34-1.63-.46-12.9-10.85-12.9-10.85l13,15.14c2.24,3.26,2.16,5,2.16,5L19.62,108.77a21.12,21.12,0,0,0,1.29,3.72c-2.92-1.21-5.84-4.93-5.84-4.93,1.59,5.24,7.32,12.22,7.32,12.22-3.53-.68-9.49-8.16-9.49-8.16,4.25,7.55,12.41,14.46,12.41,14.46C11.2,121.18,7.78,105.29,7.78,105.29Z" fill="#e7ac63"/><path id="layertop" d="M8.06,87.1A29.32,29.32,0,0,1,11.73,75c0,3.7.51,3.93.51,3.93A108.4,108.4,0,0,1,15.6,67.5v5.72c1.82-7.06,8-12.29,8-12.29C22,66.84,18.78,75,18.78,75a36.42,36.42,0,0,0,5.92-8.82c0,1.59-1.82,5.24-1.82,5.24a61,61,0,0,0,8.2-11.61,11.88,11.88,0,0,1-1.37,4.78c2.35-3.41,18.36-18.06,18.36-18.06C40.33,55.38,30,74,30,74c5.39-5.39,12.52-11.38,12.52-11.38-1.44,2-2.5,3.87-2.5,3.87,2.5-2.73,8.42-6.83,8.42-6.83C45.34,62.9,34,76.25,34,76.25A152.66,152.66,0,0,1,51.49,63a32.51,32.51,0,0,0-2.43,3.64c2.31-2.31,8.5-5.31,8.5-5.31-.83,2.12-6.45,7.89-6.45,7.89a21,21,0,0,1,2.43-.91l1.37-.76C53.24,70,37.38,82.55,37.38,82.55c13-4.7,40-13.13,40-13.13l26.79-9.33L106,66.31,36.31,87.1l7.06,2c-1.67.83-8.65.15-8.65.15,2.12.61,9.94,4.33,9.94,4.33-1.44.38-7.21-.91-7.21-.91,2.43,1.21,7.21,3.79,7.21,3.79C42.38,97,28.19,93.1,28.19,93.1a77,77,0,0,1,15.48,8.18c-5,.7-21.32-5-21.32-5a61.29,61.29,0,0,0,7.74,5.24c-1.67,0-10.55-6.3-10.55-6.3,1.82,2,7.66,8.12,7.66,8.12-2.5-1.06-7.89-6.68-7.89-6.68.3,1.06,2.43,5.16,2.43,5.16-1.29-.53-6.75-5-6.75-5,1.14,2.12,16.77,19.88,16.77,19.88C26.45,114.19,17,102.28,17,102.28l3,6.37.15,1.75c-1.67-.53-7.51-9.79-7.51-9.79C18.25,110.4,19.16,115,19.16,115a91.05,91.05,0,0,0-7.66-11.84c3.95,10.93,7,14,7,14C8.62,112.83,8.31,98.11,8.31,98.11Z" fill="#edd3b2"/></g></svg>