<svg xmlns="http://www.w3.org/2000/svg" viewBox="0 0 770.5 189.6"><title>callsign_mobile</title><g id="Layer_2" data-name="Layer 2"><g id="Layer_1-2" data-name="Layer 1"><g id="BT_SECTION_PATTERN_CALLSIGN"><path d="M0,16V95.8H413A120.1,120.1,0,0,1,443.2,16Z" fill="#303740"/><path d="M623.9,16a120.1,120.1,0,0,1,30.2,79.8H768.8V16Z" fill="#303740"/><path d="M646.7,137.6a120.6,120.6,0,0,1-26.1,41.7H770.5V137.6Z" fill="#303740"/><path d="M420.4,137.6H0v41.7H446.5A120.6,120.6,0,0,1,420.4,137.6Z" fill="#303740"/><path id="SINGLE_COLOR" d="M628.3,59.8H618c-1.3,0-2.3,2.1-3,5.2H571.8V59.1h3.8c.3,1.7,7.8,3.1,16.9,3.1.4,0,.8-.7,1.1-1.8A18.3,18.3,0,0,0,594,56c0-3.3-.7-6-1.5-6-9.2,0-16.6,1.3-16.6,3h-4.1V51h-8.5v1.2h-1.7l-2-7.7h-7.2l-1.9,7.7h-1.7V51h-8v2h-9.8v-.4h0l-.4-.6h0a1.2,1.2,0,0,0-.8-.4h-2.4c-1.3,0-2.3,1.9-2.3,4.4s1,4.4,2.3,4.4h2.4c.3,0,.8-.2,1.2-1.3H541l.3,5.7h-5.9l-1.4-1a13.9,13.9,0,0,0-9.8.7c.1-4.7-.8-11.1-1.3-11.6s-.4-1.1-.4-2.1a16.4,16.4,0,0,0-.2-1.9l-1.7-7.2c2.1-1.8,6.6-.3,7.8,7.6.4-16.4-8-14.6-9.7-12.9.4-.7,2.5-3.5,7.9-2.6a12.6,12.6,0,0,0-8.5.2c0-.8,0-1.2,0-1.2,0-2.5-7.2-4.3-9.2-1a6.1,6.1,0,0,0-.3,1.4l-1.5.6-1.6-.5c-3.4-.4-7.7,1.9-8.4,5.2l-1.3,1.2-.9-.7-.9-.8h.1c-.4-.4-.1-.2-.1-.2.2-3.1,2.9-4.6,4.9-6.8,4.9-7.3-1.1-18.7,1.3-25.2-2.7,7.4-7.7,7.5-9,15.4,1.6-10.7-3.3-13.9-4.7-21.6-.5,5.9-6.3,12.8-4.5,16.8-3.3-7.3-9.7-8.5-15.1-14.8.9,5.2,2.8,15.8,8.5,18.9-8.9-4.6-11.1-2.1-21.7-5.9,7,5.8,3.9,9.8,16,13-6.3-1.6-10.2.7-18.2,3.9,10.3-1.9,12.5,1.6,19.1,1.8-8.6.2-9.6,4.2-18,11.3,7.1-4.8,13.7-4.3,20.1-4.8-3.5,2.4-6.7,8.2-12,9.3,4.6,1.9,16.3-4.1,18.9-5.6-8,4.9.5,12.6,1,13.8-.5-9.3,4.4-8,8.4-11.4h.6l2.8,2.3h.1a5.3,5.3,0,0,0,0,.6c-.2,11.8,6.4,15.2,6.5,15.3l-39.7.2a26.6,26.6,0,0,0-1-2.8c-1.3-3.1-3-5-4.9-5.3H441.8l-.8.2a5.2,5.2,0,0,0-1.5,1l-.9.9-.6.9a15.9,15.9,0,0,0-1.2,2.2,28.4,28.4,0,0,0-2.3,11.9c0,.1,0,.2,0,.3h0c0,.2,0,.5,0,.7,0,10.1,3.5,18.3,7.9,18.3h10.5a4.1,4.1,0,0,0,2.8-1.3,11.9,11.9,0,0,0,2.7-4.1c.4-.8.9-2.6,1.2-3.6h25.3a97.2,97.2,0,0,0,.4,11.7c.5-1.5,3.1-5.6,9.4-4.3a11.9,11.9,0,0,0-8.7,8.7c.7-.7,2.6-4.3,10-5.9-3.1,3.5-2.9,6.8-2.6,7.6h1.7l3.5-4.1c11.6.8,22.6-2.5,23-2.5s.2,2.3.2,2.3,2.6-4.4,2.9-4,1.2,4.4,1.2,4.4l.5-.8a48.2,48.2,0,0,0,.9-5.5,3.7,3.7,0,0,1,.9,2.5l.6,5.4,1.1.2c1.1.1,2.1,0,2.4-.7l4.4,2.6a14.6,14.6,0,0,0,4.5,2.1,5.3,5.3,0,0,0-.2,1.1c0,1.9,7.4,5,8.7,5h.9a60.2,60.2,0,0,0-9.5,4c-.2.3-6.1,5.3-7.7,7.4h0l-2.7,2-.9.8s3.6-5.9,3.9-6.1a8.8,8.8,0,0,0,1.5-2.7c-1-1.7-4.1-4.6-6.8-5.2s-2.5,0-6.1,2.1c0,0-.5-2.2-.5-2.6a13,13,0,0,0,4.3-1.9,33.3,33.3,0,0,0,.5-4.4c-5-.5-14.2,2-16.7,3.9-1,0-2.6-1.3-3.8-2.8h-1c1.1,2.2,4.4,9.3,5.2,10.7a16.6,16.6,0,0,0-2.5,6.1c-.3.9-.8,5.6-.5,6l-2.4,4c-.4.5-15,23.1-14.8,36.1a24.9,24.9,0,0,0,.2,4.3h0l.9.9,1.3,1a16.8,16.8,0,0,0,2.8,1.6,16.7,16.7,0,0,0,3,1l1.6.2h1.4l.6-.3h.4l.3-.3.5-.6.3-.3.2.4,1,.3h.7l1.6.3h2.2l1.3-.2h.7l.3-.2.3-.2a14.7,14.7,0,0,0,2.4-1.9l2.3-2.5a15,15,0,0,0,2.2-3,6.3,6.3,0,0,0,.6-1.9,10.2,10.2,0,0,0,.1-1.9c0-.6-.1-1.2-.1-1.7a7.6,7.6,0,0,1,.1-1.5V160l.3-.7.7-1.2,1.6-2.1a13,13,0,0,0,1.2-1.9v-.4l.2-.4v-.8a1.7,1.7,0,0,0,0-1.2h-.1l.2-.2a6.9,6.9,0,0,0-.8-1.3c-1.1,1.6-2.3,3.1-3.5,4.7l-1.9,2.4-2,2.4-2,2.4-2,2.3-2,2.3-2,2.3-4.1,4.6-2.7,2h-1l-1.4-.2a19.8,19.8,0,0,1-5.6-2,6.9,6.9,0,0,1-2.1-1.4,6.2,6.2,0,0,1-.7-2.3l.2.2,1.4.8.7.4.4.2h.1v-1.2l.2-1.2.2-1.2c.1-.8.3-1.6.4-2.3l.2-1.2.3-1.1.3-1.1.3-1.1c.2-.8.4-1.5.6-2.3l.7-2.2.8-2.2.8-2.2.4-1.1.5-1.1.9-2.1,1-2.1c.7-1.4,1.4-2.8,2.2-4.1s1.6-2.7,2.4-4l.3.2-.8,2.2-.4,1.1-.2.5-.2.5-.8,2.2-.8,2.2-.8,2.2-.7,2.2-.4,1.1-.3,1.1-.3,1.1-.3,1.1c-.8,2.9-1.5,5.9-2.1,8.9l-.2,1.1-.2,1.1c-.1.7-.2,1.5-.4,2.2l-.2,1.1v2.2c0,.2,0,.4-.2.5h.2a14.2,14.2,0,0,0,3,0l1.5-.2.7-.2h.1a59.3,59.3,0,0,0,5.1-5.8c7.6-7.8,19.5-21.8,18.9-23.6s-3.4-4-3.6-4.2l-.9-.7-1-.4h-1.1l1.2-.2h1.2l1.2.4,1,.5.9.4,2.3,2c-.3-.4-2.1-2.7-2.7-2.8s-2.2-1.6-2.5-1.7a9.4,9.4,0,0,1,6.9,2.8c.5-.9,4.2-2.9,5-3a13.2,13.2,0,0,1,.5-4.1,31.1,31.1,0,0,1,.4-3.1l.4-1.1h0l.5-1.3v1.4a7.2,7.2,0,0,0,0,1.1q0,.5.2,1.1l.3,1.1.3,1h0a22.1,22.1,0,0,0,0,2.2c0,.1,0,2.1,0,2.1s0-2.1,0-2.2l.2-1.2v-1.5c0-.1,0-.3,0-.4s0-.3,0-.4v-.4a9.1,9.1,0,0,1,.3-1.4l.2-.7.3-.7.6-1.3h0l.6-1.3-.3,1.4a9.6,9.6,0,0,0-.2,1.4,8.6,8.6,0,0,0,0,1.4,8.3,8.3,0,0,0,.2,1.3l.2.6c0,.1-.5,3.3.2,3.9,10.6-2,16.1-5,16.1-5s5.2-2.5,7.7-5.2c.3-.3.7-4.5.8-5.2l.3-1.1.3-1.1h0l.4-1.2v1.3c0,1.1-.1,2.2,0,3.3v2.4l.4-.8.9-1.5,1-1.4,1.2-1.3h0l.9-.9-.6,1.1-.5.9-.4.9-.8,1.8-.7,1.8-.3.8.7-.8a9.9,9.9,0,0,1,1.8-1.3l2-.9.5-.2h.5l1.1-.2h0l1.2-.3-1,.6-1.6,1.1-1.5,1.2-1.5,1.3c-2.1,1.3-3.5,1.8-4.2,3.6a16,16,0,0,0,0,4.6,30.9,30.9,0,0,0,.6,3.2c.3,1.1.6,2.1.9,3.1s.7,2,1.1,3l.6,1.5.6,1.5,2.6,5.9h.1l.4,1.5.3,1,.3,1c.4,1.2.8,2.3,1.2,3.5h-.4l-1.2.5h.1l-.5.2-.4.3-.3.4-.2.4h.1l.6.4h.8l.3.2.2.2a25.6,25.6,0,0,1,1.1,2.8c.3,1,.6,1.9.8,2.9s.4,2,.6,3,.3,2,.3,3h0l.4.7-.4.8-.3.9h0l.4,9.1h0a2,2,0,0,0,.7,1.2,3.5,3.5,0,0,0,1.2.7l1.3.3h.6a3.8,3.8,0,0,0,0,.7l.2.6v.5h.1a3.7,3.7,0,0,0,1.1,1.2,5,5,0,0,0,1.5.7,9.1,9.1,0,0,0,2.9.3h1.4l1.3-.3,2.6-.6,2.6-.6,2.6-.6,5.2-1.3h.1a4.7,4.7,0,0,0,0-.9v-.8l-.3-1.7q-.3-1.6-.7-3.3a1.2,1.2,0,0,0-.3-.7l-.6-.5-.7-.3-.7-.3h0l-2-.4h-.5l-1.8-.8h0l-1-1.1h0a9.1,9.1,0,0,0-1.5-1.8,17.2,17.2,0,0,1-1.7-2.2h0s-1-2.4-2.2-11.3a11,11,0,0,1,3-3.6,15.6,15.6,0,0,0-3.8-1.1l-.4-3.5c-2.3-36.8-3.2-39-3.2-39a18.9,18.9,0,0,0-3.5-3.5c.2.8.3,1.9.5,2.4v.4l.2.9v.8a16.8,16.8,0,0,1,.4,1.8,14.9,14.9,0,0,1,.2,1.8c.1,1.2.2,2.4.2,3.6s0,2.4,0,3.6,0,2.4-.1,3.6l-.9.8c-.1-2.4-.2-4.8-.4-7.1s-.2-2.4-.4-3.5-.2-1.2-.3-1.7-.4-3.1-.5-3.4h0a21.3,21.3,0,0,0-.8-4.6,2.3,2.3,0,0,0-1-.8h-.4c-3.4-1.5-12.9-1-22.6,1.9a2.9,2.9,0,0,0,0-1.8c-.2-.7-.4-1.5-.9-1.5s-.1-.1-.1-.3a1.5,1.5,0,0,0,1.4-1.4,1.5,1.5,0,0,0-.9-1.8H551l.3-1.5h1.1c.6,0,1.1-.5,1.1-1.3h0a1.3,1.3,0,0,0-.9-1.5h-.5l.3-.7h1.7c.6.1,1.2-.6,1.3-1.5a2.1,2.1,0,0,0-.2-1v-.2l-.5-.4a2.1,2.1,0,0,1,1.3-.6l2.1-.2h1.8l2.2-.2h1.8l.2-.3h0l11.7,6,.2.8.2.3c1.4,2,6.3,3.4,6.7,3.5s-.3,2-.3,2.2,6.2,2.3,8,2.3h.2l1-.2a1,1,0,0,0,.9-.5c.5-.8-.3-2.4-.4-2.6l-.2-.3a1.5,1.5,0,0,1,0-.4,1.7,1.7,0,0,0-1.2-2h0a1.8,1.8,0,0,0,2-1.6,1.9,1.9,0,0,0-1.1-2.1,1.9,1.9,0,0,0,.9-3.5l.6-.7h.1a2,2,0,0,0,2.1-1.8c0-.6.2-1.4-.6-1.7a12.9,12.9,0,0,0,2.5-6h17.9c.7,2.6,1.6,4.3,2.8,4.3h10.6c1.4-.3,2.3-2.8,2.8-4.8a45.4,45.4,0,0,0,1-10C632.3,65.2,630.7,59.8,628.3,59.8Zm-35.8-8.3c.5,0,.8,2,.8,4.6s-.4,4.6-.8,4.6-.8-2-.8-4.6S592,51.5,592.5,51.5ZM591,56a8.5,8.5,0,0,0,.9,5.4c-8,0-16.3-1.1-16.3-3.1V56Zm-64.1,4.1c-1.9-.7-1.6-4.1-1.6-4.1h2.7s0,3.8,1.7,4.1Zm2.7-1h1.1s-.6.8-1.1.8h-.1c-.7,0-1.4-1.9-1.4-4.5s.7-3.4,1.4-3.4h.6a1.5,1.5,0,0,1,.6.9h-1.2C528.6,54,528.8,58.1,529.6,59.1Zm42.9,98.3h0ZM587,171.1l.5.7c-1.8-.5-5.9.7-7.6,1.9l1,1.1c1.2-.6,3.9-2.3,7.3-1.9l.5.6a14.3,14.3,0,0,0-7,2.2l1.5,1.5s3.7-2.2,7-2l.9,1H591c-1.5-.2-5.2,1.2-6.6,2s0,.6,0,.7l-.7.3-4.7-4.9c0-.2.2-.5.2-.8s5.9-2.8,7.6-2.5Zm-.5-1.3h-.3a10,10,0,0,0-6.2,1.9,3.5,3.5,0,0,1-.5-1.7,2.9,2.9,0,0,1,2-.9l.2.5a13.2,13.2,0,0,1,3.6-.8V168h.8C586.1,168.6,586.3,169.2,586.5,169.8Zm-.7-2.9h-.5a10,10,0,0,0-6.1,1.6,3.5,3.5,0,0,1-.4-1.8,5.1,5.1,0,0,1,2-.8l.2.6a13.2,13.2,0,0,1,3.6-.6c0-.2,0-.5,0-.8h1Zm-5.7-4.7.2.6a13.2,13.2,0,0,1,3.6-.6c0-.2,0-.5,0-.8H585l.3,1.9h-.2a10.1,10.1,0,0,0-6.6,1.5,3.5,3.5,0,0,1-.4-1.8A3,3,0,0,1,580.1,162.1Zm-2.5,22.6h0Zm14-79.8h0c.2.5.7,1.7.4,2.1a.5.5,0,0,1-.5.3h-.1a3.7,3.7,0,0,0-.4-2.1ZM571.3,51.4v1.4h-3V51.4Zm0,13.4h-3V59.1h2.9ZM559.2,45l1.9,7.2h-3L556.4,45ZM548.7,60.1h14.5v4.8H548.7Zm-3.3-8.7h2.7v.8h-2.7Zm-.3,8.7h3v4.7h-3ZM518.7,47.1a25.8,25.8,0,0,0,.5-2.6,12.9,12.9,0,0,1,1.7,4.3,20.6,20.6,0,0,1,.4,2.1c.1,1.1.1,2.1.6,2.4s1.2,6.2,1.2,11.1h-9.2c-1.5-4.2-4-11-3.5-12.2a17.5,17.5,0,0,0,3.3,2.3,23.1,23.1,0,0,1-4.1-7.5V45.4h0c-.1-.4.3-.8,1-1.3a9.4,9.4,0,0,1,2.9-1h.5v-.2h0a3.9,3.9,0,0,1,1.8-.7,2.2,2.2,0,0,1,1.4.5C517.8,43,517.9,43.4,518.7,47.1Zm-5.1-16.3c2,.2,3.6,1.2,3.5,2.1s-1.8,1.5-3.8,1.3-3.6-1.2-3.5-2.1S511.6,30.6,513.6,30.8Zm-3.2,4.8c.6.6,2.3.9,3.9.8a11.6,11.6,0,0,0-2.4,3.3c-.1.2-2.7-.8-4.8.4a4.6,4.6,0,0,0,1.6-3c-.1-.4-.1-.9-.1-.9A5.8,5.8,0,0,1,510.4,35.7Zm-8.6-.6c2.4-1.1,4.8-.7,5.5.8s-.7,3.6-3.1,4.7-4.8.7-5.5-.8S499.4,36.1,501.8,35Zm-9.1,11.3-.3,1.1v.6c0,.2-1.1-1.2-1.8-2h0v-.2a4.9,4.9,0,0,1,0-.5,5.9,5.9,0,0,1,.1-1,8.2,8.2,0,0,1,.8-2,12,12,0,0,1,1.2-1.8l.6-.7a2.7,2.7,0,0,1,.9-.4l.6.3a13.8,13.8,0,0,0-1.8,3.2,15.1,15.1,0,0,1,2-2.9,1.9,1.9,0,0,0,.7.4,18.3,18.3,0,0,0-2.6,5.6Zm5.4,12V58c-7.5-10.6-2.9-17.2-1.1-19.2v2.6l-.5,3.9c.3.5,1.1,7.4,1.6,12.8Zm-.2-12.6.2-2.1,2.2.6-.7,1.9v2.2h-1.2ZM499,57.9a5.1,5.1,0,0,1,.5-1.7,3.3,3.3,0,0,1,.8-.9l.5-.3h0s0-7.2.1-7.9a35.4,35.4,0,0,1,1.1-3.9,11.6,11.6,0,0,0,3.7-1.7,6.2,6.2,0,0,0-.8,1.4,6.7,6.7,0,0,0-.5,2c-.2,1.6-.6,15-.5,15.6a8.5,8.5,0,0,0,2.5,4.4h-1.9a11.8,11.8,0,0,1-1.5-2,4.9,4.9,0,0,1-1.2-.4,4.2,4.2,0,0,1-1.7-1.1l-.5-.7A5.6,5.6,0,0,1,499,57.9ZM448.2,92.4H442c-2-.8-2.8-2.7-3.9-5.3s-1.7-7.3-1.7-12c0-.3,0-.5,0-.7h8.7c0,.1,0,.3,0,.7a33.5,33.5,0,0,0,2.4,13.4v.2a10.8,10.8,0,0,0,2.5,3.6Zm2.8.5.4.2Zm6.1-5.3c-1.2,2.8-2.7,4.5-4.2,4.5s-2.7-1.4-3.9-3.9V88a33,33,0,0,1-2.3-12.9,33.2,33.2,0,0,1,2.3-12.8v-.2c1.2-2.5,2.6-4,3.9-4s3,1.7,4.2,4.5q.5,1.1.8,2.3h-4.7c-4.8,1.2-4.5,17.6,0,19.5H458C457.8,85.3,457.3,86.9,457,87.6Zm-3.3-3.7c-3.4-2-3.2-9.3-3.2-9.3h30.7a23.4,23.4,0,0,0,2.2,9.4Zm31.1,0c-2.7-5.2-3.5-13.8.2-18.3h6.6c-4,4.6-1.9,15.8,0,18.3Zm14.8,8.5s-2.8.6-3.6-.2a8.2,8.2,0,0,1-.4-2.2l.4-5.1c0,.3,3.4,6.8,4.1,7.4Zm.3-7.9h27.6a6.1,6.1,0,0,1-2.7,1.5c-.9,0-13.2,1.7-18.6,1.8C505.7,87.8,501.4,85.3,500,84.5Zm32.6,5a7.2,7.2,0,0,0-2.3-.2l-.9.2a19.5,19.5,0,0,1-.2,8.8c.1-1.1.1-2.2.1-3.3s-.1-1.6-.1-2.3-.2-2.5-.2-2.5h-.5l-2.5.2A124.4,124.4,0,0,0,502,91.7l-1.1.3a4.1,4.1,0,0,1-.2-3.4l2.9,1.4c6.6-.6,22.1-2.4,25.2-2.7a5.6,5.6,0,0,0,1.6-2.5v-.3h8.3a11.5,11.5,0,0,1,1.9,1.6h0a2.6,2.6,0,0,1,.8,1.6v.2a18.5,18.5,0,0,0-3.4.3s-1.7-.1,2.6-2.1c-.1,0-5.3,1.4-6.5,2.6S533.2,89.6,532.6,89.4Zm4.9,10.4s-1.9,0-4.6-2.4c0,0,1.6-4.9,0-7,0,0,3.2-2,6.4-.6C539.4,89.9,539.9,97.4,537.5,99.8Zm6.3,2.9c-.1.4-.8.6-1.5.4h-.7c-.3-.2-.5-.5-.4-.8s.4-.4.8-.4h.7C543.4,101.9,543.9,102.4,543.8,102.8Zm.8-3.7c-.1.4-.8.5-1.5.2h-.3c-.6-.3-.9-.7-.8-1s.6-.4,1.2-.3h.3C544.2,98.2,544.7,98.7,544.6,99.1Zm.9-4c-.1.4-.8.7-1.6.5h0c-.8-.2-1.3-.6-1.2-1s.8-.7,1.6-.5h1.3Zm-.8-3.7c-.8,0-1.5-.3-1.5-.7s.7-.7,1.5-.7,1.5.3,1.5.7S545.6,91.4,544.7,91.4Zm6.6,16.5c.2.7.1,1.6-.2,1.8h-.8c.5-.8-.1-3.2-.9-3.2s-.2-.3-.2-.9l1,.2a2,2,0,0,0,.1.4c.1.3.2.3.3.3S551.1,107.1,551.3,107.9Zm-.8-5.3-.9-.2.3-1.3h1Zm1.2-4.3h-1l.3-.7h1Zm2.2-3.8h-.9l.8-.3h.5Zm.3-6.6a.9.9,0,0,1,.9-.9h1.3l-.2,1h-2Zm7.6,3.6a1,1,0,0,1-1,1h-5.7a.8.8,0,0,1-.8-.7V91h2.4a3,3,0,0,0,.9.7h1.2V91h1a1.3,1.3,0,0,0,1.3-1.3v-.3a1.3,1.3,0,0,0-1.3-1.3H559a3.3,3.3,0,0,1,1.1-1h.9c.5.1.6.6.6,1.1Zm-3.4-.7v.5h-.9V91Zm-.4-2.9a3.9,3.9,0,0,1,.8-1h.9a2.8,2.8,0,0,0-.9,1Zm6,4.5h-.1l-.4.4h-.8c.9-1,2.5-5.8,3.2-8.6h.9l-.5,1.9-.8,2.3-.9,2.3-.5,1.1Zm.4-.1v-.3l.5-1.1.9-2.3v-.2l.3-.8.4-1.2a84.5,84.5,0,0,0,8.7,6.3L574,94.3a.7.7,0,0,0,0,.8,6.1,6.1,0,0,1,1.2,1.8l.2.8Zm2.7-7.8v-.2h13.3a16,16,0,0,1,1.3,4.3,30.1,30.1,0,0,0-4.7,1.9C575.3,89.7,570.2,86.9,567,84.7ZM584.1,93l-2.6-.5c-.9-.2-1.3-1.4-1-2.3s.8-.7,1.3-.8a3.7,3.7,0,0,1,.1.7c0,.9,1.4.8,2.2,1.4A5.5,5.5,0,0,1,584.1,93Zm6.2,8.8-.7-.2h0l.7.2Zm1.6-7.4-.8-.2.2-.4h1Zm1.7-4.4h-1.4c.7-1.3,2.6-4.3,2.7-5.5h1.2A13.5,13.5,0,0,1,593.7,90.1ZM493.4,83.9c-2.4-2.1-2.6-9.4-2.6-9.4l123.4.2a45.1,45.1,0,0,0,1,9.2ZM618,88.2c-1.6,0-3.3-6-3.3-14h9.9c0,6,1.1,12.3,3,13.9Zm10.7-3.3c-1.3,0-2.4-4.8-2.4-10.7s1.1-10.7,2.4-10.7,2.4,4.8,2.4,10.7S630,84.9,628.7,84.9Z" fill="#303740"/></g></g></g></svg>