<?xml version="1.0" encoding="utf-8"?>
<!-- Generator: Adobe Illustrator 21.0.2, SVG Export Plug-In . SVG Version: 6.00 Build 0)  -->
<svg version="1.1" id="Layer_1" xmlns="http://www.w3.org/2000/svg" xmlns:xlink="http://www.w3.org/1999/xlink" x="0px" y="0px"
	 viewBox="0 0 100 100" enable-background="new 0 0 100 100" xml:space="preserve">
<pattern  width="100" height="100" patternUnits="userSpaceOnUse" id="_x31_1" viewBox="142.9 -242.9 100 100" overflow="visible">
	<g>
		<rect x="142.9" y="-242.9" fill="none" width="100" height="100"/>
		<g>
			<line fill="none" stroke="#DE6826" stroke-width="5" stroke-miterlimit="10" x1="313.8" y1="-214" x2="171.7" y2="-71.9"/>
			<line fill="none" stroke="#DE6826" stroke-width="5" stroke-miterlimit="10" x1="323.9" y1="-204" x2="181.7" y2="-61.9"/>
			<line fill="none" stroke="#DE6826" stroke-width="5" stroke-miterlimit="10" x1="333.9" y1="-194" x2="191.8" y2="-51.9"/>
			<line fill="none" stroke="#DE6826" stroke-width="5" stroke-miterlimit="10" x1="343.9" y1="-184" x2="201.8" y2="-41.8"/>
			<line fill="none" stroke="#DE6826" stroke-width="5" stroke-miterlimit="10" x1="353.9" y1="-173.9" x2="211.8" y2="-31.8"/>
			<line fill="none" stroke="#DE6826" stroke-width="5" stroke-miterlimit="10" x1="363.9" y1="-163.9" x2="221.8" y2="-21.8"/>
			<line fill="none" stroke="#DE6826" stroke-width="5" stroke-miterlimit="10" x1="373.9" y1="-153.9" x2="231.8" y2="-11.8"/>
			<line fill="none" stroke="#DE6826" stroke-width="5" stroke-miterlimit="10" x1="384" y1="-143.9" x2="241.8" y2="-1.8"/>
		</g>
		<g>
			<line fill="none" stroke="#DE6826" stroke-width="5" stroke-miterlimit="10" x1="213.8" y1="-214" x2="71.7" y2="-71.9"/>
			<line fill="none" stroke="#DE6826" stroke-width="5" stroke-miterlimit="10" x1="223.9" y1="-204" x2="81.7" y2="-61.9"/>
			<line fill="none" stroke="#DE6826" stroke-width="5" stroke-miterlimit="10" x1="233.9" y1="-194" x2="91.8" y2="-51.9"/>
			<line fill="none" stroke="#DE6826" stroke-width="5" stroke-miterlimit="10" x1="243.9" y1="-184" x2="101.8" y2="-41.8"/>
			<line fill="none" stroke="#DE6826" stroke-width="5" stroke-miterlimit="10" x1="253.9" y1="-173.9" x2="111.8" y2="-31.8"/>
			<line fill="none" stroke="#DE6826" stroke-width="5" stroke-miterlimit="10" x1="263.9" y1="-163.9" x2="121.8" y2="-21.8"/>
			<line fill="none" stroke="#DE6826" stroke-width="5" stroke-miterlimit="10" x1="273.9" y1="-153.9" x2="131.8" y2="-11.8"/>
			<line fill="none" stroke="#DE6826" stroke-width="5" stroke-miterlimit="10" x1="284" y1="-143.9" x2="141.8" y2="-1.8"/>
		</g>
		<g>
			<line fill="none" stroke="#DE6826" stroke-width="5" stroke-miterlimit="10" x1="143.9" y1="-184" x2="1.8" y2="-41.8"/>
			<line fill="none" stroke="#DE6826" stroke-width="5" stroke-miterlimit="10" x1="153.9" y1="-173.9" x2="11.8" y2="-31.8"/>
			<line fill="none" stroke="#DE6826" stroke-width="5" stroke-miterlimit="10" x1="163.9" y1="-163.9" x2="21.8" y2="-21.8"/>
			<line fill="none" stroke="#DE6826" stroke-width="5" stroke-miterlimit="10" x1="173.9" y1="-153.9" x2="31.8" y2="-11.8"/>
			<line fill="none" stroke="#DE6826" stroke-width="5" stroke-miterlimit="10" x1="184" y1="-143.9" x2="41.8" y2="-1.8"/>
		</g>
		<g>
			<line fill="none" stroke="#DE6826" stroke-width="5" stroke-miterlimit="10" x1="313.8" y1="-314" x2="171.7" y2="-171.9"/>
			<line fill="none" stroke="#DE6826" stroke-width="5" stroke-miterlimit="10" x1="323.9" y1="-304" x2="181.7" y2="-161.9"/>
			<line fill="none" stroke="#DE6826" stroke-width="5" stroke-miterlimit="10" x1="333.9" y1="-294" x2="191.8" y2="-151.9"/>
			<line fill="none" stroke="#DE6826" stroke-width="5" stroke-miterlimit="10" x1="343.9" y1="-284" x2="201.8" y2="-141.8"/>
			<line fill="none" stroke="#DE6826" stroke-width="5" stroke-miterlimit="10" x1="353.9" y1="-273.9" x2="211.8" y2="-131.8"/>
			<line fill="none" stroke="#DE6826" stroke-width="5" stroke-miterlimit="10" x1="363.9" y1="-263.9" x2="221.8" y2="-121.8"/>
			<line fill="none" stroke="#DE6826" stroke-width="5" stroke-miterlimit="10" x1="373.9" y1="-253.9" x2="231.8" y2="-111.8"/>
			<line fill="none" stroke="#DE6826" stroke-width="5" stroke-miterlimit="10" x1="384" y1="-243.9" x2="241.8" y2="-101.8"/>
		</g>
		<g>
			<line fill="none" stroke="#DE6826" stroke-width="5" stroke-miterlimit="10" x1="213.8" y1="-314" x2="71.7" y2="-171.9"/>
			<line fill="none" stroke="#DE6826" stroke-width="5" stroke-miterlimit="10" x1="223.9" y1="-304" x2="81.7" y2="-161.9"/>
			<line fill="none" stroke="#DE6826" stroke-width="5" stroke-miterlimit="10" x1="233.9" y1="-294" x2="91.8" y2="-151.9"/>
			<line fill="none" stroke="#DE6826" stroke-width="5" stroke-miterlimit="10" x1="243.9" y1="-284" x2="101.8" y2="-141.8"/>
			<line fill="none" stroke="#DE6826" stroke-width="5" stroke-miterlimit="10" x1="253.9" y1="-273.9" x2="111.8" y2="-131.8"/>
			<line fill="none" stroke="#DE6826" stroke-width="5" stroke-miterlimit="10" x1="263.9" y1="-263.9" x2="121.8" y2="-121.8"/>
			<line fill="none" stroke="#DE6826" stroke-width="5" stroke-miterlimit="10" x1="273.9" y1="-253.9" x2="131.8" y2="-111.8"/>
			<line fill="none" stroke="#DE6826" stroke-width="5" stroke-miterlimit="10" x1="284" y1="-243.9" x2="141.8" y2="-101.8"/>
			<line fill="none" stroke="#DE6826" stroke-width="5" stroke-miterlimit="10" x1="294" y1="-233.9" x2="151.9" y2="-91.8"/>
			<line fill="none" stroke="#DE6826" stroke-width="5" stroke-miterlimit="10" x1="304" y1="-223.9" x2="161.9" y2="-81.7"/>
			<line fill="none" stroke="#DE6826" stroke-width="5" stroke-miterlimit="10" x1="314" y1="-213.8" x2="171.9" y2="-71.7"/>
		</g>
		<g>
			<line fill="none" stroke="#DE6826" stroke-width="5" stroke-miterlimit="10" x1="143.9" y1="-284" x2="1.8" y2="-141.8"/>
			<line fill="none" stroke="#DE6826" stroke-width="5" stroke-miterlimit="10" x1="153.9" y1="-273.9" x2="11.8" y2="-131.8"/>
			<line fill="none" stroke="#DE6826" stroke-width="5" stroke-miterlimit="10" x1="163.9" y1="-263.9" x2="21.8" y2="-121.8"/>
			<line fill="none" stroke="#DE6826" stroke-width="5" stroke-miterlimit="10" x1="173.9" y1="-253.9" x2="31.8" y2="-111.8"/>
			<line fill="none" stroke="#DE6826" stroke-width="5" stroke-miterlimit="10" x1="184" y1="-243.9" x2="41.8" y2="-101.8"/>
			<line fill="none" stroke="#DE6826" stroke-width="5" stroke-miterlimit="10" x1="194" y1="-233.9" x2="51.9" y2="-91.8"/>
			<line fill="none" stroke="#DE6826" stroke-width="5" stroke-miterlimit="10" x1="204" y1="-223.9" x2="61.9" y2="-81.7"/>
			<line fill="none" stroke="#DE6826" stroke-width="5" stroke-miterlimit="10" x1="214" y1="-213.8" x2="71.9" y2="-71.7"/>
		</g>
		<g>
			<line fill="none" stroke="#DE6826" stroke-width="5" stroke-miterlimit="10" x1="343.9" y1="-384" x2="201.8" y2="-241.8"/>
			<line fill="none" stroke="#DE6826" stroke-width="5" stroke-miterlimit="10" x1="353.9" y1="-373.9" x2="211.8" y2="-231.8"/>
			<line fill="none" stroke="#DE6826" stroke-width="5" stroke-miterlimit="10" x1="363.9" y1="-363.9" x2="221.8" y2="-221.8"/>
			<line fill="none" stroke="#DE6826" stroke-width="5" stroke-miterlimit="10" x1="373.9" y1="-353.9" x2="231.8" y2="-211.8"/>
			<line fill="none" stroke="#DE6826" stroke-width="5" stroke-miterlimit="10" x1="384" y1="-343.9" x2="241.8" y2="-201.8"/>
		</g>
		<g>
			<line fill="none" stroke="#DE6826" stroke-width="5" stroke-miterlimit="10" x1="243.9" y1="-384" x2="101.8" y2="-241.8"/>
			<line fill="none" stroke="#DE6826" stroke-width="5" stroke-miterlimit="10" x1="253.9" y1="-373.9" x2="111.8" y2="-231.8"/>
			<line fill="none" stroke="#DE6826" stroke-width="5" stroke-miterlimit="10" x1="263.9" y1="-363.9" x2="121.8" y2="-221.8"/>
			<line fill="none" stroke="#DE6826" stroke-width="5" stroke-miterlimit="10" x1="273.9" y1="-353.9" x2="131.8" y2="-211.8"/>
			<line fill="none" stroke="#DE6826" stroke-width="5" stroke-miterlimit="10" x1="284" y1="-343.9" x2="141.8" y2="-201.8"/>
			<line fill="none" stroke="#DE6826" stroke-width="5" stroke-miterlimit="10" x1="294" y1="-333.9" x2="151.9" y2="-191.8"/>
			<line fill="none" stroke="#DE6826" stroke-width="5" stroke-miterlimit="10" x1="304" y1="-323.9" x2="161.9" y2="-181.7"/>
			<line fill="none" stroke="#DE6826" stroke-width="5" stroke-miterlimit="10" x1="314" y1="-313.8" x2="171.9" y2="-171.7"/>
		</g>
		<g>
			<line fill="none" stroke="#DE6826" stroke-width="5" stroke-miterlimit="10" x1="143.9" y1="-384" x2="1.8" y2="-241.8"/>
			<line fill="none" stroke="#DE6826" stroke-width="5" stroke-miterlimit="10" x1="153.9" y1="-373.9" x2="11.8" y2="-231.8"/>
			<line fill="none" stroke="#DE6826" stroke-width="5" stroke-miterlimit="10" x1="163.9" y1="-363.9" x2="21.8" y2="-221.8"/>
			<line fill="none" stroke="#DE6826" stroke-width="5" stroke-miterlimit="10" x1="173.9" y1="-353.9" x2="31.8" y2="-211.8"/>
			<line fill="none" stroke="#DE6826" stroke-width="5" stroke-miterlimit="10" x1="184" y1="-343.9" x2="41.8" y2="-201.8"/>
			<line fill="none" stroke="#DE6826" stroke-width="5" stroke-miterlimit="10" x1="194" y1="-333.9" x2="51.9" y2="-191.8"/>
			<line fill="none" stroke="#DE6826" stroke-width="5" stroke-miterlimit="10" x1="204" y1="-323.9" x2="61.9" y2="-181.7"/>
			<line fill="none" stroke="#DE6826" stroke-width="5" stroke-miterlimit="10" x1="214" y1="-313.8" x2="71.9" y2="-171.7"/>
		</g>
	</g>
</pattern>
<g>
	<rect fill="url(#_x31_1)" width="100" height="100"/>
</g>
</svg>
