<svg xmlns="http://www.w3.org/2000/svg" xmlns:xlink="http://www.w3.org/1999/xlink" width="242.15" height="142.28" viewBox="0 0 242.15 142.28"><defs><pattern id="New_Pattern_29" data-name="New Pattern 29" width="10" height="10" patternTransform="translate(0.1 12.14)" patternUnits="userSpaceOnUse" viewBox="0 0 10 10"><rect width="10" height="10" fill="none"/><polygon points="65 65 65 63.07 6.93 5 5 5 5 7.31 62.69 65 65 65" fill="#303740"/><polygon points="55 65 55 63.07 -3.07 5 -5 5 -5 7.31 52.69 65 55 65" fill="#303740"/><polygon points="45 65 45 63.07 -13.07 5 -15 5 -15 7.31 42.69 65 45 65" fill="#303740"/><polygon points="35 65 35 63.07 -23.07 5 -25 5 -25 7.31 32.69 65 35 65" fill="#303740"/><polygon points="25 65 25 63.07 -33.07 5 -35 5 -35 7.31 22.69 65 25 65" fill="#303740"/><polygon points="15 65 15 63.07 -43.07 5 -45 5 -45 7.31 12.69 65 15 65" fill="#303740"/><polygon points="5 65 5 63.07 -53.07 5 -55 5 -55 7.31 2.69 65 5 65" fill="#303740"/><polygon points="65 55 65 53.07 6.93 -5 5 -5 5 -2.69 62.69 55 65 55" fill="#303740"/><polygon points="55 55 55 53.07 -3.07 -5 -5 -5 -5 -2.69 52.69 55 55 55" fill="#303740"/><polygon points="45 55 45 53.07 -13.07 -5 -15 -5 -15 -2.69 42.69 55 45 55" fill="#303740"/><polygon points="35 55 35 53.07 -23.07 -5 -25 -5 -25 -2.69 32.69 55 35 55" fill="#303740"/><polygon points="25 55 25 53.07 -33.07 -5 -35 -5 -35 -2.69 22.69 55 25 55" fill="#303740"/><polygon points="15 55 15 53.07 -43.07 -5 -45 -5 -45 -2.69 12.69 55 15 55" fill="#303740"/><polygon points="5 55 5 53.07 -53.07 -5 -55 -5 -55 -2.69 2.69 55 5 55" fill="#303740"/><polygon points="65 45 65 43.07 6.93 -15 5 -15 5 -12.69 62.69 45 65 45" fill="#303740"/><polygon points="55 45 55 43.07 -3.07 -15 -5 -15 -5 -12.69 52.69 45 55 45" fill="#303740"/><polygon points="45 45 45 43.07 -13.07 -15 -15 -15 -15 -12.69 42.69 45 45 45" fill="#303740"/><polygon points="35 45 35 43.07 -23.07 -15 -25 -15 -25 -12.69 32.69 45 35 45" fill="#303740"/><polygon points="25 45 25 43.07 -33.07 -15 -35 -15 -35 -12.69 22.69 45 25 45" fill="#303740"/><polygon points="15 45 15 43.07 -43.07 -15 -45 -15 -45 -12.69 12.69 45 15 45" fill="#303740"/><polygon points="5 45 5 43.07 -53.07 -15 -55 -15 -55 -12.69 2.69 45 5 45" fill="#303740"/><polygon points="65 35 65 33.07 6.93 -25 5 -25 5 -22.69 62.69 35 65 35" fill="#303740"/><polygon points="55 35 55 33.07 -3.07 -25 -5 -25 -5 -22.69 52.69 35 55 35" fill="#303740"/><polygon points="45 35 45 33.07 -13.07 -25 -15 -25 -15 -22.69 42.69 35 45 35" fill="#303740"/><polygon points="35 35 35 33.07 -23.07 -25 -25 -25 -25 -22.69 32.69 35 35 35" fill="#303740"/><polygon points="25 35 25 33.07 -33.07 -25 -35 -25 -35 -22.69 22.69 35 25 35" fill="#303740"/><polygon points="15 35 15 33.07 -43.07 -25 -45 -25 -45 -22.69 12.69 35 15 35" fill="#303740"/><polygon points="5 35 5 33.07 -53.07 -25 -55 -25 -55 -22.69 2.69 35 5 35" fill="#303740"/><polygon points="65 25 65 23.07 6.93 -35 5 -35 5 -32.69 62.69 25 65 25" fill="#303740"/><polygon points="55 25 55 23.07 -3.07 -35 -5 -35 -5 -32.69 52.69 25 55 25" fill="#303740"/><polygon points="45 25 45 23.07 -13.07 -35 -15 -35 -15 -32.69 42.69 25 45 25" fill="#303740"/><polygon points="35 25 35 23.07 -23.07 -35 -25 -35 -25 -32.69 32.69 25 35 25" fill="#303740"/><polygon points="25 25 25 23.07 -33.07 -35 -35 -35 -35 -32.69 22.69 25 25 25" fill="#303740"/><polygon points="15 25 15 23.07 -43.07 -35 -45 -35 -45 -32.69 12.69 25 15 25" fill="#303740"/><polygon points="5 25 5 23.07 -53.07 -35 -55 -35 -55 -32.69 2.69 25 5 25" fill="#303740"/><polygon points="65 15 65 13.07 6.93 -45 5 -45 5 -42.69 62.69 15 65 15" fill="#303740"/><polygon points="55 15 55 13.07 -3.07 -45 -5 -45 -5 -42.69 52.69 15 55 15" fill="#303740"/><polygon points="45 15 45 13.07 -13.07 -45 -15 -45 -15 -42.69 42.69 15 45 15" fill="#303740"/><polygon points="35 15 35 13.07 -23.07 -45 -25 -45 -25 -42.69 32.69 15 35 15" fill="#303740"/><polygon points="25 15 25 13.07 -33.07 -45 -35 -45 -35 -42.69 22.69 15 25 15" fill="#303740"/><polygon points="15 15 15 13.07 -43.07 -45 -45 -45 -45 -42.69 12.69 15 15 15" fill="#303740"/><polygon points="5 15 5 13.07 -53.07 -45 -55 -45 -55 -42.69 2.69 15 5 15" fill="#303740"/><polygon points="65 5 65 3.07 6.93 -55 5 -55 5 -52.69 62.69 5 65 5" fill="#303740"/><polygon points="55 5 55 3.07 -3.07 -55 -5 -55 -5 -52.69 52.69 5 55 5" fill="#303740"/><polygon points="45 5 45 3.07 -13.07 -55 -15 -55 -15 -52.69 42.69 5 45 5" fill="#303740"/><polygon points="35 5 35 3.07 -23.07 -55 -25 -55 -25 -52.69 32.69 5 35 5" fill="#303740"/><polygon points="25 5 25 3.07 -33.07 -55 -35 -55 -35 -52.69 22.69 5 25 5" fill="#303740"/><polygon points="15 5 15 3.07 -43.07 -55 -45 -55 -45 -52.69 12.69 5 15 5" fill="#303740"/><polygon points="5 5 5 3.07 -53.07 -55 -55 -55 -55 -52.69 2.69 5 5 5" fill="#303740"/></pattern></defs><title>caution_pattern</title><g id="DESKTOP"><g id="Layer_133" data-name="Layer 133"><polygon points="183.6 0 0 140.52 97.13 142.28 242.15 0.44 183.6 0" fill="#df6705"/><polygon points="183.6 0 0 140.52 97.13 142.28 242.15 0.44 183.6 0" fill="url(#New_Pattern_29)"/></g></g></svg>