<svg xmlns="http://www.w3.org/2000/svg" width="301.75" height="120.67" viewBox="0 0 301.75 120.67"><title>caution_svg</title><g id="DESKTOP"><g id="Layer_81" data-name="Layer 81"><path d="M69.07,89.43l-46.2,22.26q-.78.38-.13.69a6.38,6.38,0,0,0,2.32.38l85.63,3.14a19.07,19.07,0,0,0,3.34-.17,6.66,6.66,0,0,0,2.3-.61l37.48-22.55,18.13.67-35.62,22.61q-3.63,2.3-13.39,3.7a113,113,0,0,1-20.12,1L15.53,117.4q-10.26-.38-14-2.29c-2.45-1.26-2-2.65,1.25-4.15l48.08-22.2Z" fill="#df6705"/><path d="M72.7,82l31.54-15.3c2.26-1.1,6.11-1.92,11.5-2.46a101.88,101.88,0,0,1,15.9-.37l80.11,4.38-4.37,3L173.93,69.5l-26.25,16L184.9,86.8l-5.33,3.69-93.83-3c-6.27-.2-10.71-.85-13.27-1.94S70,83.27,72.7,82Zm58.21,2.93,28-16.15L125.47,67a17.2,17.2,0,0,0-2.71.08,6.05,6.05,0,0,0-1.9.42L91.23,82.63q-.63.32,0,.59a6.7,6.7,0,0,0,2.16.33Z" fill="#df6705"/><path d="M223.1,49.18l-71.85-5.33,5.1-2.47,70.45,5.41a33.19,33.19,0,0,1,8.94,1.61q3,1.15,1.22,2.35L221,61.78c-1.34.93-4,1.63-8.12,2.11a74.71,74.71,0,0,1-13.06.34l-80.95-4.69,6.17-3,79.19,4.83a12.63,12.63,0,0,0,2.19-.05,3.64,3.64,0,0,0,1.42-.35l17-11.11c.21-.14.14-.27-.2-.4A5.59,5.59,0,0,0,223.1,49.18Z" fill="#df6705"/><path d="M159.75,39.73l29.61-14.37,11.83,1.12L190,32.22,255.4,38l-3,2.08-66.62-5.71-12.59,6.43Z" fill="#df6705"/><path d="M265.41,31l-73.25-7L196,22.12l72,7.08Z" fill="#df6705"/><path d="M204.27,18.13l14.52-7c1.07-.52,3.18-.82,6.32-.91a68.35,68.35,0,0,1,9.65.44l40.75,4.63a31.09,31.09,0,0,1,7,1.41q2.41.9,1.3,1.67l-10,7c-.83.58-2.7,1-5.62,1.13a59.23,59.23,0,0,1-9.48-.24l-45.22-4.54A34.4,34.4,0,0,1,205.13,20Q202.45,19,204.27,18.13Zm59.65,6.14,10.65-7c.13-.09.06-.18-.22-.28a5.23,5.23,0,0,0-1.19-.24l-41.37-4.62a11.47,11.47,0,0,0-1.64-.07,2.94,2.94,0,0,0-1.05.16l-13.77,7c-.19.1-.13.2.17.32a5.69,5.69,0,0,0,1.36.27l44.49,4.56a10,10,0,0,0,1.59,0A2.33,2.33,0,0,0,263.91,24.27Z" fill="#df6705"/><path d="M288.17,5.83,242.11,1.07,244.73,0l57,5.88-2.23,1.38L241,7.74l49.4,5.2-2.21,1.37-62.42-6.6,3.65-1.48Z" fill="#df6705"/></g></g></svg>