<svg id="codepensvg" class="codepen_icon" data-name="Layer 1" xmlns="http://www.w3.org/2000/svg" viewBox="0 0 58.09 58.96"><defs>
</defs><title>codepen-icon</title><path id="codepenpath" d="M7,38.46,26.55,51.69V39.88L15.72,32.54ZM5,33.73l6.26-4.24L5,25.24Zm26.55,18L51.09,38.46l-8.72-5.92L31.54,39.88ZM29,35.47l8.82-6-8.82-6-8.82,6Zm-13.32-9,10.83-7.34V7.27L7,20.5Zm31.12,3.06,6.26,4.24V25.24Zm-4.47-3.06,8.72-5.92L31.54,7.27V19.08ZM58.09,20.5v18A2.41,2.41,0,0,1,57,40.57l-26.55,18a2.48,2.48,0,0,1-2.79,0L1.1,40.57A2.41,2.41,0,0,1,0,38.46v-18a2.41,2.41,0,0,1,1.1-2.11L27.65.43a2.48,2.48,0,0,1,2.79,0L57,18.39A2.41,2.41,0,0,1,58.09,20.5Z" fill="#df6705"/></svg>