<svg id="Layer_1" data-name="Layer 1" xmlns="http://www.w3.org/2000/svg" xmlns:xlink="http://www.w3.org/1999/xlink" viewBox="0 0 760 60"><defs><pattern id="_11" data-name="11" width="100" height="100" patternTransform="translate(-100.5 -121.5)" patternUnits="userSpaceOnUse" viewBox="0 0 100 100"><rect width="100" height="100" fill="none"/><line x1="170.98" y1="28.85" x2="28.85" y2="170.98" fill="none" stroke="#de6826" stroke-miterlimit="10" stroke-width="5"/><line x1="181" y1="38.87" x2="38.87" y2="181" fill="none" stroke="#de6826" stroke-miterlimit="10" stroke-width="5"/><line x1="191.01" y1="48.89" x2="48.89" y2="191.01" fill="none" stroke="#de6826" stroke-miterlimit="10" stroke-width="5"/><line x1="201.03" y1="58.9" x2="58.9" y2="201.03" fill="none" stroke="#de6826" stroke-miterlimit="10" stroke-width="5"/><line x1="211.05" y1="68.92" x2="68.92" y2="211.05" fill="none" stroke="#de6826" stroke-miterlimit="10" stroke-width="5"/><line x1="221.06" y1="78.94" x2="78.94" y2="221.06" fill="none" stroke="#de6826" stroke-miterlimit="10" stroke-width="5"/><line x1="231.08" y1="88.95" x2="88.95" y2="231.08" fill="none" stroke="#de6826" stroke-miterlimit="10" stroke-width="5"/><line x1="241.1" y1="98.97" x2="98.97" y2="241.1" fill="none" stroke="#de6826" stroke-miterlimit="10" stroke-width="5"/><line x1="70.98" y1="28.85" x2="-71.15" y2="170.98" fill="none" stroke="#de6826" stroke-miterlimit="10" stroke-width="5"/><line x1="81" y1="38.87" x2="-61.13" y2="181" fill="none" stroke="#de6826" stroke-miterlimit="10" stroke-width="5"/><line x1="91.01" y1="48.89" x2="-51.11" y2="191.01" fill="none" stroke="#de6826" stroke-miterlimit="10" stroke-width="5"/><line x1="101.03" y1="58.9" x2="-41.1" y2="201.03" fill="none" stroke="#de6826" stroke-miterlimit="10" stroke-width="5"/><line x1="111.05" y1="68.92" x2="-31.08" y2="211.05" fill="none" stroke="#de6826" stroke-miterlimit="10" stroke-width="5"/><line x1="121.06" y1="78.94" x2="-21.06" y2="221.06" fill="none" stroke="#de6826" stroke-miterlimit="10" stroke-width="5"/><line x1="131.08" y1="88.95" x2="-11.05" y2="231.08" fill="none" stroke="#de6826" stroke-miterlimit="10" stroke-width="5"/><line x1="141.1" y1="98.97" x2="-1.03" y2="241.1" fill="none" stroke="#de6826" stroke-miterlimit="10" stroke-width="5"/><line x1="1.03" y1="58.9" x2="-141.1" y2="201.03" fill="none" stroke="#de6826" stroke-miterlimit="10" stroke-width="5"/><line x1="11.05" y1="68.92" x2="-131.08" y2="211.05" fill="none" stroke="#de6826" stroke-miterlimit="10" stroke-width="5"/><line x1="21.06" y1="78.94" x2="-121.06" y2="221.06" fill="none" stroke="#de6826" stroke-miterlimit="10" stroke-width="5"/><line x1="31.08" y1="88.95" x2="-111.05" y2="231.08" fill="none" stroke="#de6826" stroke-miterlimit="10" stroke-width="5"/><line x1="41.1" y1="98.97" x2="-101.03" y2="241.1" fill="none" stroke="#de6826" stroke-miterlimit="10" stroke-width="5"/><line x1="170.98" y1="-71.15" x2="28.85" y2="70.98" fill="none" stroke="#de6826" stroke-miterlimit="10" stroke-width="5"/><line x1="181" y1="-61.13" x2="38.87" y2="81" fill="none" stroke="#de6826" stroke-miterlimit="10" stroke-width="5"/><line x1="191.01" y1="-51.11" x2="48.89" y2="91.01" fill="none" stroke="#de6826" stroke-miterlimit="10" stroke-width="5"/><line x1="201.03" y1="-41.1" x2="58.9" y2="101.03" fill="none" stroke="#de6826" stroke-miterlimit="10" stroke-width="5"/><line x1="211.05" y1="-31.08" x2="68.92" y2="111.05" fill="none" stroke="#de6826" stroke-miterlimit="10" stroke-width="5"/><line x1="221.06" y1="-21.06" x2="78.94" y2="121.06" fill="none" stroke="#de6826" stroke-miterlimit="10" stroke-width="5"/><line x1="231.08" y1="-11.05" x2="88.95" y2="131.08" fill="none" stroke="#de6826" stroke-miterlimit="10" stroke-width="5"/><line x1="241.1" y1="-1.03" x2="98.97" y2="141.1" fill="none" stroke="#de6826" stroke-miterlimit="10" stroke-width="5"/><line x1="70.98" y1="-71.15" x2="-71.15" y2="70.98" fill="none" stroke="#de6826" stroke-miterlimit="10" stroke-width="5"/><line x1="81" y1="-61.13" x2="-61.13" y2="81" fill="none" stroke="#de6826" stroke-miterlimit="10" stroke-width="5"/><line x1="91.01" y1="-51.11" x2="-51.11" y2="91.01" fill="none" stroke="#de6826" stroke-miterlimit="10" stroke-width="5"/><line x1="101.03" y1="-41.1" x2="-41.1" y2="101.03" fill="none" stroke="#de6826" stroke-miterlimit="10" stroke-width="5"/><line x1="111.05" y1="-31.08" x2="-31.08" y2="111.05" fill="none" stroke="#de6826" stroke-miterlimit="10" stroke-width="5"/><line x1="121.06" y1="-21.06" x2="-21.06" y2="121.06" fill="none" stroke="#de6826" stroke-miterlimit="10" stroke-width="5"/><line x1="131.08" y1="-11.05" x2="-11.05" y2="131.08" fill="none" stroke="#de6826" stroke-miterlimit="10" stroke-width="5"/><line x1="141.1" y1="-1.03" x2="-1.03" y2="141.1" fill="none" stroke="#de6826" stroke-miterlimit="10" stroke-width="5"/><line x1="151.11" y1="8.99" x2="8.99" y2="151.11" fill="none" stroke="#de6826" stroke-miterlimit="10" stroke-width="5"/><line x1="161.13" y1="19" x2="19" y2="161.13" fill="none" stroke="#de6826" stroke-miterlimit="10" stroke-width="5"/><line x1="171.15" y1="29.02" x2="29.02" y2="171.15" fill="none" stroke="#de6826" stroke-miterlimit="10" stroke-width="5"/><line x1="1.03" y1="-41.1" x2="-141.1" y2="101.03" fill="none" stroke="#de6826" stroke-miterlimit="10" stroke-width="5"/><line x1="11.05" y1="-31.08" x2="-131.08" y2="111.05" fill="none" stroke="#de6826" stroke-miterlimit="10" stroke-width="5"/><line x1="21.06" y1="-21.06" x2="-121.06" y2="121.06" fill="none" stroke="#de6826" stroke-miterlimit="10" stroke-width="5"/><line x1="31.08" y1="-11.05" x2="-111.05" y2="131.08" fill="none" stroke="#de6826" stroke-miterlimit="10" stroke-width="5"/><line x1="41.1" y1="-1.03" x2="-101.03" y2="141.1" fill="none" stroke="#de6826" stroke-miterlimit="10" stroke-width="5"/><line x1="51.11" y1="8.99" x2="-91.01" y2="151.11" fill="none" stroke="#de6826" stroke-miterlimit="10" stroke-width="5"/><line x1="61.13" y1="19" x2="-81" y2="161.13" fill="none" stroke="#de6826" stroke-miterlimit="10" stroke-width="5"/><line x1="71.15" y1="29.02" x2="-70.98" y2="171.15" fill="none" stroke="#de6826" stroke-miterlimit="10" stroke-width="5"/><line x1="201.03" y1="-141.1" x2="58.9" y2="1.03" fill="none" stroke="#de6826" stroke-miterlimit="10" stroke-width="5"/><line x1="211.05" y1="-131.08" x2="68.92" y2="11.05" fill="none" stroke="#de6826" stroke-miterlimit="10" stroke-width="5"/><line x1="221.06" y1="-121.06" x2="78.94" y2="21.06" fill="none" stroke="#de6826" stroke-miterlimit="10" stroke-width="5"/><line x1="231.08" y1="-111.05" x2="88.95" y2="31.08" fill="none" stroke="#de6826" stroke-miterlimit="10" stroke-width="5"/><line x1="241.1" y1="-101.03" x2="98.97" y2="41.1" fill="none" stroke="#de6826" stroke-miterlimit="10" stroke-width="5"/><line x1="101.03" y1="-141.1" x2="-41.1" y2="1.03" fill="none" stroke="#de6826" stroke-miterlimit="10" stroke-width="5"/><line x1="111.05" y1="-131.08" x2="-31.08" y2="11.05" fill="none" stroke="#de6826" stroke-miterlimit="10" stroke-width="5"/><line x1="121.06" y1="-121.06" x2="-21.06" y2="21.06" fill="none" stroke="#de6826" stroke-miterlimit="10" stroke-width="5"/><line x1="131.08" y1="-111.05" x2="-11.05" y2="31.08" fill="none" stroke="#de6826" stroke-miterlimit="10" stroke-width="5"/><line x1="141.1" y1="-101.03" x2="-1.03" y2="41.1" fill="none" stroke="#de6826" stroke-miterlimit="10" stroke-width="5"/><line x1="151.11" y1="-91.01" x2="8.99" y2="51.11" fill="none" stroke="#de6826" stroke-miterlimit="10" stroke-width="5"/><line x1="161.13" y1="-81" x2="19" y2="61.13" fill="none" stroke="#de6826" stroke-miterlimit="10" stroke-width="5"/><line x1="171.15" y1="-70.98" x2="29.02" y2="71.15" fill="none" stroke="#de6826" stroke-miterlimit="10" stroke-width="5"/><line x1="1.03" y1="-141.1" x2="-141.1" y2="1.03" fill="none" stroke="#de6826" stroke-miterlimit="10" stroke-width="5"/><line x1="11.05" y1="-131.08" x2="-131.08" y2="11.05" fill="none" stroke="#de6826" stroke-miterlimit="10" stroke-width="5"/><line x1="21.06" y1="-121.06" x2="-121.06" y2="21.06" fill="none" stroke="#de6826" stroke-miterlimit="10" stroke-width="5"/><line x1="31.08" y1="-111.05" x2="-111.05" y2="31.08" fill="none" stroke="#de6826" stroke-miterlimit="10" stroke-width="5"/><line x1="41.1" y1="-101.03" x2="-101.03" y2="41.1" fill="none" stroke="#de6826" stroke-miterlimit="10" stroke-width="5"/><line x1="51.11" y1="-91.01" x2="-91.01" y2="51.11" fill="none" stroke="#de6826" stroke-miterlimit="10" stroke-width="5"/><line x1="61.13" y1="-81" x2="-81" y2="61.13" fill="none" stroke="#de6826" stroke-miterlimit="10" stroke-width="5"/><line x1="71.15" y1="-70.98" x2="-70.98" y2="71.15" fill="none" stroke="#de6826" stroke-miterlimit="10" stroke-width="5"/></pattern></defs><title>contact_decorator_caution</title><rect width="760" height="60" fill="url(#_11)"/></svg>