<svg id="Layer_1" data-name="Layer 1" xmlns="http://www.w3.org/2000/svg" viewBox="0 0 57.57 57.6"><title>dribbble-icon</title><path d="M0,26.31c10.17-.05,20.25-.85,30.07-3.72.3-.09.9,0,1,.25,1.2,2.36,2.33,4.75,3.54,7.28A44.34,44.34,0,0,0,9,49.79c-1.28-1.54-2.58-2.92-3.68-4.44a27.59,27.59,0,0,1-5.07-13A3,3,0,0,0,0,31.71Z" fill="#df6705"/><path d="M31.71,0c1.41.3,2.84.56,4.24.91A28.35,28.35,0,0,1,47.38,6.86c.28.24.54.5.87.83-3.84,5.81-9.46,9-15.87,11.45A91,91,0,0,0,19.22,1.5L24.91.24c.32-.07.63-.16.95-.24Z" fill="#df6705"/><path d="M11,51.36A41.66,41.66,0,0,1,35.58,32.5c1,3.2,2.07,6.26,2.78,9.42.87,3.86,1.38,7.8,2.08,11.69.2,1.12-.17,1.64-1.26,2q-14.73,5.3-27.48-3.72C11.49,51.77,11.29,51.6,11,51.36Z" fill="#df6705"/><path d="M.41,23.72a29.2,29.2,0,0,1,16.06-21c3.46,2.85,11.44,13.47,13,17.33C20,22.88,10.36,23.64.41,23.72Z" fill="#df6705"/><path d="M37.44,29.43l-3.74-8C40.18,18.89,46,15.46,50.13,9.52A28.82,28.82,0,0,1,57.55,30,41.07,41.07,0,0,0,37.44,29.43Z" fill="#df6705"/><path d="M38.31,31.84a37.11,37.11,0,0,1,19,.83c-1.49,9.16-6.16,16.08-14.19,21.07A81.16,81.16,0,0,0,38.31,31.84Z" fill="#df6705"/></svg>