<svg xmlns="http://www.w3.org/2000/svg" viewBox="0 0 1200.09 304.35" preserveAspectRatio="xMidYMid slice"><title>btAsset 1call</title><g id="Layer_2" data-name="Layer 2"><g id="DESKTOP"><g id="FOOTER"><g id="BT_SECTION_PATTERN_CALLSIGN"><path d="M0,30.68V155H643.2A187.1,187.1,0,0,1,690.26,30.68Z" fill="#303740"/><path d="M971.79,30.68A187.1,187.1,0,0,1,1018.85,155h178.6V30.68Z" fill="#303740"/><path d="M1007.3,220a187.87,187.87,0,0,1-40.65,65h233.44V220Z" fill="#303740"/><path d="M654.75,220H0v65H695.4A187.87,187.87,0,0,1,654.75,220Z" fill="#303740"/></g><path id="SINGLE_COLOR" d="M985.69,95.91H969.15c-2.07,0-3.69,3.4-4.75,8.31L895,104l0-9.18h6.18V94.7c.55,2.74,12.48,4.92,27.15,4.92.68,0,1.29-1.09,1.73-2.84a29.45,29.45,0,0,0,.72-6.86c0-5.36-1.1-9.71-2.45-9.71-14.75,0-26.69,2.13-26.69,4.76V84.8h-6.6l0-3H881.3v1.92h-2.69l-3.26-12.3H863.78l-3.08,12.3H858V81.79H845.12V85l-15.59,0h-.07a3.59,3.59,0,0,0-.23-.7h0v0a3.35,3.35,0,0,0-.61-.93h0a1.89,1.89,0,0,0-1.32-.69h-.06l-3.44.07h-.32c-2.09,0-3.73,3.1-3.73,7.05s1.64,7.05,3.73,7.05h3.82c.54,0,1.3-.37,1.93-2.09h16.32l.56,9.12h-9.46c-.74-.54-1.47-1.05-2.18-1.53-3-1.11-10.33-1.7-15.79,1.2.12-7.5-1.22-17.89-2.16-18.54-.56-.4-.64-1.83-.71-3.34a26.31,26.31,0,0,0-.28-3.06c-.07-.44-2.8-11.58-2.8-11.58,3.43-3,10.58-.48,12.57,12.19C826,53,812.45,55.81,809.7,58.56c.61-1.09,4-5.56,12.68-4.13a20.29,20.29,0,0,0-13.64.32c0-1.27,0-1.9,0-1.9,0-3.94-11.57-6.88-14.72-1.66a9.75,9.75,0,0,0-.49,2.31,20.72,20.72,0,0,0-2.36.95,25.94,25.94,0,0,0-2.55-.87C783.18,53,776.25,56.7,775.07,62c-.79.65-2.14,2-2.14,2a14.36,14.36,0,0,1-1.5-1.08L770,61.64l.17-.12c-.66-.6-.12-.25-.12-.25.33-4.94,4.65-7.38,7.88-10.89,7.88-11.74-1.83-30,2.06-40.51-4.41,11.85-12.3,12-14.48,24.72C768,17.47,760.14,12.29,757.9,0c-.83,9.46-10,20.48-7.23,27-5.36-11.77-15.51-13.71-24.21-23.68C728,11.68,731,28.66,740.15,33.72c-14.34-7.39-17.81-3.34-34.82-9.42,11.22,9.25,6.29,15.76,25.67,20.91-10.17-2.58-16.3,1.16-29.2,6.21,16.59-3.08,20,2.54,30.67,3-13.79.24-15.39,6.72-28.95,18.13,11.34-7.63,22-6.85,32.22-7.78-5.68,3.81-10.75,13.16-19.27,15,7.36,3.09,26.17-6.51,30.35-8.93-12.89,7.92.78,20.29,1.55,22.14-.74-15,7.08-12.78,13.53-18.37l1,.19c1.54,1.26,3.06,2.47,4.55,3.64l.18.14a8.44,8.44,0,0,0,0,.89c-.31,19,10.32,24.45,10.48,24.53l-63.79.25a42.76,42.76,0,0,0-1.58-4.48c-2.05-4.91-4.82-8.1-7.9-8.58h-.06l-.29,0h-.08l-.38,0h0l-16.82.11H687a5.54,5.54,0,0,0-.64.08,6,6,0,0,0-1.26.37,8.27,8.27,0,0,0-2.39,1.58,13,13,0,0,0-1.39,1.51,17.65,17.65,0,0,0-1,1.47,25.44,25.44,0,0,0-1.87,3.59,45.51,45.51,0,0,0-3.7,19.08c0,.17,0,.34,0,.51h0c0,.4,0,.8,0,1.2,0,16.22,5.66,29.42,12.62,29.42l15.83-.1a5.26,5.26,0,0,0,1,.1,6.63,6.63,0,0,0,4.56-2.09,19.11,19.11,0,0,0,4.36-6.64c.57-1.34,1.48-4.12,1.94-5.7h40.62a156,156,0,0,0,.68,18.72c.79-2.49,5-9,15.16-7-11.55,3.14-14,13.17-14,13.9,1.19-1.19,4.24-6.93,16.08-9.5-5,5.68-4.69,10.91-4.16,12.14.61.09,2.75,0,2.75,0s5.16-6.14,5.56-6.65c18.63,1.33,36.33-4.05,36.9-4.05s.35,3.65.35,3.65,4.14-7,4.71-6.46,1.95,7.13,1.95,7.13c.27-.42.79-1.36.79-1.36a77.32,77.32,0,0,0,1.49-8.85,6,6,0,0,1,1.46,4l1,8.66a7.32,7.32,0,0,0,1.69.38c1.78.24,3.38-.07,3.78-1.12l7.07,4.15s1.68,1.49,7.25,3.37a8.53,8.53,0,0,0-.31,1.77c0,3,11.86,8,13.9,8h.17l1.19-.07a96.62,96.62,0,0,0-15.27,6.37c-.38.52-9.87,8.48-12.34,11.88h0q-2.23,1.56-4.34,3.29l-1.52,1.25s5.86-9.48,6.23-9.85a14.09,14.09,0,0,0,2.44-4.26c-1.56-2.75-6.54-7.4-11-8.29-3,.4-4.05,0-9.77,3.42,0,0-.84-3.51-.84-4.16a20.84,20.84,0,0,0,6.86-3.12,53.47,53.47,0,0,0,.79-7.13c-8.1-.73-22.78,3.19-26.88,6.25-1.61,0-4.23-2.16-6.08-4.42-.56.05-1.12.1-1.67.13,1.83,3.57,7.08,14.89,8.39,17.11a26.57,26.57,0,0,0-4,9.73c-.46,1.47-1.3,9-.81,9.65l-3.89,6.49c-.67.81-24.07,37.09-23.8,58a39.91,39.91,0,0,0,.29,7,.38.38,0,0,0,.07.18,12,12,0,0,0,1.51,1.5,17.9,17.9,0,0,0,2,1.6,27,27,0,0,0,4.46,2.49,26.74,26.74,0,0,0,4.87,1.68,15.13,15.13,0,0,0,2.65.4,7.68,7.68,0,0,0,1.46-.05,4.37,4.37,0,0,0,.82-.19,2.89,2.89,0,0,0,.91-.48,2.3,2.3,0,0,0,.23-.2l.09-.09.05-.06.21-.23.42-.46.84-.92.42-.46a1.1,1.1,0,0,0,.4.57,14.73,14.73,0,0,0,1.6.55l.72.19v0l.46.14a18.19,18.19,0,0,0,2.63.55,16.16,16.16,0,0,0,3.57.09,10.82,10.82,0,0,0,2.06-.4l.27-.08.26-.1c.17-.07.36-.13.53-.22l.53-.27.5-.3a23.54,23.54,0,0,0,3.91-3.12c1.27-1.22,2.49-2.6,3.73-4a24.07,24.07,0,0,0,3.55-4.85,10.1,10.1,0,0,0,1-3,16.41,16.41,0,0,0,.15-3c0-1-.08-1.88-.09-2.75a12.19,12.19,0,0,1,.19-2.46,4.68,4.68,0,0,1,.14-.56c.06-.18.09-.37.16-.55a9.94,9.94,0,0,1,.44-1.06,15.23,15.23,0,0,1,1.13-2c.84-1.23,1.73-2.36,2.5-3.43a20.92,20.92,0,0,0,1.92-3.08l.17-.36.15-.36a7,7,0,0,0,.26-.67l.2-.63a4.15,4.15,0,0,0,.12-.6,2.72,2.72,0,0,0-.07-1.86.58.58,0,0,0-.2-.2l.27-.39a11.07,11.07,0,0,0-1.21-2.06c-1.79,2.55-3.68,5-5.63,7.5-1,1.3-2.07,2.57-3.1,3.85L805,255.29l-3.2,3.78-3.24,3.75-3.25,3.75-3.27,3.73c-2.19,2.48-4.36,5-6.56,7.44L781.17,281a.53.53,0,0,1-.18.1,2,2,0,0,1-.39.1,5.34,5.34,0,0,1-1,.07,14.14,14.14,0,0,1-2.27-.25,31.85,31.85,0,0,1-9-3.22,11,11,0,0,1-3.31-2.3,10,10,0,0,1-1.09-3.74,4.67,4.67,0,0,0,.36.36s1.49.91,2.23,1.32c.36.22.74.41,1.11.61l.57.26.1,0v0c.06-.64.14-1.27.22-1.9s.17-1.26.26-1.89.18-1.26.29-1.88c.21-1.25.43-2.49.69-3.72l.38-1.85.42-1.84.44-1.84.48-1.82c.32-1.21.63-2.43,1-3.63s.71-2.41,1.11-3.6l1.22-3.56c.4-1.19.88-2.35,1.32-3.52l.68-1.75c.23-.58.48-1.16.73-1.73l1.49-3.45c.53-1.13,1.08-2.26,1.62-3.38,1.06-2.26,2.29-4.44,3.48-6.63s2.56-4.29,3.88-6.39l.55.29c-.43,1.17-.9,2.31-1.35,3.47l-.7,1.72c-.12.29-.24.57-.35.86l-.32.87c-.42,1.16-.86,2.31-1.29,3.46s-.85,2.31-1.24,3.47-.82,2.31-1.22,3.47l-1.13,3.5c-.18.58-.39,1.16-.56,1.75l-.52,1.76-.52,1.76c-.18.59-.36,1.17-.51,1.76-1.32,4.71-2.48,9.44-3.43,14.21l-.36,1.79-.32,1.79c-.23,1.19-.4,2.39-.6,3.59-.1.6-.18,1.2-.26,1.79s-.17,1.2-.23,1.79-.14,1.19-.2,1.79c0,.29,0,.6-.3.87l0,0,.43.06a22.75,22.75,0,0,0,4.86.08,22.23,22.23,0,0,0,2.38-.35c.39-.08.78-.17,1.15-.27l.1,0a95.13,95.13,0,0,0,8.19-9.26c12.23-12.52,31.25-35,30.26-37.95s-5.44-6.46-5.78-6.79a6.87,6.87,0,0,0-1.4-1,9.06,9.06,0,0,0-1.63-.7,7.66,7.66,0,0,0-.86-.23,6.73,6.73,0,0,0-.87-.14h0a8.52,8.52,0,0,1,1.93-.34,11.54,11.54,0,0,1,1.92.09,9.18,9.18,0,0,1,1.85.65c.53.24,1,.5,1.57.73a5.23,5.23,0,0,1,1.49.72c.35.21,3.35,3,3.64,3.22-.5-.68-3.39-4.36-4.32-4.51-.58-1.57-3.49-2.49-4-2.74,0,0,5.7-.63,11.07,4.44.72-1.47,6.75-4.6,8-4.83a21.23,21.23,0,0,1,.75-6.62,50,50,0,0,1,.64-5,15.94,15.94,0,0,1,.6-1.84h0l.77-2.13-.16,2.25a11.55,11.55,0,0,0,0,1.72q.08.87.24,1.73t.4,1.71c.16.56.33,1.13.53,1.66l0,.06v.06a35.49,35.49,0,0,0,0,3.58c0,.11,0,3.3,0,3.41,0-.17,0-3.41,0-3.58.07-.63.15-1.26.24-1.88.05-.31.09-.63.15-.94s.09-.56.17-.88-.06-.37-.09-.55,0-.41,0-.61,0-.4,0-.6a5.46,5.46,0,0,1,.06-.6,14.55,14.55,0,0,1,.54-2.31c.11-.38.24-.75.37-1.12s.28-.73.43-1.09a23,23,0,0,1,1-2.12h0l1-2-.43,2.26a15.39,15.39,0,0,0-.29,2.19,13.8,13.8,0,0,0,0,2.19,13.37,13.37,0,0,0,.38,2.15c.09.35.2.7.32,1,.06.18-.81,5.3.28,6.18,17.09-3.26,25.89-8,25.89-8s8.41-4,12.29-8.4c.4-.5,1.06-7.29,1.28-8.35.12-.61.26-1.2.42-1.8s.34-1.18.55-1.77h0l.68-2-.08,2.07c-.06,1.74-.09,3.48,0,5.22,0,.43,0,.87.08,1.3l.05.65,0,.31,0,.32.19,1.35c.18-.46.38-.92.61-1.36a23.11,23.11,0,0,1,1.39-2.39q.77-1.15,1.64-2.22a27.31,27.31,0,0,1,1.85-2.06h0l1.47-1.45-1,1.83-.75,1.39-.71,1.41c-.45,1-.89,1.91-1.29,2.88s-.81,1.94-1.17,2.92c-.15.4-.29.81-.43,1.22a11.6,11.6,0,0,1,1.15-1.22,15.94,15.94,0,0,1,2.82-2.1,17.73,17.73,0,0,1,3.16-1.49l.83-.27.84-.22a10.72,10.72,0,0,1,1.74-.27h0l1.9-.44-1.64,1c-.89.54-1.74,1.12-2.58,1.73s-1.66,1.23-2.46,1.89-1.6,1.31-2.35,2c-3.42,2.07-5.6,2.85-6.7,5.76a25.67,25.67,0,0,0-.07,7.43,49.59,49.59,0,0,0,1,5.19c.41,1.71.92,3.38,1.47,5s1.17,3.28,1.81,4.89q.49,1.21,1,2.4l1,2.38c1.38,3.16,2.81,6.3,4.25,9.43l.15-.06c.21.8.42,1.59.66,2.38l.47,1.62.5,1.61c.6,1.88,1.23,3.75,1.95,5.58l-.71.21c-.63.21-1.28.47-2,.76l.15,0a2.16,2.16,0,0,0-.85.28,3,3,0,0,0-.62.49,4.17,4.17,0,0,0-.46.57,5,5,0,0,0-.36.62l-.12.24.21.12h0l1,.58.06,0h.07a2.8,2.8,0,0,1,.58.07,2.37,2.37,0,0,1,.55.19,2.43,2.43,0,0,1,.49.31,2.25,2.25,0,0,1,.38.4,41,41,0,0,1,1.77,4.47c.49,1.53.94,3.08,1.29,4.66s.67,3.16.91,4.76.44,3.2.55,4.81v.06l0,0,.58,1.08A10.4,10.4,0,0,0,898,278c-.19.46-.36.91-.52,1.38v.09l.59,14.54v.08l0,0v0a3.17,3.17,0,0,0,1.09,1.86,5.56,5.56,0,0,0,1.89,1.06,8.53,8.53,0,0,0,2,.41,9.33,9.33,0,0,0,1,0s0,.08,0,.11a6.08,6.08,0,0,0,.05,1.06,5.9,5.9,0,0,0,.24,1c.06.17.12.34.2.51l.12.26.07.14,0,.07,0,.06a5.89,5.89,0,0,0,1.81,2,8,8,0,0,0,2.33,1.09,14.57,14.57,0,0,0,4.68.48c.38,0,.76,0,1.15-.09l.59-.08.1,0h.07l.13,0,.26-.05,2.1-.43,4.2-.89c1.4-.29,2.8-.6,4.2-.91s2.8-.61,4.19-.94c2.79-.65,5.58-1.31,8.35-2l.2-.05v-.16h0a7.59,7.59,0,0,0,0-1.39c0-.45-.09-.9-.15-1.35-.12-.89-.28-1.77-.44-2.66q-.49-2.63-1.09-5.24a1.87,1.87,0,0,0-.53-1.18,4.5,4.5,0,0,0-1-.78,8.87,8.87,0,0,0-1.07-.56,11.08,11.08,0,0,0-1.12-.43h0l-3.27-.58-.82-.14a26.63,26.63,0,0,1-2.9-1.29h.05s-.66-.73-1.57-1.75h0a14.66,14.66,0,0,0-2.47-2.81,27.6,27.6,0,0,1-2.75-3.58l-.09,0v0l.1,0s-1.68-3.9-3.55-18.13a17.58,17.58,0,0,1,4.83-5.78,25,25,0,0,0-6.06-1.77l-.63-5.64C911,184.51,909.57,181,909.57,181a30.3,30.3,0,0,0-5.63-5.56c.24,1.36.55,3,.83,3.89.07.21.14.43.21.69.12.46.22.93.31,1.4,0,.24.08.47.11.71s0,.36.07.56a27,27,0,0,1,.59,2.83,24,24,0,0,1,.32,2.9c.14,1.93.26,3.85.31,5.77s.08,3.84.07,5.75,0,3.83-.1,5.75L905.28,207c-.09-3.81-.31-7.63-.66-11.41-.19-1.89-.38-3.78-.69-5.65-.21-.93-.31-1.86-.5-2.78s-.72-5-.81-5.44l0-.12a34.18,34.18,0,0,0-1.22-7.39,3.74,3.74,0,0,0-1.62-1.28l-.62-.18c-5.49-2.46-20.65-1.63-36.26,3.12a4.72,4.72,0,0,0,0-2.86c-.26-1.1-.64-2.39-1.5-2.39-.08,0-.14-.24-.18-.55a2.43,2.43,0,0,0,2.22-2.19c.28-1.41-.34-2.74-1.39-3l-.41-.09c.14-.75.3-1.56.51-2.41l1.81.16c.91.07,1.73-.85,1.83-2.07l0-.2a2,2,0,0,0-1.47-2.35l-.74-.06q.23-.56.49-1.08l2.67.23c1,.08,1.89-1,2-2.45a3.44,3.44,0,0,0-.25-1.61l-.19-.36a1.73,1.73,0,0,0-.74-.67,3.42,3.42,0,0,1,2-1l3.29-.35.87-.09.3,0h0l.15,0c.58-.08,1-.11,1.5-.16,1.53-.16,2.94-.3,3.61-.35l2.53-.17a.69.69,0,0,0,.41-.23l.27-.44,0-.06c2.15,1.09,16.66,8.46,18.8,9.61l.33,1.28.3.46c2.18,3.15,10.12,5.46,10.69,5.62-.28,1.88-.47,3.22-.47,3.53,0,1.37,10,3.61,12.88,3.61a2.22,2.22,0,0,0,.37,0v0l1.62-.31a1.63,1.63,0,0,0,1.37-.79c.78-1.35-.42-3.9-.56-4.18l-.31-.43a2.35,2.35,0,0,1,0-.63,2.69,2.69,0,0,0-1.88-3.29c0-.07,0-.14,0-.21a2.93,2.93,0,0,0,3.16-2.5,3.06,3.06,0,0,0-1.75-3.4,3.05,3.05,0,0,0,1.39-5.56,7.78,7.78,0,0,1,1-1.12h.12A3.18,3.18,0,0,0,933,148c.07-1,.28-2.28-1-2.75,1.48-1.37,4-7.2,4-9.62l28.8,0c1.07,4.17,2.58,7,4.46,7h17.06v-.05c2.3-.52,3.72-4.45,4.51-7.77a72.86,72.86,0,0,0,1.64-16.05C992.14,104.61,989.56,95.91,985.69,95.91ZM928.23,82.58c.74,0,1.35,3.28,1.35,7.33s-.6,7.34-1.35,7.34-1.34-3.29-1.34-7.34S927.48,82.58,928.23,82.58Zm-2.43,7.33a13.66,13.66,0,0,0,1.48,8.61c-12.85,0-26.17-1.8-26.17-4.91v-3.7ZM823,96.52c-3-1.19-2.63-6.6-2.63-6.6h4.28s.08,6.17,2.8,6.63C827.41,96.54,824,96.55,823,96.52Zm4.34-1.68h1.81s-.95,1.33-1.7,1.33l-.11,0c-1.07,0-2.26-3.06-2.26-7.15,0-3.2,1.15-5.44,2.19-5.53a2.47,2.47,0,0,1,1,.13,2.44,2.44,0,0,1,.88,1.44h-1.87C825.71,86.66,826.09,93.3,827.29,94.83Zm68.83,157.83h0Zm23.25,21.9c.13.17.6.9.83,1.19-2.91-.84-9.54,1.12-12.12,3,0,0,1.34,1.39,1.68,1.73,2-1,6.29-3.64,11.75-3.05l.79,1c-2.47-.16-8.61,1.55-11.18,3.56,0,0,1.48,1.61,2.38,2.46,0,0,6-3.49,11.28-3.16.47.52,1,1,1.46,1.57l-.45-.07c-2.43-.39-8.36,1.87-10.66,3.29-.05.32,0,.89-.07,1.1-.45.18-.85.35-1.15.49-2.21-2.21-7.58-7.8-7.58-7.8,0-.33.24-.87.27-1.22,1.52-2,9.54-4.57,12.21-4.06Zm-.82-2.09-.43,0c-3-.23-7.89,1.1-10,3.05a5.69,5.69,0,0,1-.84-2.77,4.65,4.65,0,0,1,3.19-1.48l.38.87c.93-.61,4.79-1.22,5.76-1.27,0-.32-.07-.78-.14-1.32l.61,0a5.68,5.68,0,0,1,.72-.09s0-.09,0-.13C918,270.5,918.28,271.59,918.55,272.48Zm-1.06-4.73a4.53,4.53,0,0,0-.86-.15h0c-3-.3-7.71.75-9.87,2.51a5.69,5.69,0,0,1-.68-2.81c.8-.8,2.37-1,3.27-1.3l.33.89c1-.56,4.86-.94,5.82-.94,0-.32,0-.78-.06-1.32.21,0,1.09.06,1.55.09C917.14,265.76,917.31,266.78,917.48,267.75Zm-9.18-7.59.33.89c1-.56,4.86-.94,5.82-.94,0-.32,0-.78-.06-1.32a5.89,5.89,0,0,1,1.49,0l.28.07c.13,1,.26,2.07.41,3.12l-.28-.09c-2.92-.5-8.24.51-10.57,2.41a5.69,5.69,0,0,1-.68-2.81A4.89,4.89,0,0,1,908.31,260.16Zm-4,36.31v0l0-.09,0,.14Zm22.47-128h0c.34.78,1.12,2.67.68,3.44a.86.86,0,0,1-.78.41l-.13,0a6,6,0,0,0-.62-3.32A3,3,0,0,0,926.74,168.48Zm-32.57-86,.06,2.31h-4.89l0-2.31Zm0,21.53h-4.76V94.83h4.73ZM874.75,72.18l3.05,11.53H873l-2.76-11.53ZM858,96.39l23.31-.08V104H858Zm-5.22-13.95h4.37v1.27h-4.37Zm-.45,14h4.89V104h-4.89ZM809.87,75.64a41.44,41.44,0,0,0,.88-4.18c1.73,2.4,2.38,5.94,2.65,6.93a33,33,0,0,1,.59,3.36c.09,1.84.17,3.3,1,3.92.58.81,2,10,1.85,17.76l-14.75.16c-2.37-6.7-6.39-17.7-5.56-19.6a28.13,28.13,0,0,0,5.32,3.61,37.14,37.14,0,0,1-6.63-12c-.12-1.71-.18-2.75-.19-2.79v0c-.1-.59.53-1.34,1.67-2a15,15,0,0,1,4.72-1.66l.71,0s0,0,0-.11h0l-.07-.38a.05.05,0,0,0,0,0,6.18,6.18,0,0,1,2.9-1.17,3.61,3.61,0,0,1,2.26.74C808.29,69,808.55,69.58,809.87,75.64ZM801.66,49.5c3.23.35,5.71,1.85,5.55,3.36s-2.91,2.46-6.14,2.11-5.71-1.85-5.55-3.36S798.43,49.15,801.66,49.5Zm-5.19,7.78c1,1,3.65,1.48,6.21,1.29a18.64,18.64,0,0,0-3.88,5.36c-.17.27-4.27-1.22-7.78.71,1.8-1.87,2.59-3.75,2.49-4.82-.09-.63-.11-1.42-.11-1.42A9.3,9.3,0,0,1,796.46,57.28Zm-13.78-1c3.79-1.73,7.72-1.18,8.78,1.22s-1.16,5.74-4.95,7.47-7.72,1.18-8.78-1.22S778.89,58,782.69,56.24ZM768.05,74.42c-.19.6-.37,1.21-.51,1.83a9.36,9.36,0,0,0-.17,1c0,.32-1.78-1.95-2.94-3.27a1.25,1.25,0,0,1,0-.16c0-.12,0-.26,0-.39a7.84,7.84,0,0,1,0-.81,9.47,9.47,0,0,1,.23-1.65,13.13,13.13,0,0,1,1.21-3.21,19.29,19.29,0,0,1,1.92-2.94c.26-.33.58-.76.89-1.18a4.35,4.35,0,0,1,1.44-.7l1,.51a22.13,22.13,0,0,0-2.85,5.12,24.22,24.22,0,0,1,3.15-4.66,3,3,0,0,0,1.19.6,29.36,29.36,0,0,0-4.16,9C768.27,73.79,768.16,74.1,768.05,74.42Zm8.72,19.21-.06-.57c-12-17-4.67-27.54-1.71-30.75a7.09,7.09,0,0,0-.1.78l.09,3.43-.79,6.22c.41.84,1.71,11.93,2.63,20.61C776.82,93.44,776.79,93.54,776.77,93.63Zm-.31-20.27.36-3.39,3.53,1-1.06,3-.19,3.5-1.9-.08Zm1.72,19.5a8.18,8.18,0,0,1,.77-2.73,5.29,5.29,0,0,1,1.22-1.43l.78-.5-.19.08.13-.09s0-11.56.24-12.74a56.82,56.82,0,0,1,1.72-6.26,18.63,18.63,0,0,0,6-2.68,9.9,9.9,0,0,0-1.32,2.17,10.75,10.75,0,0,0-.74,3.18c-.3,2.56-1,24-.77,25.05a13.61,13.61,0,0,0,4.07,7l.1.06h-3.21a19,19,0,0,1-2.37-3.25,7.78,7.78,0,0,1-1.85-.63A6.67,6.67,0,0,1,780,98.29a5.49,5.49,0,0,1-.8-1.11A8.94,8.94,0,0,1,778.18,92.86Zm-81.57,55.41-9.88,0c-3.22-1.25-4.45-4.37-6.23-8.52-2.22-5.18-2.71-11.78-2.71-19.21,0-.4,0-.8,0-1.2h14c0,.16,0,.52,0,1.15-.06,8.49,1.51,16.16,3.92,21.54l.16.35a17.3,17.3,0,0,0,4,5.81C698.63,148.3,696.61,148.28,696.61,148.28Zm4.44.8q.29.18.59.33A1.48,1.48,0,0,1,701,149.08Zm9.74-8.55c-1.91,4.57-4.4,7.29-6.67,7.29-2.11,0-4.38-2.29-6.23-6.3l-.15-.33c-2.37-5.29-3.73-12.81-3.73-20.65s1.34-15.25,3.68-20.54l.15-.33c1.87-4.07,4.16-6.41,6.28-6.41s4.76,2.73,6.67,7.29q.73,1.76,1.32,3.65H705l-.42,0h0c-7.65,2-7.3,28.2.05,31.33,2.08,0,7.86,0,7.86,0C712.07,136.89,711.26,139.4,710.79,140.53Zm-5.24-6c-5.49-3.17-5.11-15-5.11-15l49.23,0c-.19,6,2.37,12.54,3.54,15.08Zm49.93.07c-4.4-8.39-5.62-22.2.27-29.41h10.67c-6.43,7.36-3.08,25.43,0,29.41Zm23.8,13.57s-4.5.91-5.85-.34a13.12,13.12,0,0,1-.68-3.58s.44-5.09.71-8.19c.07.43,5.43,10.89,6.61,11.88Zm.55-12.62h44.26a9.78,9.78,0,0,1-4.37,2.4c-1.43,0-21.17,2.69-29.83,2.92C788.92,140.9,782,136.92,779.83,135.58Zm52.25,8a11.5,11.5,0,0,0-3.77-.31,3.79,3.79,0,0,0-1.48.31,31.32,31.32,0,0,1-.27,14.13c.13-1.79.15-3.58.11-5.36,0-1.25-.09-2.49-.17-3.74s-.37-4.05-.37-4.05a2.22,2.22,0,0,0-.8,0l-4.08.29A199.7,199.7,0,0,0,783,147.19c-.06,0-.72.16-1.8.45-1.12-2.29-.91-4.91-.38-5.5l4.6,2.22c10.61-.89,35.51-3.88,40.43-4.27a9,9,0,0,0,2.49-4l.17-.49h13.33a18.44,18.44,0,0,1,3.11,2.6h0a4.13,4.13,0,0,1,1.31,2.53c0,.13,0,.26,0,.4a29.73,29.73,0,0,0-5.52.52s-2.76-.16,4.18-3.45c-.16,0-8.53,2.27-10.48,4.23C834.44,142.4,833,143.83,832.08,143.53ZM840,160.19s-3.09,0-7.32-3.82c0,0,2.49-7.84,0-11.27,0,0,5.18-3.27,10.28-.89C843,144.22,843.81,156.37,840,160.19Zm10.1,4.71c-.18.64-1.27.89-2.44.57l-.27-.09-.06,0-.24-.1h0l-.26-.13h0l-.23-.15c-.53-.37-.83-.84-.71-1.25s.64-.68,1.31-.71a3.42,3.42,0,0,1,.53,0h0l.22,0H848l.27.06C849.46,163.48,850.27,164.26,850.09,164.9Zm1.23-5.93c-.21.6-1.31.76-2.45.36a3.76,3.76,0,0,1-.44-.18c-.89-.43-1.43-1.1-1.25-1.62s1-.7,1.94-.5l.24.06h0l.25.08C850.76,157.57,851.52,158.37,851.32,159Zm1.52-6.41c-.12.7-1.26,1.08-2.52.85l-.08,0c-1.23-.25-2.12-1-2-1.66s1.26-1.07,2.52-.85l.14,0,.22.05.21.06h0l.19.07h0l.18.08h0l.16.08h0l.15.08,0,0,.13.08,0,0,.11.08,0,0,.09.08,0,0,.07.08,0,0,.06.07,0,.05,0,.07,0,.06,0,.07a.56.56,0,0,1,0,.07l0,.06a.71.71,0,0,1,0,.08s0,0,0,0A.85.85,0,0,1,852.84,152.57Zm-1.24-5.9c-1.3,0-2.35-.5-2.35-1.11s1.05-1.11,2.35-1.11,2.35.5,2.35,1.11S852.9,146.66,851.6,146.66Zm10.53,26.47c.28,1.19.22,2.56-.4,2.92l-1.27,0c.84-1.32-.12-5.06-1.41-5.06-.26,0-.38-.54-.39-1.45l1.56.33a3.22,3.22,0,0,0,.08.64c.11.41.31.5.46.5C861.28,171,861.85,171.92,862.13,173.13Zm-1.32-8.44-1.52-.32c.13-.69.28-1.41.45-2.13l1.58.13C861.13,163.17,861,163.94,860.81,164.68Zm1.87-6.84-1.61-.14c.13-.37.27-.74.41-1.09l1.62.14C863,157.11,862.82,157.47,862.68,157.84Zm3.46-6.06-1.39-.12a2.37,2.37,0,0,1,1.28-.41h.88A4,4,0,0,0,866.14,151.78Zm.46-10.52a1.46,1.46,0,0,1,1.5-1.44h2.06s-.19.84-.31,1.62l-3.25,0Zm12.14,5.85a1.62,1.62,0,0,1-1.64,1.58l-9.15.14a1.24,1.24,0,0,1-1.29-1.19l0-1.53,3.75-.06.12.12a4.74,4.74,0,0,0,1.45,1.07h1.91c-.08-.43-.14-.85-.18-1.25l1.61,0a2.12,2.12,0,0,0,2.15-2.07v-.47a2.12,2.12,0,0,0-2.15-2.08h-.79a5.29,5.29,0,0,1,1.73-1.55l1.48,0c.82.16,1,.91,1,1.73Zm-5.47-1.1a7.58,7.58,0,0,0,.16.78H872q-.08-.38-.13-.75Zm-.6-4.61a6.24,6.24,0,0,1,1.29-1.58h1.52a4.56,4.56,0,0,0-1.52,1.56Zm9.64,7.22c-.07.14,0,0-.08.15-.25.38-.45.6-.58.6h-1.31c1.42-1.56,4-9.28,5.09-13.8h1.52c-.26,1-.56,2-.87,3-.39,1.23-.81,2.46-1.24,3.69s-.89,2.44-1.37,3.64c-.24.6-.48,1.2-.74,1.79Q882.53,148.19,882.32,148.62Zm.62-.24.23-.52c.26-.6.51-1.2.75-1.8.48-1.21.93-2.43,1.37-3.65l.11-.32c.09-.17.43-1.22.47-1.36q.33-1,.63-1.95a135.65,135.65,0,0,0,13.95,10c-.7.9-1.34,1.79-1.82,2.46a1.13,1.13,0,0,0,.05,1.36,9.86,9.86,0,0,1,1.86,2.89s.14.57.33,1.33Zm4.38-12.44.09-.36h21.38c.82,1.25,1.69,4.66,2.12,6.93a48.29,48.29,0,0,0-7.59,3.1C900.57,144,892.42,139.54,887.31,135.94Zm27.46,13.25-4.21-.86c-1.49-.36-2-2.27-1.66-3.76.18-.76,1.31-1.11,2.08-1.23a6,6,0,0,1,.18,1.11c0,1.42,2.32,1.25,3.46,2.32A8.77,8.77,0,0,1,914.78,149.2Zm10,14.18-1.2-.25c0-.06,0-.13,0-.19l1.2.25Zm2.63-11.85-1.22-.36c.11-.22.22-.41.33-.59l1.58.09A8.54,8.54,0,0,0,927.4,151.53Zm2.76-7h0l-2.22-.18c1.14-2.07,4.12-6.94,4.29-8.77h2C934.11,137.64,931.52,143.32,930.16,144.54Zm-160.94-9.9c-3.93-3.41-4.2-15.08-4.2-15.08l198,.3a72.41,72.41,0,0,0,1.54,14.76Zm200,6.92c-2.49,0-5.28-9.57-5.3-22.4,6.08,0,10.44,0,15.81.07.05,9.68,1.8,19.74,4.77,22.33Zm17.15-5.33c-2.1,0-3.8-7.67-3.8-17.14s1.7-17.14,3.8-17.14,3.8,7.67,3.8,17.14S988.48,136.23,986.38,136.23Z" fill="#303740"/></g></g></g></svg>