<svg xmlns="http://www.w3.org/2000/svg" viewBox="0 0 768 329.2"><title>footer_callsign_mobilev2</title><g id="Layer_2" data-name="Layer 2"><g id="footer_callsign"><path id="SINGLE_COLOR" d="M630.9,163.2h-10c-1.3,0-2.2,2.1-2.9,5H576v-5.6h3.7c.3,1.7,7.6,3,16.4,3,.4,0,.8-.7,1-1.7a17.8,17.8,0,0,0,.4-4.2c0-3.2-.7-5.9-1.5-5.9-8.9,0-16.2,1.3-16.2,2.9h-4v-1.8h-8.3v1.2h-1.6l-2-7.4h-7l-1.9,7.4h-1.6v-1.2h-7.8v2h-9.5v-.4h0l-.4-.6h0a1.1,1.1,0,0,0-.8-.4h-2.3c-1.3,0-2.3,1.9-2.3,4.3s1,4.3,2.3,4.3h2.3c.3,0,.8-.2,1.2-1.3h9.9l.3,5.5h-5.7l-1.3-.9a13.5,13.5,0,0,0-9.6.7c.1-4.5-.7-10.8-1.3-11.2s-.4-1.1-.4-2a15.9,15.9,0,0,0-.2-1.8l-1.7-7c2.1-1.8,6.4-.3,7.6,7.4.4-15.9-7.8-14.2-9.4-12.5.4-.7,2.4-3.4,7.7-2.5a12.3,12.3,0,0,0-8.3.2c0-.8,0-1.2,0-1.2,0-2.4-7-4.2-8.9-1a5.9,5.9,0,0,0-.3,1.4l-1.4.6-1.5-.5c-3.3-.4-7.5,1.9-8.2,5.1l-1.3,1.2-.9-.7-.9-.7h.1c-.4-.4-.1-.2-.1-.2.2-3,2.8-4.5,4.8-6.6,4.8-7.1-1.1-18.2,1.2-24.5-2.7,7.2-7.4,7.3-8.8,15,1.5-10.4-3.2-13.5-4.6-20.9-.5,5.7-6.1,12.4-4.4,16.3-3.2-7.1-9.4-8.3-14.7-14.3.9,5.1,2.7,15.3,8.3,18.4-8.7-4.5-10.8-2-21.1-5.7,6.8,5.6,3.8,9.5,15.5,12.7-6.2-1.6-9.9.7-17.7,3.8,10-1.9,12.1,1.5,18.6,1.8-8.3.1-9.3,4.1-17.5,11,6.9-4.6,13.3-4.1,19.5-4.7-3.4,2.3-6.5,8-11.7,9.1,4.5,1.9,15.8-3.9,18.4-5.4-7.8,4.8.5,12.3.9,13.4-.4-9.1,4.3-7.7,8.2-11.1h.6l2.8,2.2h.1a5.1,5.1,0,0,0,0,.5c-.2,11.5,6.2,14.8,6.3,14.8H466.7a25.9,25.9,0,0,0-1-2.7c-1.2-3-2.9-4.9-4.8-5.2H449.8l-.8.2a5,5,0,0,0-1.4,1l-.8.9-.6.9a15.4,15.4,0,0,0-1.1,2.2,27.5,27.5,0,0,0-2.2,11.5c0,.1,0,.2,0,.3h0c0,.2,0,.5,0,.7,0,9.8,3.4,17.8,7.6,17.8h10.2a4,4,0,0,0,2.8-1.3,11.6,11.6,0,0,0,2.6-4c.3-.8.9-2.5,1.2-3.5h24.6a94.4,94.4,0,0,0,.4,11.3c.5-1.5,3-5.4,9.2-4.2a11.5,11.5,0,0,0-8.5,8.4c.7-.7,2.6-4.2,9.7-5.8-3,3.4-2.8,6.6-2.5,7.3h1.7l3.4-4c11.3.8,22-2.5,22.3-2.5s.2,2.2.2,2.2,2.5-4.3,2.9-3.9a27.4,27.4,0,0,1,1.2,4.3l.5-.8a46.8,46.8,0,0,0,.9-5.4,3.6,3.6,0,0,1,.9,2.4l.6,5.2,1,.2c1.1.1,2,0,2.3-.7l4.3,2.5a14.1,14.1,0,0,0,4.4,2,5.2,5.2,0,0,0-.2,1.1c0,1.8,7.2,4.8,8.4,4.8h.8a58.5,58.5,0,0,0-9.2,3.9c-.2.3-6,5.1-7.5,7.2h0l-2.6,2-.9.8s3.5-5.7,3.8-6a8.5,8.5,0,0,0,1.5-2.6c-.9-1.7-4-4.5-6.6-5s-2.5,0-5.9,2.1c0,0-.5-2.1-.5-2.5a12.6,12.6,0,0,0,4.2-1.9,32.4,32.4,0,0,0,.5-4.3c-4.9-.4-13.8,1.9-16.3,3.8-1,0-2.6-1.3-3.7-2.7h-1c1.1,2.2,4.3,9,5.1,10.4a16.1,16.1,0,0,0-2.4,5.9c-.3.9-.8,5.4-.5,5.8l-2.4,3.9c-.4.5-14.6,22.4-14.4,35.1a24.2,24.2,0,0,0,.2,4.2h0l.9.9,1.2,1a16.3,16.3,0,0,0,2.7,1.5,16.2,16.2,0,0,0,2.9,1l1.6.2h1.4l.5-.3h.3l.3-.3.5-.6.3-.3.2.3,1,.3h.7l1.6.3h2.2l1.2-.2h.6l.3-.2.3-.2a14.2,14.2,0,0,0,2.4-1.9l2.3-2.4a14.6,14.6,0,0,0,2.1-2.9,6.1,6.1,0,0,0,.6-1.8,9.9,9.9,0,0,0,.1-1.8c0-.6-.1-1.1-.1-1.7a7.4,7.4,0,0,1,.1-1.5v-.7l.3-.6.7-1.2,1.5-2.1a12.7,12.7,0,0,0,1.2-1.9v-.4l.2-.4v-.7a1.6,1.6,0,0,0,0-1.1h-.1l.2-.2a6.7,6.7,0,0,0-.7-1.2c-1.1,1.5-2.2,3.1-3.4,4.5l-1.9,2.3-1.9,2.3-1.9,2.3-2,2.3-2,2.3-2,2.3-4,4.5-2.6,2h-2.3a19.3,19.3,0,0,1-5.5-1.9,6.7,6.7,0,0,1-2-1.4,6,6,0,0,1-.7-2.3l.2.2,1.3.8.7.4.3.2h.1v-1.2l.2-1.1.2-1.1c.1-.8.3-1.5.4-2.3l.2-1.1.3-1.1.3-1.1.3-1.1c.2-.7.4-1.5.6-2.2l.7-2.2.7-2.2.8-2.1.4-1.1.4-1,.9-2.1,1-2c.6-1.4,1.4-2.7,2.1-4s1.5-2.6,2.4-3.9l.3.2-.8,2.1-.4,1-.2.5-.2.5-.8,2.1-.8,2.1-.7,2.1-.7,2.1-.3,1.1-.3,1.1-.3,1.1-.3,1.1c-.8,2.8-1.5,5.7-2.1,8.6l-.2,1.1-.2,1.1c-.1.7-.2,1.4-.4,2.2l-.2,1.1v2.2c0,.2,0,.4-.2.5h.2a13.8,13.8,0,0,0,2.9,0l1.4-.2.7-.2h.1a57.6,57.6,0,0,0,5-5.6c7.4-7.6,18.9-21.2,18.3-23s-3.3-3.9-3.5-4.1l-.8-.6-1-.4h-1l1.2-.2h1.2l1.1.4.9.4.9.4,2.2,1.9c-.3-.4-2-2.6-2.6-2.7s-2.1-1.5-2.4-1.7a9.1,9.1,0,0,1,6.7,2.7c.4-.9,4.1-2.8,4.9-2.9a12.8,12.8,0,0,1,.5-4,30.2,30.2,0,0,1,.4-3.1l.4-1.1h0l.5-1.3v1.4a7,7,0,0,0,0,1q0,.5.1,1l.2,1,.3,1h0a21.5,21.5,0,0,0,0,2.2c0,.1,0,2,0,2.1s0-2.1,0-2.2v-2.6c0-.1,0-.2,0-.4s0-.2,0-.4v-.4a8.8,8.8,0,0,1,.3-1.4l.2-.7.3-.7.6-1.3h0l.6-1.2-.3,1.4a9.3,9.3,0,0,0-.2,1.3,8.4,8.4,0,0,0,0,1.3,8.1,8.1,0,0,0,.2,1.3l.2.6c0,.1-.5,3.2.2,3.7,10.3-2,15.7-4.9,15.7-4.9s5.1-2.4,7.4-5.1c.2-.3.6-4.4.8-5.1l.3-1.1.3-1.1h0l.4-1.2v1.3c0,1.1-.1,2.1,0,3.2v2.4l.4-.8.8-1.4,1-1.3,1.1-1.2h0l.9-.9-.6,1.1-.5.8-.4.9-.8,1.7-.7,1.8-.3.7.7-.7,1.7-1.3,1.9-.9.5-.2h.5l1.1-.2h0l1.1-.3-1,.6-1.6,1-1.5,1.1-1.4,1.2c-2.1,1.3-3.4,1.7-4.1,3.5a15.5,15.5,0,0,0,0,4.5,30,30,0,0,0,.6,3.1c.2,1,.6,2,.9,3s.7,2,1.1,3l.6,1.5.6,1.4,2.6,5.7h.1l.4,1.4.3,1,.3,1c.4,1.1.7,2.3,1.2,3.4h-.4l-1.2.5h.1l-.5.2-.4.3-.3.3-.2.4h.1l.6.4h.8l.3.2.2.2a24.8,24.8,0,0,1,1.1,2.7c.3.9.6,1.9.8,2.8s.4,1.9.6,2.9.3,1.9.3,2.9h0l.4.7-.4.7-.3.8h0l.4,8.8h0a1.9,1.9,0,0,0,.7,1.1,3.4,3.4,0,0,0,1.1.6l1.2.2h.6a3.7,3.7,0,0,0,0,.6v1.1h.1a3.6,3.6,0,0,0,1.1,1.2,4.8,4.8,0,0,0,1.4.7,8.8,8.8,0,0,0,2.8.3h1.4l1.3-.3,2.5-.5,2.5-.6,2.5-.6,5.1-1.2h.1a4.6,4.6,0,0,0,0-.8v-.8l-.3-1.6q-.3-1.6-.7-3.2a1.1,1.1,0,0,0-.3-.7l-.6-.5-.6-.3-.7-.3h0l-2-.4h-.5l-1.8-.8h0l-1-1.1h0a8.9,8.9,0,0,0-1.5-1.7,16.7,16.7,0,0,1-1.7-2.2h0s-1-2.4-2.2-11a10.6,10.6,0,0,1,2.9-3.5,15.1,15.1,0,0,0-3.7-1.1l-.4-3.4c-2.3-35.7-3.1-37.9-3.1-37.9a18.3,18.3,0,0,0-3.4-3.4c.1.8.3,1.8.5,2.4v.4l.2.8v.8a16.3,16.3,0,0,1,.4,1.7,14.5,14.5,0,0,1,.2,1.8c.1,1.2.2,2.3.2,3.5s0,2.3,0,3.5,0,2.3-.1,3.5l-.8.8c-.1-2.3-.2-4.6-.4-6.9s-.2-2.3-.4-3.4-.2-1.1-.3-1.7-.4-3-.5-3.3h0a20.7,20.7,0,0,0-.7-4.5,2.3,2.3,0,0,0-1-.8h-.4c-3.3-1.5-12.5-1-21.9,1.9a2.9,2.9,0,0,0,0-1.7c-.2-.7-.4-1.4-.9-1.4s-.1-.1-.1-.3a1.5,1.5,0,0,0,1.3-1.3,1.4,1.4,0,0,0-.8-1.8h-.2l.3-1.5h1.1c.5,0,1-.5,1.1-1.3h0a1.2,1.2,0,0,0-.9-1.4H557l.3-.7h1.6c.6.1,1.1-.6,1.2-1.5a2.1,2.1,0,0,0-.1-1v-.2l-.4-.4a2.1,2.1,0,0,1,1.2-.6l2-.2h1.7l2.2-.2h1.8l.2-.3h0l11.4,5.8.2.8.2.3c1.3,1.9,6.1,3.3,6.5,3.4s-.3,1.9-.3,2.1,6,2.2,7.8,2.2h.2l1-.2a1,1,0,0,0,.8-.5c.5-.8-.3-2.4-.3-2.5l-.2-.3a1.4,1.4,0,0,1,0-.4,1.6,1.6,0,0,0-1.1-2h0a1.8,1.8,0,0,0,1.9-1.5,1.9,1.9,0,0,0-1.1-2.1,1.8,1.8,0,0,0,.8-3.4l.6-.7h.1a1.9,1.9,0,0,0,2.1-1.8c0-.6.2-1.4-.6-1.7a12.5,12.5,0,0,0,2.4-5.8h17.4c.6,2.5,1.6,4.2,2.7,4.2h10.3c1.4-.3,2.2-2.7,2.7-4.7a44.1,44.1,0,0,0,1-9.7C634.8,168.5,633.3,163.2,630.9,163.2Zm-34.8-8.1c.5,0,.8,2,.8,4.4s-.4,4.4-.8,4.4-.8-2-.8-4.4S595.7,155.2,596.1,155.2Zm-1.5,4.4a8.3,8.3,0,0,0,.9,5.2c-7.8,0-15.8-1.1-15.8-3v-2.2Zm-62.2,4c-1.8-.7-1.6-4-1.6-4h2.6s0,3.7,1.7,4Zm2.6-1h1.1s-.6.8-1,.8h-.1c-.6,0-1.4-1.8-1.4-4.3s.7-3.3,1.3-3.3h.6a1.5,1.5,0,0,1,.5.9h-1.1C534.1,157.6,534.3,161.7,535.1,162.6Zm41.7,95.5h0Zm14.1,13.3.5.7c-1.8-.5-5.8.7-7.3,1.8l1,1a12.1,12.1,0,0,1,7.1-1.8l.5.6a13.9,13.9,0,0,0-6.8,2.2l1.4,1.5s3.6-2.1,6.8-1.9l.9.9h-.3c-1.5-.2-5.1,1.1-6.4,2s0,.5,0,.7l-.7.3-4.6-4.7c0-.2.1-.5.2-.7s5.8-2.8,7.4-2.5Zm-.5-1.3H590a9.7,9.7,0,0,0-6.1,1.8,3.4,3.4,0,0,1-.5-1.7,2.8,2.8,0,0,1,1.9-.9l.2.5a12.8,12.8,0,0,1,3.5-.8v-.8h.8C590,268.9,590.1,269.6,590.3,270.1Zm-.6-2.9h-.5a9.7,9.7,0,0,0-6,1.5,3.4,3.4,0,0,1-.4-1.7,5,5,0,0,1,2-.8l.2.5a12.8,12.8,0,0,1,3.5-.6c0-.2,0-.5,0-.8h.9Zm-5.6-4.6.2.5a12.8,12.8,0,0,1,3.5-.6c0-.2,0-.5,0-.8h1.1l.2,1.9h-.2a9.8,9.8,0,0,0-6.4,1.5,3.4,3.4,0,0,1-.4-1.7A3,3,0,0,1,584.1,262.6Zm-2.4,22h0Zm13.6-77.5h0c.2.5.7,1.6.4,2.1a.5.5,0,0,1-.5.2h-.1a3.6,3.6,0,0,0-.4-2Zm-19.7-52v1.4h-3v-1.4Zm0,13h-2.9v-5.6h2.9Zm-11.8-19.3,1.8,7h-2.9l-1.7-7Zm-10.1,14.6h14.1v4.7H553.6Zm-3.2-8.4h2.6v.8h-2.6Zm-.3,8.4h3v4.6h-3ZM524.5,151a25.1,25.1,0,0,0,.5-2.5,12.6,12.6,0,0,1,1.6,4.2,20,20,0,0,1,.4,2c.1,1.1.1,2,.6,2.4s1.2,6,1.1,10.7h-8.9c-1.4-4.1-3.9-10.7-3.4-11.9a17,17,0,0,0,3.2,2.2,22.5,22.5,0,0,1-4-7.3v-1.7h0c-.1-.4.3-.8,1-1.2a9.1,9.1,0,0,1,2.9-1h.4v-.2h0a3.7,3.7,0,0,1,1.8-.7,2.2,2.2,0,0,1,1.4.4C523.6,147,523.7,147.3,524.5,151Zm-5-15.8c2,.2,3.5,1.1,3.4,2s-1.8,1.5-3.7,1.3-3.5-1.1-3.4-2S517.6,134.9,519.5,135.2Zm-3.1,4.7c.6.6,2.2.9,3.8.8a11.3,11.3,0,0,0-2.3,3.2c-.1.2-2.6-.7-4.7.4a4.4,4.4,0,0,0,1.5-2.9c-.1-.4-.1-.9-.1-.9A5.6,5.6,0,0,1,516.4,139.9Zm-8.3-.6c2.3-1,4.7-.7,5.3.7s-.7,3.5-3,4.5-4.7.7-5.3-.7S505.8,140.3,508.1,139.2Zm-8.9,11-.3,1.1v.6c0,.2-1.1-1.2-1.8-2h0v-.2a4.7,4.7,0,0,1,0-.5,5.7,5.7,0,0,1,.1-1,7.9,7.9,0,0,1,.7-1.9,11.7,11.7,0,0,1,1.2-1.8l.5-.7a2.6,2.6,0,0,1,.9-.4l.6.3a13.4,13.4,0,0,0-1.7,3.1,14.7,14.7,0,0,1,1.9-2.8,1.8,1.8,0,0,0,.7.4,17.8,17.8,0,0,0-2.5,5.5Zm5.3,11.6v-.3c-7.2-10.3-2.8-16.7-1-18.6v2.5l-.5,3.8c.2.5,1,7.2,1.6,12.5Zm-.2-12.3.2-2.1,2.1.6L506,150v2.1h-1.2Zm1,11.8a4.9,4.9,0,0,1,.5-1.7,3.2,3.2,0,0,1,.7-.9l.5-.3h0s0-7,.1-7.7a34.4,34.4,0,0,1,1-3.8,11.3,11.3,0,0,0,3.6-1.6,6,6,0,0,0-.8,1.3,6.5,6.5,0,0,0-.5,1.9c-.2,1.5-.6,14.5-.5,15.2a8.2,8.2,0,0,0,2.5,4.2h-1.9a11.5,11.5,0,0,1-1.4-2,4.7,4.7,0,0,1-1.1-.4,4,4,0,0,1-1.7-1.1l-.5-.7A5.4,5.4,0,0,1,505.3,161.4ZM456,194.9h-6c-1.9-.8-2.7-2.6-3.8-5.2s-1.6-7.1-1.6-11.6c0-.2,0-.5,0-.7h8.5c0,.1,0,.3,0,.7a32.5,32.5,0,0,0,2.4,13v.2a10.5,10.5,0,0,0,2.4,3.5Zm2.7.5.4.2Zm5.9-5.2c-1.2,2.8-2.7,4.4-4,4.4s-2.6-1.4-3.8-3.8v-.2a35.8,35.8,0,0,1,0-24.9v-.2c1.1-2.5,2.5-3.9,3.8-3.9s2.9,1.7,4,4.4q.4,1.1.8,2.2h-4.6c-4.6,1.2-4.4,17.1,0,19h4.8C465.3,188,464.8,189.6,464.6,190.2Zm-3.2-3.6c-3.3-1.9-3.1-9.1-3.1-9.1h29.8a22.8,22.8,0,0,0,2.1,9.1Zm30.2,0c-2.7-5.1-3.4-13.4.2-17.8h6.5c-3.9,4.5-1.9,15.4,0,17.8Zm14.4,8.2s-2.7.6-3.5-.2a7.9,7.9,0,0,1-.4-2.2l.4-5c0,.3,3.3,6.6,4,7.2Zm.3-7.6h26.8a5.9,5.9,0,0,1-2.6,1.5c-.9,0-12.8,1.6-18.1,1.8C511.8,190.5,507.7,188.1,506.3,187.3Zm31.6,4.8a7,7,0,0,0-2.3-.2l-.9.2a19,19,0,0,1-.2,8.5c.1-1.1.1-2.2.1-3.2s-.1-1.5-.1-2.3-.2-2.5-.2-2.5h-.5l-2.5.2a120.9,120.9,0,0,0-23.2,1.4l-1.1.3a4,4,0,0,1-.2-3.3l2.8,1.3c6.4-.5,21.5-2.3,24.5-2.6a5.5,5.5,0,0,0,1.5-2.4v-.3h8.1a11.2,11.2,0,0,1,1.9,1.6h0a2.5,2.5,0,0,1,.8,1.5v.2a18,18,0,0,0-3.3.3s-1.7-.1,2.5-2.1c-.1,0-5.2,1.4-6.3,2.6S538.5,192.2,538,192.1Zm4.8,10.1s-1.9,0-4.4-2.3c0,0,1.5-4.7,0-6.8,0,0,3.1-2,6.2-.5C544.5,192.5,545.1,199.8,542.7,202.1Zm6.1,2.9c-.1.4-.8.5-1.5.3h-.7c-.3-.2-.5-.5-.4-.8s.4-.4.8-.4h.7C548.5,204.1,549,204.6,548.9,205Zm.7-3.6c-.1.4-.8.5-1.5.2h-.3c-.5-.3-.9-.7-.8-1s.6-.4,1.2-.3h.3C549.3,200.6,549.7,201,549.6,201.4Zm.9-3.9c-.1.4-.8.7-1.5.5h0c-.7-.1-1.3-.6-1.2-1s.8-.7,1.5-.5h1.3Zm-.8-3.6c-.8,0-1.4-.3-1.4-.7s.6-.7,1.4-.7,1.4.3,1.4.7S550.6,194,549.8,194Zm6.4,16c.2.7.1,1.5-.2,1.8h-.8c.5-.8-.1-3.1-.9-3.1s-.2-.3-.2-.9l.9.2a1.9,1.9,0,0,0,.1.4c.1.2.2.3.3.3S556,209.2,556.1,210Zm-.8-5.1-.9-.2.3-1.3h1Zm1.1-4.1h-1l.2-.7h1Zm2.1-3.7h-.8l.8-.2h.5Zm.3-6.4a.9.9,0,0,1,.9-.9H561l-.2,1h-2Zm7.3,3.5a1,1,0,0,1-1,1h-5.5a.7.7,0,0,1-.8-.7v-.9h2.3a2.9,2.9,0,0,0,.9.6h1.2v-.8h1a1.3,1.3,0,0,0,1.3-1.3V192a1.3,1.3,0,0,0-1.3-1.3h-.5a3.2,3.2,0,0,1,1-.9h.9c.5.1.6.5.6,1Zm-3.3-.7v.5h-.9v-.5Zm-.4-2.8a3.8,3.8,0,0,1,.8-1h.9a2.8,2.8,0,0,0-.9.9Zm5.8,4.4h-.1l-.3.4h-.8c.9-.9,2.4-5.6,3.1-8.4h.9l-.5,1.8-.8,2.2-.8,2.2-.5,1.1Zm.4-.1v-.3l.5-1.1.8-2.2v-.2l.3-.8.4-1.2a82.1,82.1,0,0,0,8.4,6.1l-1.1,1.5a.7.7,0,0,0,0,.8,6,6,0,0,1,1.1,1.7l.2.8Zm2.7-7.5v-.2h12.9a15.5,15.5,0,0,1,1.3,4.2,29.2,29.2,0,0,0-4.6,1.9C579.4,192.4,574.5,189.6,571.4,187.5Zm16.6,8-2.5-.5c-.9-.2-1.2-1.4-1-2.3s.8-.7,1.3-.7a3.6,3.6,0,0,1,.1.7c0,.9,1.4.8,2.1,1.4A5.3,5.3,0,0,1,588,195.5Zm6.1,8.6h0Zm1.6-7.2-.7-.2.2-.4h1Zm1.7-4.2H596c.7-1.3,2.5-4.2,2.6-5.3h1.2A13.1,13.1,0,0,1,597.3,192.7Zm-97.4-6c-2.4-2.1-2.5-9.1-2.5-9.1l119.8.2a43.8,43.8,0,0,0,.9,8.9Zm121,4.2c-1.5,0-3.2-5.8-3.2-13.6h9.6c0,5.9,1.1,11.9,2.9,13.5Zm10.4-3.2c-1.3,0-2.3-4.6-2.3-10.4s1-10.4,2.3-10.4,2.3,4.6,2.3,10.4S632.6,187.6,631.3,187.6Z" fill="#303740"/><path d="M0,0V156.4H433.7a114.6,114.6,0,0,1,216.7,0H768V0Z" fill="#303740"/><path d="M0,329.2V236H433.7a114.6,114.6,0,0,0,216.7,0H768v93.2Z" fill="#303740"/></g></g></svg>