<svg id="Layer_1" data-name="Layer 1" xmlns="http://www.w3.org/2000/svg" width="1920" height="304.99" viewBox="0 0 1920 304.99"><title>footer_callsign</title><g id="BT_SECTION_PATTERN_CALLSIGN"><path d="M0,30.75V155.34H1008.81A187.49,187.49,0,0,1,1056,30.75Z" fill="#303740"/><path d="M1338.08,30.75a187.49,187.49,0,0,1,47.16,124.59H1920V30.75Z" fill="#303740"/><path d="M1373.67,220.45a188.26,188.26,0,0,1-40.73,65.09H1920V220.45Z" fill="#303740"/><path d="M0,220.45v65.09H1061.11a188.26,188.26,0,0,1-40.73-65.09Z" fill="#303740"/></g><path id="SINGLE_COLOR" d="M1352,96.11h-16.58c-2.08,0-3.7,3.41-4.76,8.33l-69.59-.21,0-9.2h6.19V94.9c.55,2.74,12.51,4.93,27.2,4.93.68,0,1.29-1.09,1.74-2.85a29.51,29.51,0,0,0,.72-6.88c0-5.37-1.1-9.73-2.45-9.73-14.78,0-26.75,2.14-26.75,4.77V85h-6.61l0-3H1247.4v1.92h-2.69l-3.27-12.33h-11.6l-3.09,12.33H1224V82h-12.89v3.25l-15.62,0h-.07a3.6,3.6,0,0,0-.23-.7h0v0a3.36,3.36,0,0,0-.61-.93h0a1.9,1.9,0,0,0-1.32-.69h-.06l-3.45.07h-.32c-2.1,0-3.74,3.1-3.74,7.07s1.64,7.07,3.74,7.07h3.83c.54,0,1.31-.37,1.94-2.1h16.36l.56,9.14h-9.48c-.74-.54-1.47-1.06-2.19-1.53-3-1.11-10.35-1.7-15.82,1.21.12-7.52-1.22-17.92-2.16-18.58-.56-.4-.64-1.83-.71-3.35a26.36,26.36,0,0,0-.28-3.06c-.07-.44-2.81-11.61-2.81-11.61,3.43-3,10.6-.48,12.59,12.21.71-26.35-12.87-23.53-15.62-20.78.61-1.09,4-5.57,12.71-4.13a20.33,20.33,0,0,0-13.67.32c0-1.28,0-1.91,0-1.91,0-4-11.59-6.9-14.75-1.66a9.77,9.77,0,0,0-.49,2.31,20.76,20.76,0,0,0-2.37.95,26,26,0,0,0-2.55-.87c-5.44-.63-12.38,3.13-13.57,8.42-.79.66-2.15,2-2.15,2a14.39,14.39,0,0,1-1.5-1.08l-1.44-1.23.17-.12c-.66-.6-.12-.25-.12-.25.33-4.95,4.66-7.4,7.9-10.91,7.9-11.76-1.83-30.08,2.07-40.59-4.42,11.88-12.33,12-14.51,24.77,2.55-17.15-5.38-22.35-7.62-34.66-.83,9.48-10.07,20.53-7.24,27.07-5.37-11.8-15.54-13.74-24.26-23.73,1.49,8.37,4.51,25.38,13.72,30.45-14.37-7.41-17.85-3.35-34.9-9.44,11.25,9.27,6.3,15.79,25.73,21-10.19-2.59-16.33,1.16-29.26,6.22,16.62-3.08,20.09,2.54,30.74,3-13.82.24-15.42,6.73-29,18.16,11.36-7.65,22-6.87,32.29-7.8-5.69,3.82-10.77,13.19-19.32,15,7.37,3.1,26.23-6.53,30.41-8.95-12.92,7.93.78,20.33,1.55,22.19-.74-15,7.09-12.81,13.56-18.41l1,.19c1.54,1.26,3.07,2.47,4.56,3.64l.18.14a8.46,8.46,0,0,0,0,.9c-.31,19,10.34,24.5,10.5,24.58l-63.92.25a42.85,42.85,0,0,0-1.58-4.49c-2.06-4.92-4.83-8.12-7.92-8.6h-.06l-.29,0h-.08l-.38,0h0l-16.86.11h-.33a5.56,5.56,0,0,0-.65.08,6,6,0,0,0-1.26.38,8.29,8.29,0,0,0-2.4,1.59,13,13,0,0,0-1.39,1.52,17.68,17.68,0,0,0-1,1.48,25.49,25.49,0,0,0-1.87,3.6,45.61,45.61,0,0,0-3.71,19.12c0,.17,0,.34,0,.52h0c0,.4,0,.8,0,1.2,0,16.26,5.67,29.48,12.65,29.48l15.86-.1a5.27,5.27,0,0,0,1,.1,6.64,6.64,0,0,0,4.57-2.1,19.15,19.15,0,0,0,4.37-6.65c.57-1.34,1.48-4.13,1.94-5.72h40.7a156.34,156.34,0,0,0,.68,18.76c.79-2.49,5-9,15.2-7-11.58,3.15-14.06,13.2-14.07,13.93,1.19-1.19,4.25-6.94,16.11-9.52-5,5.69-4.7,10.93-4.16,12.17.61.09,2.76,0,2.76,0s5.17-6.16,5.57-6.66c18.67,1.33,36.41-4.06,37-4.06s.35,3.66.35,3.66,4.15-7,4.72-6.47,2,7.14,2,7.14c.27-.42.79-1.36.79-1.36a77.48,77.48,0,0,0,1.49-8.86,6,6,0,0,1,1.47,4l1,8.68a7.34,7.34,0,0,0,1.7.38c1.78.24,3.38-.07,3.79-1.12l7.08,4.16s1.68,1.49,7.27,3.38a8.55,8.55,0,0,0-.32,1.78c0,3,11.88,8,13.93,8h.17l1.2-.07a96.83,96.83,0,0,0-15.3,6.38c-.38.53-9.89,8.5-12.37,11.9h0q-2.24,1.56-4.35,3.29l-1.52,1.25s5.87-9.5,6.25-9.87a14.12,14.12,0,0,0,2.44-4.27c-1.56-2.76-6.56-7.42-11-8.31-3,.4-4.06,0-9.79,3.42,0,0-.84-3.52-.84-4.17a20.89,20.89,0,0,0,6.87-3.13,53.58,53.58,0,0,0,.79-7.15c-8.12-.73-22.83,3.2-26.94,6.26-1.61,0-4.23-2.16-6.09-4.43-.56.05-1.12.1-1.67.13,1.83,3.58,7.1,14.92,8.41,17.15a26.63,26.63,0,0,0-4,9.75c-.46,1.47-1.31,9-.81,9.67l-3.9,6.5c-.68.81-24.12,37.17-23.85,58.13a40,40,0,0,0,.29,7,.38.38,0,0,0,.07.18,12,12,0,0,0,1.51,1.5,17.93,17.93,0,0,0,2,1.6,27.07,27.07,0,0,0,4.47,2.49,26.8,26.8,0,0,0,4.88,1.68,15.17,15.17,0,0,0,2.65.4,7.7,7.7,0,0,0,1.47-.05,4.38,4.38,0,0,0,.82-.19,2.9,2.9,0,0,0,.91-.48,2.3,2.3,0,0,0,.23-.2l.09-.09.05-.06.21-.23.42-.46.84-.92.42-.46a1.11,1.11,0,0,0,.4.57,14.77,14.77,0,0,0,1.61.55l.72.19v0l.47.14a18.23,18.23,0,0,0,2.64.55,16.19,16.19,0,0,0,3.58.09,10.84,10.84,0,0,0,2.07-.4l.27-.08.26-.1c.17-.07.36-.13.53-.22l.53-.27.5-.3a23.59,23.59,0,0,0,3.92-3.13c1.27-1.23,2.49-2.61,3.74-4a24.12,24.12,0,0,0,3.56-4.86,10.12,10.12,0,0,0,1-3,16.45,16.45,0,0,0,.15-3c0-1-.09-1.89-.09-2.76a12.22,12.22,0,0,1,.19-2.47,4.69,4.69,0,0,1,.14-.57c.06-.18.09-.37.16-.55a10,10,0,0,1,.44-1.06,15.26,15.26,0,0,1,1.13-2c.84-1.24,1.73-2.36,2.51-3.44a21,21,0,0,0,1.92-3.08l.17-.36.15-.36a7,7,0,0,0,.26-.68l.2-.63a4.15,4.15,0,0,0,.12-.6,2.73,2.73,0,0,0-.07-1.87.58.58,0,0,0-.2-.2l.27-.39a11.09,11.09,0,0,0-1.21-2.07c-1.79,2.56-3.69,5.06-5.64,7.51-1,1.3-2.07,2.57-3.11,3.86l-3.16,3.82-3.21,3.79-3.24,3.76-3.26,3.75-3.28,3.74c-2.19,2.49-4.37,5-6.57,7.46l-4.35,3.27a.54.54,0,0,1-.19.1,2,2,0,0,1-.39.1,5.35,5.35,0,0,1-1,.07,14.17,14.17,0,0,1-2.28-.25,31.91,31.91,0,0,1-9-3.23,11,11,0,0,1-3.31-2.3,10,10,0,0,1-1.1-3.75,4.68,4.68,0,0,0,.36.36s1.49.91,2.23,1.33c.36.23.74.41,1.11.61l.57.26.1,0v0c.06-.64.14-1.27.22-1.91s.17-1.26.26-1.89.18-1.26.29-1.88c.21-1.25.43-2.49.69-3.73l.38-1.86.42-1.84.44-1.84.48-1.83c.32-1.22.63-2.44,1-3.64s.71-2.41,1.11-3.61l1.22-3.57c.4-1.19.88-2.35,1.32-3.53l.68-1.76c.23-.58.48-1.16.73-1.73l1.49-3.45c.53-1.14,1.08-2.26,1.62-3.39,1.06-2.27,2.29-4.45,3.49-6.64s2.56-4.29,3.89-6.4l.55.29c-.44,1.17-.9,2.32-1.35,3.47l-.7,1.72c-.12.29-.24.57-.35.86l-.32.87c-.42,1.17-.86,2.32-1.3,3.47s-.85,2.31-1.25,3.48-.82,2.32-1.22,3.48l-1.13,3.51c-.18.59-.39,1.16-.56,1.75l-.52,1.76-.52,1.76c-.18.59-.36,1.17-.52,1.76-1.32,4.72-2.48,9.46-3.44,14.24l-.37,1.79-.32,1.8c-.23,1.2-.4,2.4-.6,3.59-.1.6-.18,1.2-.26,1.8s-.17,1.2-.23,1.8-.14,1.2-.2,1.79c0,.29,0,.61-.3.87l0,0,.44.06a22.8,22.8,0,0,0,4.87.08,22.27,22.27,0,0,0,2.39-.35c.39-.08.78-.17,1.15-.28l.1,0a95.32,95.32,0,0,0,8.21-9.28c12.26-12.55,31.31-35.09,30.32-38s-5.45-6.47-5.79-6.8a6.89,6.89,0,0,0-1.41-1,9.08,9.08,0,0,0-1.64-.7,7.67,7.67,0,0,0-.86-.23,6.75,6.75,0,0,0-.87-.14h0a8.54,8.54,0,0,1,1.93-.34,11.57,11.57,0,0,1,1.92.09,9.19,9.19,0,0,1,1.86.65c.53.24,1,.5,1.57.73a5.24,5.24,0,0,1,1.49.72c.35.21,3.36,3,3.65,3.22-.5-.68-3.39-4.37-4.33-4.52-.59-1.57-3.49-2.5-4-2.74,0,0,5.71-.63,11.09,4.45.73-1.47,6.76-4.61,8.05-4.84a21.28,21.28,0,0,1,.75-6.64,50.08,50.08,0,0,1,.64-5.06,16,16,0,0,1,.6-1.84h0l.77-2.13-.16,2.25a11.57,11.57,0,0,0,0,1.73q.08.87.24,1.73t.4,1.71c.16.56.33,1.13.53,1.67l0,.06v.06a35.56,35.56,0,0,0,0,3.59c0,.11,0,3.31,0,3.42,0-.17,0-3.42,0-3.59.07-.63.15-1.26.24-1.89.05-.31.09-.63.15-.95s.1-.57.17-.88-.06-.37-.09-.55,0-.41,0-.61,0-.4,0-.61a5.47,5.47,0,0,1,.06-.6,14.58,14.58,0,0,1,.54-2.31c.11-.38.24-.75.37-1.12s.28-.73.43-1.09a23,23,0,0,1,1-2.13h0l1-2.05-.43,2.27a15.42,15.42,0,0,0-.29,2.19,13.83,13.83,0,0,0,0,2.2,13.4,13.4,0,0,0,.38,2.15c.09.35.2.7.32,1,.06.18-.81,5.31.28,6.19,17.12-3.27,25.95-8,25.95-8s8.43-4,12.31-8.42c.4-.5,1.07-7.3,1.28-8.36.12-.61.26-1.21.42-1.8s.34-1.18.56-1.77h0l.69-2-.08,2.08c-.06,1.74-.09,3.49,0,5.23,0,.44,0,.87.08,1.3l.05.65,0,.32,0,.32.19,1.35c.18-.46.38-.92.61-1.36a23.16,23.16,0,0,1,1.4-2.4q.77-1.15,1.64-2.23a27.37,27.37,0,0,1,1.85-2.07h0l1.47-1.46-1,1.83-.75,1.4-.72,1.41c-.45,1-.89,1.91-1.3,2.88s-.81,1.94-1.17,2.93c-.15.41-.29.82-.43,1.23a11.62,11.62,0,0,1,1.15-1.22,16,16,0,0,1,2.82-2.1,17.77,17.77,0,0,1,3.17-1.49l.83-.27.85-.22a10.74,10.74,0,0,1,1.74-.27h0l1.9-.44-1.64,1c-.89.54-1.75,1.13-2.59,1.73s-1.67,1.24-2.47,1.89-1.6,1.31-2.35,2c-3.43,2.07-5.61,2.85-6.71,5.77a25.73,25.73,0,0,0-.07,7.45,49.69,49.69,0,0,0,1,5.2c.41,1.71.92,3.39,1.48,5s1.17,3.29,1.82,4.9q.49,1.21,1,2.41l1,2.38c1.38,3.17,2.82,6.31,4.26,9.45l.15-.06c.21.8.42,1.59.66,2.38l.47,1.62.5,1.61c.6,1.88,1.23,3.76,2,5.59l-.71.22c-.63.21-1.29.47-2,.76l.15,0a2.17,2.17,0,0,0-.86.28,3,3,0,0,0-.62.5,4.18,4.18,0,0,0-.46.57,5,5,0,0,0-.36.62l-.12.24.21.12h0l1,.58.06,0h.07a2.81,2.81,0,0,1,.58.07,2.38,2.38,0,0,1,.55.19,2.43,2.43,0,0,1,.49.31,2.26,2.26,0,0,1,.38.4,41.12,41.12,0,0,1,1.78,4.48c.5,1.54.95,3.09,1.3,4.67s.67,3.17.91,4.77.44,3.21.55,4.82v.06l0,0,.58,1.08a10.42,10.42,0,0,0-.59,1.22c-.19.46-.36.92-.52,1.39v.09l.59,14.57v.08l0,0v0a3.18,3.18,0,0,0,1.09,1.87,5.57,5.57,0,0,0,1.9,1.06,8.55,8.55,0,0,0,2,.41,9.35,9.35,0,0,0,1,0s0,.08,0,.11a6.09,6.09,0,0,0,.05,1.06,5.91,5.91,0,0,0,.24,1c.06.17.12.34.2.51l.12.26.07.14,0,.07,0,.06a5.9,5.9,0,0,0,1.81,2,8,8,0,0,0,2.33,1.09,14.6,14.6,0,0,0,4.69.48c.38,0,.77,0,1.15-.09l.59-.08.1,0h.07l.13,0,.26-.05,2.11-.43,4.21-.89c1.4-.29,2.8-.6,4.2-.91s2.8-.61,4.2-.95c2.8-.65,5.59-1.31,8.37-2l.2-.05v-.17h0a7.61,7.61,0,0,0,0-1.4c0-.45-.1-.9-.15-1.35-.12-.89-.28-1.78-.44-2.66q-.49-2.64-1.1-5.25a1.88,1.88,0,0,0-.53-1.18,4.51,4.51,0,0,0-1-.78,8.89,8.89,0,0,0-1.07-.56,11.11,11.11,0,0,0-1.13-.43h0l-3.28-.58-.82-.15a26.69,26.69,0,0,1-2.9-1.3h.05s-.66-.73-1.58-1.76h0A14.69,14.69,0,0,0,1289,279a27.66,27.66,0,0,1-2.76-3.58l-.09,0v0l.1,0s-1.69-3.91-3.56-18.17a17.61,17.61,0,0,1,4.84-5.79,25,25,0,0,0-6.07-1.77l-.63-5.65c-3.73-59.19-5.13-62.71-5.13-62.71a30.36,30.36,0,0,0-5.64-5.57c.24,1.36.55,3,.83,3.89.07.21.14.43.21.69.12.46.22.93.31,1.4,0,.24.08.47.11.71s0,.36.07.56a27.07,27.07,0,0,1,.59,2.83,24,24,0,0,1,.32,2.9c.14,1.93.26,3.86.31,5.78s.08,3.85.07,5.77,0,3.84-.1,5.76l-1.37,1.36c-.09-3.82-.31-7.64-.66-11.44-.19-1.9-.38-3.79-.69-5.66-.21-.93-.31-1.86-.5-2.78s-.72-5-.81-5.45l0-.12a34.25,34.25,0,0,0-1.22-7.41,3.75,3.75,0,0,0-1.63-1.28l-.62-.18c-5.5-2.47-20.69-1.64-36.34,3.12a4.73,4.73,0,0,0,0-2.86c-.26-1.11-.64-2.39-1.5-2.39-.08,0-.14-.24-.18-.56a2.43,2.43,0,0,0,2.23-2.19c.28-1.41-.34-2.75-1.39-3l-.41-.09c.14-.76.3-1.57.51-2.42l1.81.16c.91.08,1.74-.86,1.83-2.07l0-.2a2,2,0,0,0-1.47-2.35l-.75-.06q.23-.56.49-1.09l2.68.23c1,.08,1.9-1,2-2.45a3.45,3.45,0,0,0-.25-1.61l-.19-.36a1.73,1.73,0,0,0-.74-.67,3.42,3.42,0,0,1,2-1l3.3-.35.87-.09.3,0h0l.15,0c.58-.08,1-.11,1.5-.16,1.54-.16,2.94-.3,3.62-.35l2.53-.17a.69.69,0,0,0,.41-.23l.27-.44,0-.06c2.16,1.09,16.7,8.48,18.83,9.63l.34,1.29.3.46c2.18,3.15,10.14,5.47,10.71,5.63-.28,1.88-.47,3.22-.47,3.54,0,1.38,10,3.62,12.91,3.62a2.23,2.23,0,0,0,.37,0v0l1.63-.32a1.63,1.63,0,0,0,1.37-.8c.78-1.36-.42-3.91-.57-4.19l-.31-.43a2.36,2.36,0,0,1,0-.63,2.69,2.69,0,0,0-1.89-3.29c0-.07,0-.14,0-.22a2.93,2.93,0,0,0,3.16-2.51,3.07,3.07,0,0,0-1.76-3.41,3.06,3.06,0,0,0,1.39-5.57,7.79,7.79,0,0,1,1-1.12h.12a3.18,3.18,0,0,0,3.43-2.9c.07-1,.28-2.29-1-2.75,1.48-1.37,4-7.21,4-9.64l28.86,0c1.07,4.18,2.59,7,4.47,7h17.1v-.05c2.31-.52,3.72-4.46,4.52-7.79a73,73,0,0,0,1.65-16.09C1358.47,104.82,1355.88,96.11,1352,96.11Zm-57.59-13.35c.75,0,1.35,3.29,1.35,7.35s-.6,7.35-1.35,7.35-1.35-3.29-1.35-7.35S1293.68,82.75,1294.42,82.75ZM1292,90.1a13.69,13.69,0,0,0,1.48,8.63c-12.88,0-26.23-1.8-26.23-4.92V90.1Zm-103.06,6.62c-3-1.2-2.63-6.62-2.63-6.62h4.29s.08,6.19,2.8,6.64C1193.39,96.75,1189.94,96.75,1188.93,96.72Zm4.35-1.69h1.81s-.95,1.33-1.7,1.33l-.11,0c-1.07,0-2.26-3.06-2.26-7.17,0-3.21,1.15-5.45,2.2-5.54a2.48,2.48,0,0,1,1,.13,2.44,2.44,0,0,1,.89,1.44h-1.87C1191.69,86.84,1192.07,93.49,1193.28,95Zm69,158.16h0Zm23.3,22c.13.18.6.9.83,1.19-2.92-.85-9.56,1.12-12.15,3,0,0,1.34,1.39,1.69,1.74,2-1,6.3-3.65,11.78-3.06l.79,1c-2.47-.16-8.62,1.55-11.21,3.57,0,0,1.48,1.61,2.38,2.46,0,0,6-3.49,11.3-3.17.47.52,1,1.05,1.47,1.57l-.45-.07c-2.44-.39-8.38,1.88-10.68,3.29-.05.33,0,.9-.08,1.11-.45.18-.85.35-1.16.49-2.22-2.22-7.59-7.82-7.59-7.82,0-.33.25-.87.27-1.22,1.52-2,9.56-4.58,12.23-4.06Zm-.83-2.09-.43,0c-3-.23-7.91,1.11-10,3.06a5.7,5.7,0,0,1-.84-2.77,4.66,4.66,0,0,1,3.19-1.48l.38.87c.93-.61,4.8-1.22,5.77-1.27,0-.32-.07-.78-.14-1.32l.61,0a5.69,5.69,0,0,1,.73-.09s0-.09,0-.13C1284.2,271.07,1284.46,272.16,1284.72,273.05Zm-1.07-4.74a4.54,4.54,0,0,0-.86-.15h0c-3-.3-7.73.75-9.89,2.52a5.7,5.7,0,0,1-.69-2.82c.8-.8,2.37-1,3.27-1.3l.33.89c1-.56,4.87-.95,5.84-.95,0-.32,0-.78-.06-1.33.21,0,1.09.06,1.55.09C1283.31,266.31,1283.48,267.34,1283.66,268.31Zm-9.2-7.61.33.89c1-.56,4.87-.95,5.84-.95,0-.32,0-.78-.06-1.33a5.9,5.9,0,0,1,1.49,0l.28.07c.13,1,.26,2.07.41,3.13l-.28-.09c-2.93-.5-8.25.51-10.59,2.42a5.7,5.7,0,0,1-.69-2.82A4.9,4.9,0,0,1,1274.46,260.7Zm-4,36.39v0l0-.09,0,.14Zm22.51-128.27h0c.34.78,1.12,2.68.68,3.44a.87.87,0,0,1-.78.41l-.13,0a6,6,0,0,0-.62-3.33A3,3,0,0,0,1292.93,168.83ZM1260.3,82.66l.06,2.32h-4.9l0-2.32Zm0,21.57h-4.77V95h4.74Zm-19.46-31.9,3.06,11.56h-4.77l-2.77-11.56ZM1224,96.59l23.36-.08v7.72H1224Zm-5.23-14h4.38v1.27h-4.38Zm-.45,14h4.9v7.63h-4.9Zm-42.54-20.8a41.53,41.53,0,0,0,.88-4.19c1.74,2.4,2.38,6,2.66,6.95a33.05,33.05,0,0,1,.59,3.37c.09,1.84.17,3.3,1,3.93.58.81,2,10,1.86,17.8l-14.78.16c-2.38-6.71-6.4-17.73-5.57-19.64a28.19,28.19,0,0,0,5.33,3.62,37.22,37.22,0,0,1-6.64-12C1161,74,1161,73,1161,72.95v0c-.1-.59.53-1.35,1.68-2a15.07,15.07,0,0,1,4.73-1.66l.72,0s0,0,0-.11h0l-.07-.38a.05.05,0,0,0,0,0,6.19,6.19,0,0,1,2.91-1.17,3.62,3.62,0,0,1,2.26.74C1174.24,69.15,1174.49,69.73,1175.82,75.8Zm-8.23-26.19c3.23.35,5.72,1.85,5.56,3.37s-2.91,2.46-6.15,2.11-5.72-1.85-5.56-3.37S1164.36,49.26,1167.59,49.6Zm-5.21,7.8c1,1,3.66,1.48,6.23,1.3a18.67,18.67,0,0,0-3.88,5.37c-.17.27-4.27-1.22-7.79.72,1.81-1.87,2.59-3.76,2.5-4.83-.09-.63-.11-1.42-.11-1.42A9.32,9.32,0,0,1,1162.39,57.4Zm-13.81-1c3.8-1.73,7.74-1.19,8.8,1.22s-1.16,5.75-5,7.48-7.74,1.19-8.8-1.22S1144.78,58.09,1148.58,56.36Zm-14.66,18.22c-.19.6-.37,1.21-.52,1.83a9.38,9.38,0,0,0-.17,1c0,.32-1.79-2-3-3.28a1.26,1.26,0,0,1,0-.16c0-.12,0-.26,0-.39a7.86,7.86,0,0,1,0-.81,9.49,9.49,0,0,1,.23-1.66,13.16,13.16,0,0,1,1.21-3.22,19.33,19.33,0,0,1,1.92-2.95c.26-.33.58-.76.89-1.18a4.36,4.36,0,0,1,1.45-.71l1,.51a22.17,22.17,0,0,0-2.86,5.13,24.27,24.27,0,0,1,3.16-4.67,3,3,0,0,0,1.19.6,29.42,29.42,0,0,0-4.17,9.05C1134.13,73.94,1134,74.26,1133.92,74.57Zm8.74,19.25-.06-.57c-12-17-4.68-27.6-1.71-30.82a7.1,7.1,0,0,0-.1.78l.09,3.44-.8,6.23c.41.84,1.72,12,2.64,20.65C1142.7,93.64,1142.67,93.73,1142.66,93.83Zm-.31-20.31.37-3.4,3.54,1-1.06,3-.19,3.51-1.9-.08Zm1.72,19.54a8.2,8.2,0,0,1,.77-2.74,5.3,5.3,0,0,1,1.23-1.43l.78-.51-.19.08.13-.09s0-11.59.24-12.77a56.93,56.93,0,0,1,1.72-6.27,18.66,18.66,0,0,0,6-2.69,9.92,9.92,0,0,0-1.32,2.18,10.77,10.77,0,0,0-.75,3.18c-.3,2.56-1,24.05-.77,25.1a13.64,13.64,0,0,0,4.08,7l.1.06h-3.21a19,19,0,0,1-2.38-3.26,7.8,7.8,0,0,1-1.86-.63,6.69,6.69,0,0,1-2.76-1.79,5.5,5.5,0,0,1-.8-1.11A9,9,0,0,1,1144.06,93.06Zm-81.74,55.53-9.9.05c-3.23-1.25-4.46-4.38-6.24-8.53-2.23-5.19-2.72-11.8-2.72-19.25,0-.4,0-.8,0-1.2h14c0,.16,0,.52,0,1.15-.06,8.51,1.51,16.19,3.93,21.59l.16.35a17.34,17.34,0,0,0,4.05,5.83C1064.35,148.61,1062.32,148.59,1062.32,148.59Zm4.45.81q.29.18.59.33A1.49,1.49,0,0,1,1066.77,149.39Zm9.77-8.57c-1.91,4.58-4.41,7.31-6.69,7.31-2.11,0-4.39-2.3-6.25-6.31l-.15-.33c-2.37-5.3-3.74-12.84-3.74-20.69s1.34-15.29,3.69-20.58l.15-.33c1.87-4.08,4.16-6.42,6.3-6.42s4.77,2.73,6.69,7.31q.74,1.76,1.32,3.65h-7.16l-.42,0h0c-7.66,2-7.31,28.25.05,31.39,2.08,0,7.88,0,7.88,0C1077.81,137.18,1077,139.69,1076.54,140.82Zm-5.25-6c-5.5-3.18-5.12-15-5.12-15l49.33,0c-.19,6,2.38,12.57,3.55,15.11Zm50,.07c-4.41-8.41-5.63-22.25.27-29.47h10.69c-6.44,7.37-3.09,25.48,0,29.48Zm23.85,13.6s-4.51.92-5.87-.35a13.15,13.15,0,0,1-.69-3.59s.44-5.1.71-8.2c.07.43,5.44,10.92,6.63,11.9Zm.55-12.65h44.35a9.8,9.8,0,0,1-4.38,2.41c-1.43,0-21.21,2.69-29.89,2.93C1154.82,141.19,1147.89,137.2,1145.71,135.86Zm52.36,8a11.52,11.52,0,0,0-3.77-.31,3.79,3.79,0,0,0-1.48.31,31.39,31.39,0,0,1-.27,14.16c.13-1.79.15-3.58.11-5.37,0-1.25-.09-2.5-.17-3.75s-.37-4.06-.37-4.06a2.23,2.23,0,0,0-.8,0l-4.09.29a200.12,200.12,0,0,0-38.34,2.39c-.06,0-.72.16-1.8.46-1.12-2.29-.91-4.92-.38-5.51l4.61,2.22c10.63-.9,35.59-3.89,40.51-4.27a9.06,9.06,0,0,0,2.49-4l.17-.49h13.35a18.48,18.48,0,0,1,3.11,2.6h0a4.14,4.14,0,0,1,1.32,2.54c0,.13,0,.27,0,.4a29.79,29.79,0,0,0-5.53.52s-2.77-.16,4.19-3.46c-.16,0-8.55,2.28-10.5,4.23C1200.44,142.7,1199,144.13,1198.07,143.83Zm7.93,16.69s-3.09,0-7.34-3.82c0,0,2.5-7.86,0-11.29,0,0,5.19-3.28,10.3-.89C1209,144.52,1209.83,156.7,1206,160.52Zm10.12,4.72c-.18.64-1.27.9-2.44.57l-.27-.09-.06,0-.24-.1h0l-.26-.13h0l-.23-.15c-.53-.37-.83-.84-.72-1.25s.64-.68,1.32-.71a3.43,3.43,0,0,1,.53,0h0l.22,0h.07l.27.06C1215.49,163.83,1216.3,164.61,1216.12,165.25Zm1.23-5.94c-.21.6-1.31.76-2.45.36a3.77,3.77,0,0,1-.44-.18c-.89-.43-1.43-1.11-1.25-1.62s1-.7,1.94-.5l.24.06h0l.25.08C1216.8,157.9,1217.56,158.7,1217.35,159.3Zm1.53-6.42c-.12.7-1.26,1.08-2.53.85l-.08,0c-1.23-.25-2.12-1-2-1.66s1.26-1.08,2.53-.85l.14,0,.22.05.21.06h0l.19.07h0l.18.08h0l.16.08h0l.15.08,0,0,.13.08,0,0,.11.08,0,0,.09.08,0,0,.07.08,0,0,.06.07,0,.05,0,.07,0,.06,0,.07a.56.56,0,0,1,0,.07l0,.06a.71.71,0,0,1,0,.08s0,0,0,0A.85.85,0,0,1,1218.88,152.88Zm-1.24-5.92c-1.3,0-2.36-.5-2.36-1.11s1.06-1.11,2.36-1.11,2.36.5,2.36,1.11S1218.94,147,1217.64,147Zm10.55,26.52c.28,1.2.22,2.57-.4,2.92l-1.27,0c.84-1.32-.12-5.07-1.41-5.07-.26,0-.38-.54-.39-1.45l1.56.33a3.23,3.23,0,0,0,.08.64c.11.41.31.5.46.5C1227.33,171.39,1227.91,172.28,1228.19,173.49Zm-1.32-8.46-1.53-.32c.13-.69.28-1.41.46-2.13l1.58.13C1227.18,163.51,1227,164.28,1226.87,165Zm1.87-6.86-1.62-.14c.13-.37.27-.74.41-1.09l1.62.14C1229,157.43,1228.88,157.8,1228.74,158.17Zm3.47-6.07-1.4-.12a2.38,2.38,0,0,1,1.28-.41h.88A4,4,0,0,0,1232.21,152.1Zm.47-10.54a1.47,1.47,0,0,1,1.5-1.44h2.06s-.19.84-.31,1.63l-3.26,0Zm12.17,5.86a1.63,1.63,0,0,1-1.64,1.58l-9.17.14a1.24,1.24,0,0,1-1.29-1.19l0-1.53,3.76-.06.12.12a4.75,4.75,0,0,0,1.46,1.07H1240c-.08-.43-.14-.85-.18-1.25l1.61,0a2.12,2.12,0,0,0,2.15-2.08v-.47a2.12,2.12,0,0,0-2.15-2.08h-.79a5.3,5.3,0,0,1,1.73-1.55l1.48,0c.82.16,1,.91,1,1.73Zm-5.49-1.11a7.59,7.59,0,0,0,.16.78H1238q-.08-.38-.13-.75Zm-.6-4.61a6.26,6.26,0,0,1,1.29-1.58h1.52a4.57,4.57,0,0,0-1.52,1.56Zm9.66,7.23c-.07.14,0,0-.08.15-.25.38-.45.6-.58.6h-1.31c1.42-1.57,4-9.3,5.1-13.83h1.52c-.26,1-.56,2-.87,3-.39,1.24-.81,2.47-1.25,3.69s-.89,2.44-1.37,3.65c-.24.6-.48,1.21-.75,1.8Q1248.63,148.5,1248.42,148.93Zm.62-.24.23-.52c.26-.6.51-1.2.75-1.81.48-1.21.93-2.44,1.37-3.66l.11-.32c.09-.17.43-1.22.47-1.36q.33-1,.64-2a135.93,135.93,0,0,0,14,10.07c-.7.9-1.35,1.79-1.82,2.47a1.13,1.13,0,0,0,.05,1.36,9.88,9.88,0,0,1,1.87,2.89s.14.57.33,1.34Zm4.39-12.47.09-.36h21.42c.83,1.25,1.7,4.67,2.12,6.95a48.39,48.39,0,0,0-7.61,3.11C1266.71,144.33,1258.54,139.83,1253.43,136.23Zm27.52,13.28-4.22-.86c-1.49-.36-2-2.27-1.66-3.76.18-.77,1.31-1.11,2.08-1.23a6,6,0,0,1,.18,1.11c0,1.43,2.33,1.25,3.47,2.33A8.79,8.79,0,0,1,1280.95,149.51Zm10,14.21-1.2-.25c0-.06,0-.13,0-.19l1.2.25Zm2.63-11.87-1.22-.36c.11-.22.22-.41.33-.59l1.58.09A8.56,8.56,0,0,0,1293.6,151.85Zm2.77-7h0l-2.22-.18c1.15-2.08,4.13-7,4.3-8.79h2C1300.32,137.93,1297.72,143.61,1296.36,144.84Zm-161.28-9.92c-3.94-3.42-4.21-15.11-4.21-15.11l198.39.3a72.56,72.56,0,0,0,1.54,14.79Zm200.42,6.93c-2.5,0-5.29-9.59-5.31-22.45,6.09,0,10.47,0,15.85.07.05,9.7,1.81,19.78,4.78,22.37Zm17.19-5.34c-2.11,0-3.81-7.69-3.81-17.17s1.71-17.17,3.81-17.17,3.81,7.69,3.81,17.17S1354.8,136.51,1352.7,136.51Z" fill="#303740"/></svg>