<svg id="Layer_2" data-name="Layer 2" xmlns="http://www.w3.org/2000/svg" width="143.2" height="137.1" viewBox="0 0 143.2 137.1"><title>footer_logo</title><path id="SINGLE_COLOR" d="M140.1,43.2h-7.5c-.9,0-1.7,1.5-2.1,3.7H99.2V42.7H102c.2,1.2,5.6,2.2,12.2,2.2.3,0,.6-.5.8-1.3a13.3,13.3,0,0,0,.3-3.1c0-2.4-.5-4.4-1.1-4.4-6.6,0-12,1-12,2.1h-3V36.8H93.1v.9H91.9l-1.5-5.5H85.2l-1.4,5.5H82.6v-.9H76.8v1.5H69.7V38h0l-.3-.4h0a.9.9,0,0,0-.6-.3H67c-.9,0-1.7,1.4-1.7,3.2s.7,3.2,1.7,3.2h1.7c.2,0,.6-.2.9-.9H77l.3,4.1H73l-1-.7a10,10,0,0,0-7.1.5c.1-3.4-.6-8.1-1-8.4s-.3-.8-.3-1.5a11.9,11.9,0,0,0-.1-1.4l-1.3-5.2c1.5-1.3,4.8-.2,5.7,5.5.3-11.8-5.8-10.6-7-9.3.3-.5,1.8-2.5,5.7-1.9a9.1,9.1,0,0,0-6.1.1c0-.6,0-.9,0-.9,0-1.8-5.2-3.1-6.6-.7a4.4,4.4,0,0,0-.2,1l-1.1.4-1.1-.4c-2.4-.3-5.6,1.4-6.1,3.8l-1,.9-.7-.5-.6-.6H43c-.3-.3-.1-.1-.1-.1.1-2.2,2.1-3.3,3.6-4.9,3.6-5.3-.8-13.5.9-18.2-2,5.3-5.5,5.4-6.5,11.1,1.1-7.7-2.4-10-3.4-15.6-.4,4.3-4.5,9.2-3.3,12.2C31.8,6.9,27.3,6,23.3,1.5c.7,3.8,2,11.4,6.2,13.7-6.5-3.3-8-1.5-15.7-4.2,5.1,4.2,2.8,7.1,11.6,9.4-4.6-1.2-7.3.5-13.2,2.8,7.5-1.4,9,1.1,13.8,1.3-6.2.1-6.9,3-13,8.2,5.1-3.4,9.9-3.1,14.5-3.5-2.6,1.7-4.8,5.9-8.7,6.8,3.3,1.4,11.8-2.9,13.7-4-5.8,3.6.4,9.1.7,10-.3-6.8,3.2-5.8,6.1-8.3h.5l2.1,1.6h.1a3.8,3.8,0,0,0,0,.4c-.1,8.6,4.7,11,4.7,11.1H17.9a19.3,19.3,0,0,0-.7-2c-.9-2.2-2.2-3.7-3.6-3.9H5.2l-.6.2L3.6,42l-.6.7-.5.7A11.5,11.5,0,0,0,1.7,45,20.5,20.5,0,0,0,0,53.6v.2H0c0,.2,0,.4,0,.5,0,7.3,2.6,13.3,5.7,13.3h7.6a3,3,0,0,0,2.1-.9,8.6,8.6,0,0,0,2-3c.3-.6.7-1.9.9-2.6H36.5a70.3,70.3,0,0,0,.3,8.4c.4-1.1,2.2-4,6.8-3.1a8.6,8.6,0,0,0-6.3,6.3c.5-.5,1.9-3.1,7.2-4.3-2.3,2.6-2.1,4.9-1.9,5.5h1.2l2.5-3A55.1,55.1,0,0,0,63,69c.3,0,.2,1.6.2,1.6s1.9-3.2,2.1-2.9a20.4,20.4,0,0,1,.9,3.2l.4-.6a34.8,34.8,0,0,0,.7-4,2.7,2.7,0,0,1,.7,1.8l.5,3.9.8.2c.8.1,1.5,0,1.7-.5l3.2,1.9a10.5,10.5,0,0,0,3.3,1.5,3.8,3.8,0,0,0-.1.8c0,1.3,5.3,3.6,6.3,3.6H84a43.5,43.5,0,0,0-6.9,2.9c-.2.2-4.4,3.8-5.6,5.4h0l-2,1.5-.7.6,2.8-4.4a6.3,6.3,0,0,0,1.1-1.9,9.1,9.1,0,0,0-4.9-3.7,7.9,7.9,0,0,0-4.4,1.5s-.4-1.6-.4-1.9a9.4,9.4,0,0,0,3.1-1.4,24.1,24.1,0,0,0,.4-3.2c-3.6-.3-10.3,1.4-12.1,2.8s-1.9-1-2.7-2h-.8c.8,1.6,3.2,6.7,3.8,7.7a12,12,0,0,0-1.8,4.4,15.8,15.8,0,0,0-.4,4.3L50.8,95c-.3.4-10.8,16.7-10.7,26.1a18,18,0,0,0,.1,3.1h0l.7.7.9.7,2,1.1,2.2.8,1.2.2h1l.4-.2h.3l.2-.2.4-.4.2-.2.2.3.7.2h.5l1.2.2h1.6l.9-.2h.9a10.6,10.6,0,0,0,1.8-1.4l1.7-1.8a10.8,10.8,0,0,0,1.6-2.2,4.6,4.6,0,0,0,.5-1.4,7.4,7.4,0,0,0,.1-1.4c0-.4,0-.8,0-1.2a5.5,5.5,0,0,1,.1-1.1v-.5l.2-.5.5-.9,1.1-1.5.9-1.4v-1.2a1.2,1.2,0,0,0,0-.8h-.1v-.2a5,5,0,0,0-.5-.9l-2.5,3.4-1.4,1.7L58.7,115l-1.4,1.7-1.5,1.7-1.5,1.7-1.5,1.7-3,3.4-2,1.5H46.2a14.3,14.3,0,0,1-4.1-1.5,5,5,0,0,1-1.5-1,4.5,4.5,0,0,1-.5-1.7l.2.2,1,.6.5.3h.3V121l.3-1.7.2-.8.2-.8.2-.8.2-.8.5-1.6.5-1.6.5-1.6.6-1.6.3-.8.3-.8.7-1.6.7-1.5c.5-1,1-2,1.6-3L51,99.1h.2l-.6,1.6-.3.8-.2.4v.4l-.6,1.6-.6,1.6-.5,1.6-.5,1.6-.3.8-.2.8-.2.8-.2.8c-.6,2.1-1.1,4.3-1.5,6.4l-.2.8v.8l-.3,1.6v2.4c0,.1,0,.3-.1.4h2.4l1.1-.2h.6a42.9,42.9,0,0,0,3.7-4.2c5.5-5.6,14.1-15.8,13.6-17.1s-2.5-2.9-2.6-3.1l-.6-.5-.7-.3h-.8l.9-.2h.9l.8.3.7.3.7.3,1.6,1.4c-.2-.3-1.5-2-1.9-2s-1.6-1.1-1.8-1.2a6.8,6.8,0,0,1,5,2c.3-.7,3-2.1,3.6-2.2a9.6,9.6,0,0,1,.3-3,22.5,22.5,0,0,1,.3-2.3l.3-.8h0l.3-1v1a5.2,5.2,0,0,0,0,.8v.8l.2.8.2.7h0a16,16,0,0,0,0,1.6c0,.1,0,1.5,0,1.5s0-1.5,0-1.6V94.3c0-.1,0-.2,0-.3s0-.2,0-.3v-.3a6.6,6.6,0,0,1,.2-1l.2-.5.2-.5.5-1h0l.5-.9-.2,1a6.9,6.9,0,0,0-.1,1,6.2,6.2,0,0,0,0,1,6,6,0,0,0,.2,1V94c0,.1-.4,2.4.1,2.8,7.7-1.5,11.7-3.6,11.7-3.6s3.8-1.8,5.5-3.8c.2-.2.5-3.3.6-3.8l.2-.8.2-.8h0l.3-.9V84c0,.8,0,1.6,0,2.4v.9h0v.6l.3-.6.6-1.1.7-1,.8-.9h0l.7-.7-.4.8-.3.6-.3.6-.6,1.3-.5,1.3-.2.6.5-.5,1.3-.9,1.4-.7h1.5l.9-.2-.7.4-1.2.8-1.1.9-1.1.9c-1.5.9-2.5,1.3-3,2.6a11.6,11.6,0,0,0,0,3.3,22.3,22.3,0,0,0,.4,2.3c.2.8.4,1.5.7,2.3l.8,2.2.4,1.1.5,1.1,1.9,4.2h.1l.3,1.1.2.7.2.7c.3.8.6,1.7.9,2.5H99l-.9.3h-.3l-.3.2-.2.3-.2.3h0l.5.3h.8l.2.2a18.5,18.5,0,0,1,.8,2c.2.7.4,1.4.6,2.1s.3,1.4.4,2.1.2,1.4.2,2.2h0l.3.5-.3.5-.2.6h0l.3,6.5h0a1.4,1.4,0,0,0,.5.8l.9.5.9.2h.4a2.7,2.7,0,0,0,0,.5v.7h.1a2.7,2.7,0,0,0,.8.9l1,.5a6.6,6.6,0,0,0,2.1.2h1l.9-.2,1.9-.4,1.9-.4,1.9-.4,3.8-.9h.1a3.4,3.4,0,0,0,0-.6v-.6l-.2-1.2-.5-2.4a.8.8,0,0,0-.2-.5l-.4-.4-.5-.3-.5-.2h0l-1.5-.3h-.4l-1.3-.6h0l-.7-.8h0a6.6,6.6,0,0,0-1.1-1.3,12.4,12.4,0,0,1-1.2-1.6h0s-.8-1.8-1.6-8.2a7.9,7.9,0,0,1,2.2-2.6,11.3,11.3,0,0,0-2.7-.8l-.3-2.5c-1.7-26.6-2.3-28.2-2.3-28.2a13.7,13.7,0,0,0-2.5-2.5c.1.6.2,1.3.4,1.8v1.5a12.2,12.2,0,0,1,.3,1.3,10.8,10.8,0,0,1,.1,1.3c.1.9.1,1.7.1,2.6s0,1.7,0,2.6,0,1.7,0,2.6l-.6.6c0-1.7-.1-3.4-.3-5.1s-.2-1.7-.3-2.5-.1-.8-.2-1.3l-.4-2.5h0a15.4,15.4,0,0,0-.6-3.3,1.7,1.7,0,0,0-.7-.6h-.3c-2.5-1.1-9.3-.7-16.3,1.4a2.1,2.1,0,0,0,0-1.3c-.1-.5-.3-1.1-.7-1.1v-.2a1.1,1.1,0,0,0,1-1,1.1,1.1,0,0,0-.6-1.3h-.2l.2-1.1h.8c.4,0,.8-.4.8-.9h0a.9.9,0,0,0-.7-1.1h-.3l.2-.5h1.2c.4,0,.9-.5.9-1.1a1.6,1.6,0,0,0-.1-.7v-.2l-.3-.3a1.5,1.5,0,0,1,.9-.4l1.5-.2h1.3l1.6-.2h1.3v-.2h0l8.5,4.3.2.6v.2c1,1.4,4.6,2.5,4.8,2.5s-.2,1.4-.2,1.6,4.5,1.6,5.8,1.6h.9a.7.7,0,0,0,.6-.4c.3-.6-.2-1.8-.3-1.9v-.2a1.1,1.1,0,0,1,0-.3,1.2,1.2,0,0,0-.8-1.5h0a1.3,1.3,0,0,0,1.4-1.1,1.4,1.4,0,0,0-.8-1.5,1.4,1.4,0,0,0,.6-2.5l.4-.5h.1a1.4,1.4,0,0,0,1.5-1.3c0-.4.1-1-.5-1.2a9.3,9.3,0,0,0,1.8-4.3h13c.5,1.9,1.2,3.1,2,3.1h7.7c1-.2,1.7-2,2-3.5a32.8,32.8,0,0,0,.7-7.2C143,47.1,141.9,43.2,140.1,43.2Zm-25.9-6c.3,0,.6,1.5.6,3.3s-.3,3.3-.6,3.3-.6-1.5-.6-3.3S113.9,37.2,114.2,37.2Zm-1.1,3.3a6.2,6.2,0,0,0,.7,3.9c-5.8,0-11.8-.8-11.8-2.2V40.5Zm-46.3,3c-1.3-.5-1.2-3-1.2-3h1.9s0,2.8,1.3,3Zm2-.8h.8s-.4.6-.8.6h-.1c-.5,0-1-1.4-1-3.2s.5-2.5,1-2.5h.5a1.1,1.1,0,0,1,.4.6h-.8C68,39,68.2,42,68.8,42.7Zm31,71.1h0Zm10.5,9.9.4.5c-1.3-.4-4.3.5-5.5,1.3l.8.8a9,9,0,0,1,5.3-1.4l.4.4a10.3,10.3,0,0,0-5,1.6l1.1,1.1a10.7,10.7,0,0,1,5.1-1.4l.7.7h-.2c-1.1-.2-3.8.8-4.8,1.5s0,.4,0,.5l-.5.2-3.4-3.5c0-.1.1-.4.1-.5s4.3-2.1,5.5-1.8Zm-.4-.9h-.2a7.2,7.2,0,0,0-4.5,1.4,2.6,2.6,0,0,1-.4-1.2,2.1,2.1,0,0,1,1.4-.7l.2.4a9.5,9.5,0,0,1,2.6-.6v-.6h.6Zm-.5-2.1H109a7.2,7.2,0,0,0-4.4,1.1,2.6,2.6,0,0,1-.3-1.3,3.7,3.7,0,0,1,1.5-.6v.4a9.5,9.5,0,0,1,2.6-.4c0-.1,0-.4,0-.6h.7Zm-4.1-3.4v.4a9.5,9.5,0,0,1,2.6-.4c0-.1,0-.4,0-.6h.8l.2,1.4h-.1a7.3,7.3,0,0,0-4.8,1.1,2.6,2.6,0,0,1-.3-1.3A2.2,2.2,0,0,1,105.3,117.2Zm-1.8,16.4h0Zm10.1-57.7h0c.2.3.5,1.2.3,1.5a.4.4,0,0,1-.3.2h-.1a2.7,2.7,0,0,0-.3-1.5ZM98.9,37.2v1H96.7v-1Zm0,9.7H96.7V42.7h2.1ZM90.1,32.5l1.4,5.2H89.4l-1.2-5.2ZM82.6,43.4H93.1v3.5H82.6Zm-2.4-6.3h2v.6h-2ZM80,43.4h2.2v3.4H80ZM60.9,34.1a18.7,18.7,0,0,0,.4-1.9,9.4,9.4,0,0,1,1.2,3.1,14.9,14.9,0,0,1,.3,1.5c0,.8.1,1.5.5,1.8a31.3,31.3,0,0,1,.8,8H57.4c-1.1-3-2.9-8-2.5-8.8a12.7,12.7,0,0,0,2.4,1.6,16.7,16.7,0,0,1-3-5.4V32.8h0c0-.3.2-.6.8-.9a6.8,6.8,0,0,1,2.1-.7h.3v-.2h0a2.8,2.8,0,0,1,1.3-.5,1.6,1.6,0,0,1,1,.3C60.2,31.1,60.3,31.3,60.9,34.1ZM57.2,22.3c1.5.2,2.6.8,2.5,1.5s-1.3,1.1-2.8,1-2.6-.8-2.5-1.5S55.8,22.1,57.2,22.3Zm-2.3,3.5a4.1,4.1,0,0,0,2.8.6,8.4,8.4,0,0,0-1.7,2.4c-.1.1-1.9-.6-3.5.3A3.3,3.3,0,0,0,53.5,27c0-.3-.1-.6-.1-.6A4.2,4.2,0,0,1,54.9,25.8Zm-6.2-.5c1.7-.8,3.5-.5,4,.5s-.5,2.6-2.2,3.4-3.5.5-4-.5S47,26.1,48.7,25.3Zm-6.6,8.2-.2.8v.4c0,.1-.8-.9-1.3-1.5h0v-.2a3.5,3.5,0,0,1,0-.4,4.3,4.3,0,0,1,.1-.7,5.9,5.9,0,0,1,.5-1.4l.9-1.3.4-.5.6-.3.5.2a10,10,0,0,0-1.3,2.3,10.9,10.9,0,0,1,1.4-2.1l.5.3a13.2,13.2,0,0,0-1.9,4.1ZM46,42.2v-.3c-5.4-7.6-2.1-12.4-.8-13.9V30l-.4,2.8c.2.4.8,5.4,1.2,9.3Zm-.1-9.1.2-1.5,1.6.4-.5,1.4v1.6h-.9Zm.8,8.8a3.7,3.7,0,0,1,.3-1.2l.6-.6.4-.2h0s0-5.2.1-5.7a25.6,25.6,0,0,1,.8-2.8A8.4,8.4,0,0,0,51.4,30l-.6,1a4.8,4.8,0,0,0-.3,1.4c-.1,1.2-.4,10.8-.3,11.3A6.1,6.1,0,0,0,52,46.8H50.6a8.6,8.6,0,0,1-1.1-1.5l-.8-.3a3,3,0,0,1-1.2-.8l-.4-.5A4,4,0,0,1,46.6,41.8ZM9.9,66.8H5.4c-1.5-.6-2-2-2.8-3.8s-1.2-5.3-1.2-8.7c0-.2,0-.4,0-.5H7.7c0,.1,0,.2,0,.5A24.2,24.2,0,0,0,9.5,64v.2a7.8,7.8,0,0,0,1.8,2.6Zm2,.4h0Zm4.4-3.9c-.9,2.1-2,3.3-3,3.3s-2-1-2.8-2.8h-.1a23.8,23.8,0,0,1-1.7-9.3,24,24,0,0,1,1.7-9.3h.1c.8-1.8,1.9-2.9,2.8-2.9s2.1,1.2,3,3.3l.6,1.6H13.5c-3.4.9-3.3,12.7,0,14.1H17C16.8,61.7,16.5,62.8,16.3,63.3Zm-2.4-2.7c-2.5-1.4-2.3-6.7-2.3-6.7H33.8a16.9,16.9,0,0,0,1.6,6.8Zm22.5,0c-2-3.8-2.5-10,.1-13.2h4.8c-2.9,3.3-1.4,11.5,0,13.3Zm10.7,6.1s-2,.4-2.6-.2a5.9,5.9,0,0,1-.3-1.6l.3-3.7a39.5,39.5,0,0,0,3,5.4Zm.2-5.7H67.3a4.4,4.4,0,0,1-2,1.1c-.6,0-9.5,1.2-13.4,1.3A31,31,0,0,1,47.4,61.1Zm23.5,3.6a5.2,5.2,0,0,0-1.7-.1h-.7a14.1,14.1,0,0,1-.1,6.4c.1-.8.1-1.6,0-2.4s0-1.1-.1-1.7-.2-1.8-.2-1.8H66a90,90,0,0,0-17.2,1.1l-.8.2a3,3,0,0,1-.2-2.5l2.1,1c4.8-.4,16-1.7,18.2-1.9a4.1,4.1,0,0,0,1.1-1.8v-.2h6l1.4,1.2h0a1.9,1.9,0,0,1,.6,1.1v.2l-2.5.2s-1.2-.1,1.9-1.6c-.1,0-3.8,1-4.7,1.9S71.3,64.8,70.9,64.7Zm3.6,7.5a5.6,5.6,0,0,1-3.3-1.7s1.1-3.5,0-5.1a5.3,5.3,0,0,1,4.6-.4S76.2,70.4,74.5,72.2ZM79,74.3c-.1.3-.6.4-1.1.3h-.5c-.2-.2-.4-.4-.3-.6s.3-.3.6-.3h.5C78.7,73.7,79.1,74,79,74.3Zm.6-2.7c-.1.3-.6.3-1.1.2h-.2c-.4-.2-.6-.5-.6-.7s.4-.3.9-.2h.2C79.3,71,79.7,71.3,79.6,71.6Zm.7-2.9c-.1.3-.6.5-1.1.4h0c-.6-.1-1-.4-.9-.7s.6-.5,1.1-.4h.9Zm-.6-2.7c-.6,0-1.1-.2-1.1-.5s.5-.5,1.1-.5,1.1.2,1.1.5S80.3,66.1,79.7,66.1ZM84.4,78c.1.5.1,1.2-.2,1.3h-.6c.4-.6-.1-2.3-.6-2.3s-.2-.2-.2-.7h.7v.3c0,.2.1.2.2.2S84.3,77.5,84.4,78Zm-.6-3.8h-.7l.2-1h.7Zm.8-3.1H84l.2-.5h.7Zm1.6-2.7h-.6l.6-.2h.4Zm.2-4.7a.7.7,0,0,1,.7-.6h.9v.7H86.5Zm5.5,2.6a.7.7,0,0,1-.7.7H87.1a.6.6,0,0,1-.6-.5v-.7h1.7l.7.5h.9v-.6h.7a1,1,0,0,0,1-.9v-.2a1,1,0,0,0-1-.9H90a2.4,2.4,0,0,1,.8-.7h.7c.4.1.5.4.5.8Zm-2.5-.5v.3h-.7v-.3Zm-.3-2.1a2.8,2.8,0,0,1,.6-.7h.7a2.1,2.1,0,0,0-.7.7ZM93.5,67h0l-.3.3h-.6c.6-.7,1.8-4.2,2.3-6.2h.7l-.4,1.4-.6,1.7-.6,1.6-.3.8Zm.3-.1v-.2l.3-.8.6-1.6h0l.2-.6.3-.9a61.1,61.1,0,0,0,6.3,4.5l-.8,1.1a.5.5,0,0,0,0,.6,4.4,4.4,0,0,1,.8,1.3v.6Zm2-5.6v-.2h9.6a11.6,11.6,0,0,1,1,3.1,21.8,21.8,0,0,0-3.4,1.4C101.8,64.9,98.1,62.9,95.8,61.2Zm12.4,6-1.9-.4c-.7-.2-.9-1-.7-1.7s.6-.5.9-.6a2.7,2.7,0,0,1,.1.5c0,.6,1,.6,1.6,1A4,4,0,0,1,108.2,67.2Zm4.5,6.4h0Zm1.2-5.3-.5-.2.2-.3h.7Zm1.2-3.2h-1c.5-.9,1.9-3.1,1.9-4h.9A9.7,9.7,0,0,1,115.1,65.1ZM42.6,60.7c-1.8-1.5-1.9-6.8-1.9-6.8h89.2a32.6,32.6,0,0,0,.7,6.6Zm90.1,3.1c-1.1,0-2.4-4.3-2.4-10.1h7.1c0,4.4.8,8.9,2.1,10.1Zm7.7-2.4c-.9,0-1.7-3.5-1.7-7.7s.8-7.7,1.7-7.7,1.7,3.5,1.7,7.7S141.4,61.4,140.4,61.4Z" fill="#303740"/></svg>