<svg id="Layer_1" data-name="Layer 1" xmlns="http://www.w3.org/2000/svg" viewBox="0 0 80.59 53.73"><title>js-icon</title><path id="js" d="M70.81,23.67c0-.47.07-.94.07-1.42C70.88,9.21,61.6,0,48.35,0A23.75,23.75,0,0,0,26.86,13.43a15.61,15.61,0,0,0-8.06-2.69c-6.11,0-11.34,3.95-11.34,10A10.65,10.65,0,0,0,8,24,15.77,15.77,0,0,0,0,37.61,16.34,16.34,0,0,0,16.12,53.73h48.6A16.17,16.17,0,0,0,80.59,37.61C80.59,31.1,76.55,26,70.81,23.67Zm-49.17,18a9.41,9.41,0,0,1-3-5.31,11.8,11.8,0,0,1-.2-2.19,9.41,9.41,0,0,1,3.24-7.35,11.88,11.88,0,0,1,8.25-2.9,14,14,0,0,1,9.51,3.85,20.31,20.31,0,0,1,2.06,2.16l3.67,4.31a14.6,14.6,0,0,0,2,2.26A8.85,8.85,0,0,0,52.82,39a5.24,5.24,0,0,0,3.68-1.35A4.57,4.57,0,0,0,58,34.71l0-.5a4.44,4.44,0,0,0-.21-1.4,4.65,4.65,0,0,0-1.29-2,5.13,5.13,0,0,0-3.69-1.39A7.75,7.75,0,0,0,47.17,32l-3.25-3.82-.4-.44A12.4,12.4,0,0,1,53,23.89a11.68,11.68,0,0,1,8.22,2.88l0,0a9.53,9.53,0,0,1,3.2,7.42,11.42,11.42,0,0,1-.2,2.16,9.32,9.32,0,0,1-3,5.25,10.81,10.81,0,0,1-5.76,2.72,15.09,15.09,0,0,1-2.39.18,14,14,0,0,1-9.53-3.76,18.89,18.89,0,0,1-2.16-2.3L37.76,34.2a13.93,13.93,0,0,0-2-2.23A8.9,8.9,0,0,0,30,29.44a6.11,6.11,0,0,0-1.55.19,4.83,4.83,0,0,0-2.1,1.18A4.55,4.55,0,0,0,25,33.25a4.78,4.78,0,0,0-.09,1,4.52,4.52,0,0,0,1.41,3.34l.07.07A5.29,5.29,0,0,0,30.11,39a7.72,7.72,0,0,0,5.64-2.55L39,40.2l.36.44a12.58,12.58,0,0,1-9.43,3.88A11.94,11.94,0,0,1,21.64,41.64Z" fill="#df6705"/></svg>