<svg id="Layer_1" data-name="Layer 1" xmlns="http://www.w3.org/2000/svg" viewBox="0 0 49.29 49.03"><title>linkedin-icon</title><path d="M49.2,49H38.78c0-3.65,0-7.22,0-10.79,0-3.07.06-6.15-.06-9.22-.15-3.91-2-5.87-5.21-5.81s-5,2-5.07,5.9c0,6.55,0,13.11,0,19.88H17.9V14.24H26L26.93,20l.87.89a8.94,8.94,0,0,1,1.29-2.45c3.7-3.59,8.18-4.06,12.83-2.56a10.16,10.16,0,0,1,7.19,9.71C49.46,33.26,49.2,40.94,49.2,49Z" fill="#df6705"/><path d="M10.69,49H.5V14.34H10.69Z" fill="#df6705"/><path d="M11,5.33a5.56,5.56,0,0,1-5.6,5.32A5.68,5.68,0,0,1,0,5.07,5.49,5.49,0,0,1,5.5,0,5.34,5.34,0,0,1,11,5.33Z" fill="#df6705"/></svg>