<svg width="250" height="250" xmlns="http://www.w3.org/2000/svg">

 <g>
  <title>background</title>
  <rect fill="none" id="canvas_background" height="252" width="252" y="-1" x="-1"/>
 </g>
 <g>
  <title>Layer 1</title>
  <path stroke="#de6705" id="svg_3" fill="#de6705" d="m178.698716,214.816249c-11.426638,7.620334 -24.092204,12.690417 -37.226147,15.019274c1.99923,-2.609966 3.914821,-5.275139 5.749472,-7.989323c0.760841,-1.125558 0.609752,-2.666863 -0.371787,-3.586802c-2.232878,-2.091691 -3.537639,-4.363651 -4.891503,-7.161773c-0.894123,-1.8472 -3.366584,-2.019583 -4.47385,-0.302515c-1.878898,2.914171 -3.858163,5.769191 -5.94319,8.554919l0,-26.135149c0,-1.712561 -0.36747,-3.403715 -1.075429,-4.948964l-8.392988,-18.319898c-1.10187,-2.404909 -4.561266,-1.585246 -4.561266,1.079928l0,4.93995l-22.646068,0c-4.525113,-13.611482 -7.19453,-27.942915 -7.858781,-42.659111l15.618275,0c0.980999,0 1.663057,-1.011763 1.336597,-1.977332c-1.201696,-3.551874 -1.387859,-7.317819 -0.618925,-10.874764c0.199114,-0.922192 -0.481326,-1.795373 -1.38678,-1.795373l-14.948628,0c0.664252,-14.716196 3.333669,-29.04763 7.858781,-42.659111l22.645528,0l0,26.559909c0,1.523841 1.256736,2.707424 2.710427,2.570532c2.81511,-0.265334 5.382002,0.177453 7.993682,1.187526c1.612874,0.62362 3.325575,-0.629817 3.325575,-2.425189l0,-27.892777l22.646068,0c4.525113,13.611482 7.19453,27.942915 7.858781,42.659111l-3.116748,0c-1.90426,0 -2.527501,2.668553 -0.836385,3.583422l16.492433,8.923909c2.598729,1.406103 5.482369,2.140138 8.409177,2.140138l42.189957,0c-0.928657,14.049199 -4.510543,27.345772 -10.220085,39.354544c-1.489844,4.104513 -3.482599,6.223808 -6.757451,9.470351c-1.352246,1.340192 -1.381924,3.582858 -0.063673,4.959104l6.404011,6.685749c1.462864,1.527222 3.907267,1.308081 5.071191,-0.477151c12.948858,-19.8674 19.843369,-43.17964 19.843369,-67.315486c0,-66.166267 -51.578513,-119.9897 -114.931708,-119.991953c-0.002698,0 -0.004856,0 -0.007554,0c-63.391506,0.002253 -114.931708,53.86681 -114.931708,119.991953c0,66.240065 51.65028,119.991953 114.935485,119.991953c23.440903,0 45.261918,-7.367957 63.457338,-19.996969c1.238389,-0.859661 1.415379,-2.687707 0.363693,-3.785662l-6.738025,-7.034458c-0.77487,-0.809523 -1.987359,-0.958246 -2.911159,-0.342512zm34.633353,-138.814916c6.6641,12.853786 10.837931,27.309718 11.852385,42.659111l-49.100115,0c-0.602737,-14.653665 -3.014224,-28.965382 -7.118985,-42.659111l44.366716,0zm-9.176492,-14.646905l-40.318613,0c-5.638854,-13.998498 -13.139878,-27.181839 -22.364395,-39.222158c25.346242,4.493783 47.503429,18.884367 62.683007,39.222158zm-72.613865,-28.736664c6.702951,8.956019 12.367706,18.590303 16.938145,28.736664l-16.938145,0l0,-28.736664zm-14.029684,28.736664l-16.938145,0c4.570439,-10.146925 10.235194,-19.780645 16.938145,-28.736664l0,28.736664zm-9.931397,-39.222158c-9.224517,12.040883 -16.725002,25.224224 -22.363855,39.222158l-40.318073,0c15.179038,-20.337791 37.336226,-34.728375 62.681928,-39.222158zm-71.85896,53.869064l44.366176,0c-4.104762,13.69373 -6.515709,28.005446 -7.118985,42.659111l-49.100115,0c1.014994,-15.349393 5.188285,-29.805325 11.852924,-42.659111zm0,99.965127c-6.664639,-12.853786 -10.837931,-27.309718 -11.852924,-42.659111l49.100115,0c0.602737,14.653665 3.014224,28.965382 7.118985,42.659111l-44.366176,0zm9.176492,14.646905l40.318073,0c5.638854,13.998498 13.139878,27.181839 22.364395,39.222158c-25.345703,-4.493783 -47.50289,-18.884367 -62.682468,-39.222158zm72.613865,28.736664c-6.702951,-8.956019 -12.367706,-18.590303 -16.938145,-28.736664l16.938145,0l0,28.736664z"/>
  <path stroke="#de6705" id="svg_4" fill="#de6705" d="m224.953408,228.825412c3.390917,-3.390917 3.390917,-8.888277 0,-12.279194l-32.276804,-32.276804l13.515622,-13.021861c2.014406,-1.940892 2.97067,-4.733275 2.568368,-7.501347c-0.402302,-2.768072 -2.11339,-5.173203 -4.597245,-6.459992l-81.039321,-42.001522c-3.33882,-1.731347 -7.412204,-1.11487 -10.090553,1.524697c-2.67835,2.639566 -3.352712,6.703688 -1.671147,10.06682l40.520239,81.039321c1.235271,2.47112 3.572676,4.20652 6.295598,4.674232c0.490288,0.084512 0.981733,0.125611 1.470864,0.125611c2.227424,0 4.392331,-0.857859 6.024116,-2.430022l14.496198,-13.965969l32.50545,32.50545c1.695458,1.695458 3.917672,2.543477 6.139307,2.543477s4.443849,-0.84744 6.139307,-2.542898zm-62.821682,-39.241555l-23.299384,-46.598767l46.598767,24.151454l-23.299384,22.447313z"/>
 </g>
</svg>