<svg xmlns="http://www.w3.org/2000/svg" viewBox="0 0 1316.1 673.2"><title>Asset 1</title><g id="Layer_2" data-name="Layer 2"><g id="Layer_1-2" data-name="Layer 1"><path d="M56.9,218.4H174.5a10.7,10.7,0,0,1,9.3,5.2,22.5,22.5,0,0,1,3.5,12.7q0,9-3.5,13.7a11.2,11.2,0,0,1-9.6,4.7h-92v81.4H191a52.6,52.6,0,0,0,20.8-4.2,46.8,46.8,0,0,0,17.9-13.7q7.8-9.5,12.6-24.7t4.8-37.2q0-12.5-.6-24a127.1,127.1,0,0,0-2.8-21.2,67.8,67.8,0,0,0-6.5-17.7,44.2,44.2,0,0,0-12.2-14,57.3,57.3,0,0,0,12.3-13.7A55.9,55.9,0,0,0,244,150a91.9,91.9,0,0,0,2.6-19q.4-10.5.4-24,0-22.5-4.5-39c-.9-3.2-1.9-6.2-2.9-9.1h0c.4-.2.5-.8.5-1.8a15,15,0,0,0-.2-1.8l-.2-1.1v-.6l-.2-.8-.4-.8-.3-.7-.7-1.5-1.6-3.2c-1.2-2.2-2.5-4.7-4-7.2l-1.6-2.7-1.1-.9-.7-.6-1.4-1.1-2.7-2-4.7-3.1a20.3,20.3,0,0,0-3.5-1.8l-.7-.4A103.2,103.2,0,0,0,230,24.7l18.8-4c7.3-1.6,15.6-3.3,24.6-4.7,4.5-.7,9.2-1.2,14.1-1.5a64.5,64.5,0,0,1,14.4.7,29.8,29.8,0,0,1,3.4.8l.8.2.4.2,1.7.7,7.8,3.5,16.4,7.7c22.5,10.6,47,22.8,73,35.3s51,24.3,74.2,34c11.6,4.9,22.7,9.3,33.2,13.2,5.3,1.9,10.2,3.8,15.4,5.5a70.6,70.6,0,0,0,15.9,3.5,41.8,41.8,0,0,0,8-.1,34.5,34.5,0,0,0,3.7-.5l3.6-.8a55.7,55.7,0,0,0,12.4-4.8,59.7,59.7,0,0,0,16.1-12.7,46,46,0,0,0,6.7-9.6L499.5,336.3h74.1L661.5,108l87.9,228.3h74.1L700.7,19.6H622.4L596.1,87.4c.2-1,.2-1.6-.1-1.7s-1.8.6-3.8,2.4-5,4.6-9,7.6a73.3,73.3,0,0,1-6.9,4.6,67.2,67.2,0,0,1-8.7,4.2,50.2,50.2,0,0,1-10.4,2.7l-2.8.3h-2.9a31,31,0,0,1-5.8-.5,62.4,62.4,0,0,1-12.7-3.9l-7.1-3L518.3,97c-10.1-4.4-20.9-9.2-32.1-14.5-22.5-10.4-47.1-22.5-73-35.1s-50.9-24.4-74-34.2L322.2,6.1l-8.3-3.3-1.1-.4-.6-.2-.6-.2L310,1.4l-1.2-.2a43.5,43.5,0,0,0-4.8-.8,74.9,74.9,0,0,0-17.7.3,137.8,137.8,0,0,0-15.3,2.8A250.7,250.7,0,0,0,246,11c-7.2,2.5-13.2,4.9-18.1,7-6.9,3-11.5,5.3-13.5,6.9a17,17,0,0,0-5.4-4.2c-4.1-2.2-8.1-2.8-8.9-1.4a1.5,1.5,0,0,0,0,1.2,46.6,46.6,0,0,0-9-.9H82.2v81.9h92a11.1,11.1,0,0,1,9.6,5q3.5,5,3.5,14a19.3,19.3,0,0,1-3.5,11.7,11.2,11.2,0,0,1-9.6,4.7H56.9V19.6H0V336.3H56.9Z" fill="#fff"/><polygon points="280.5 336.8 465.9 336.8 465.9 289 326.9 289 326.9 267.6 465.9 267.6 465.9 219.9 280.5 219.9 280.5 336.8" fill="#fff"/><rect x="627.6" y="254.9" width="67.9" height="81.43" fill="#fff"/><path d="M863.8,320.8a38,38,0,0,0,12.7,11.7,35.4,35.4,0,0,0,17.7,4.2h17.2V289l-4.9-.3a16.1,16.1,0,0,1-4.5-1.2,10.3,10.3,0,0,1-3.4-2.3,5.3,5.3,0,0,1-1.4-3.8H851.3a123.4,123.4,0,0,0,4.3,21.8A61.6,61.6,0,0,0,863.8,320.8Z" fill="#fff"/><path d="M862.6,167.7a63.3,63.3,0,0,0-9.1,19,84.2,84.2,0,0,0-3.3,24.3,72.7,72.7,0,0,0,2.9,20.5,60.6,60.6,0,0,0,8.3,17.7,44.6,44.6,0,0,0,13.1,12.6,32,32,0,0,0,17.2,4.8h88a8.5,8.5,0,0,1,7.1,3.4,12,12,0,0,1,2.6,7.5q0,5.3-2.6,8.3a8.8,8.8,0,0,1-7.1,3.1H932.3v47.7h59.9a31.2,31.2,0,0,0,16-4.4,43.3,43.3,0,0,0,13.3-12.3,63.4,63.4,0,0,0,9.1-19,84.3,84.3,0,0,0,3.3-24.3,74.3,74.3,0,0,0-2.9-20.7,62.5,62.5,0,0,0-8.3-18,46.3,46.3,0,0,0-13-12.9,31.1,31.1,0,0,0-17.4-5h-88a9,9,0,0,1-7.1-2.9,10.2,10.2,0,0,1-2.6-7q0-5.3,2.6-8.3a8.8,8.8,0,0,1,7.1-3.1h47.4V170c1.6-.6,14-5.7,20.9-11.2v40a26,26,0,0,1,9.5,1.8q4.5,1.8,4.5,5.9h46.1a123.8,123.8,0,0,0-4.3-21.8,61.6,61.6,0,0,0-8.2-17.6,38.1,38.1,0,0,0-12.7-11.7,35.5,35.5,0,0,0-17.7-4.2h-9.5l1.9-2.3a45.4,45.4,0,0,0,5.5-8.9,52.2,52.2,0,0,0,4.6-18.2l9.7.2c17,0,30.9-1.9,30.9-4.1s-13.8-4.1-30.9-4.1l-9.7.2a61.6,61.6,0,0,0-2.5-14.4,63.7,63.7,0,0,0-9-18.2,62.7,62.7,0,0,1,7.4,18.6,51,51,0,0,1,1.1,10.9,10.3,10.3,0,0,0-.7-1.9,23,23,0,0,0-4.5-6.6,22.3,22.3,0,0,0-3.7-3l-1.1-.7-1.1-.6L976,96.8l-2.4-.9-2.4-.8-2.3-.6-2.2-.5-2.1-.4h-.4a13.6,13.6,0,0,0,.9-4.9c0-8.2-7.4-14.9-16.5-14.9s-16.5,6.7-16.5,14.9,7.4,14.9,16.5,14.9l2.4-.2a139.6,139.6,0,0,1-3.6,19.6A150.8,150.8,0,0,1,936.6,151h-8.7a167.2,167.2,0,0,1-10.7-28.3A117.1,117.1,0,0,1,913.2,99c0-.8.1-1.6.1-2.3V93.5l-2.2,1.8-2.2,2.3a57.4,57.4,0,0,0-7.1,7.9,61.1,61.1,0,0,0-7.8,13.9,50.2,50.2,0,0,0-3.6,15.9,37.3,37.3,0,0,0,1.3,12h-.2l-.4-.4-.7-.7-1.4-1.7-1.3-1.8a59.8,59.8,0,0,1-4.4-8.2,76.7,76.7,0,0,1-3.3-8.8,47,47,0,0,1-2-9.3,47.8,47.8,0,0,0,.5,9.6,79,79,0,0,0,1.9,9.5,63.6,63.6,0,0,0,3.2,9.3L885,147l1.3,2.3.8,1.1.4.6.3.4a31.6,31.6,0,0,0-11.9,4.1A43.2,43.2,0,0,0,862.6,167.7Z" fill="#fff"/><rect y="591.8" width="466" height="81.46" fill="#fff"/><polygon points="174.4 555.3 291 555.3 291 356.4 0 356.4 0 437.9 174.4 437.9 174.4 555.3" fill="#fff"/><path d="M599.1,506.3a43.4,43.4,0,0,1-11.2-7.7,39.1,39.1,0,0,1-8.1-11,30.3,30.3,0,0,1-3.1-13.7V356.4H495.2V478.3q2.1,26.5,10,41.2a103.3,103.3,0,0,0,19.9,26.2,111.7,111.7,0,0,0-15.8,16,59.2,59.2,0,0,0-8.9,16,76.9,76.9,0,0,0-4.2,19q-1,10.5-1,24.5v52h81.5v-64a17.1,17.1,0,0,1,4.6-12,19.2,19.2,0,0,1,12.1-6h51.5V509.8H611.6A35,35,0,0,1,599.1,506.3Z" fill="#fff"/><path d="M744.1,473.8a30.3,30.3,0,0,1-3.1,13.7,39.1,39.1,0,0,1-8.1,11,43.4,43.4,0,0,1-11.2,7.7,34.6,34.6,0,0,1-12.1,3.5H676v81.5h51.5a19.2,19.2,0,0,1,12.1,6,17.2,17.2,0,0,1,4.6,12v64h81.5v-52q0-14-1-24.5a77.2,77.2,0,0,0-4.2-19,59.4,59.4,0,0,0-8.9-16,123.2,123.2,0,0,0-15.4-16,109,109,0,0,0,19.5-26.2q7.9-14.7,10-41.2V356.4H744.1Z" fill="#fff"/><rect x="1120.3" y="356.2" width="193" height="81.46" fill="#fff"/><path d="M982.8,589.1q-10.9-2.5-10.9-10.5H855.5a152.4,152.4,0,0,0,10.9,37.2,95.1,95.1,0,0,0,20.7,30,92,92,0,0,0,32.1,20q19,7.3,44.6,7.2h85.4V591.6h-39.7Q993.6,591.6,982.8,589.1Z" fill="#fff"/><path d="M1287.8,505.4a106.7,106.7,0,0,0-32.9-21.5q-19.3-8.2-43.8-8.2h-90.8v79.5h59.3q11.4,0,17.9,5t6.5,12q0,9-6.5,14.2t-17.9,5.2h-59.3V673h90.8a108.8,108.8,0,0,0,40.2-7.5,104.4,104.4,0,0,0,33.4-21,99,99,0,0,0,22.8-32.5,101.1,101.1,0,0,0,8.4-41.5,87.4,87.4,0,0,0-7.3-35A94,94,0,0,0,1287.8,505.4Z" fill="#fff"/><path d="M852.8,458.6a89.1,89.1,0,0,0,7.3,35.2,95.9,95.9,0,0,0,20.9,30.7,106.7,106.7,0,0,0,33.2,22q19.6,8.5,43.5,8.5h91.4V475.6H989.3q-11.4,0-17.9-5.7t-6.5-12.7V437.7h84.3V356.2H852.8Z" fill="#fff"/><path d="M449.3,113.5c-17,0-30.9,1.9-30.9,4.1s4.7,2.5,12,3.3c-.3,1.2-.6,2.4-1,3.5a76.7,76.7,0,0,1-3.3,8.8,59.8,59.8,0,0,1-4.4,8.2l-1.3,1.8-1.4,1.7-.7.7-.4.4h-.2a37.3,37.3,0,0,0,1.3-12,50.2,50.2,0,0,0-3.6-15.9,61.1,61.1,0,0,0-7.8-13.9,56,56,0,0,0-9.6-10l-1.5-1.2v1.3l-.2-.2v2.8a116.2,116.2,0,0,1-4,24.5A167.2,167.2,0,0,1,381.8,150h6.7l-.3.8h20.6l.6-.7h11c.5-.3,1.5.1,1.8-.2l.4-.6.8-1.1,1.3-2.3,1.1-2.3a63.6,63.6,0,0,0,3.2-9.3,79,79,0,0,0,1.9-9.5c.2-1.2.3-2.5.4-3.7,5,.5,11.2.8,17.9.8,17,0,30.9-1.9,30.9-4.1S466.4,113.5,449.3,113.5Z" fill="#fff"/><path d="M361.8,122.6a140.7,140.7,0,0,1-3.7-20.6,18.1,18.1,0,0,0,4,.5c9.1,0,16.5-6.7,16.5-14.9s-7.4-14.9-16.5-14.9-16.5,6.7-16.5,14.9a13.6,13.6,0,0,0,1.1,5.4l-2,.3-2.1.4-2.2.5-2.3.6-2.4.8-2.4.9L331,97.7l-1.1.6-1.1.7a22.3,22.3,0,0,0-3.7,3,23,23,0,0,0-4.5,6.6,10.3,10.3,0,0,0-.7,1.9A51,51,0,0,1,321,99.5,62.7,62.7,0,0,1,328.4,81a62.2,62.2,0,0,0-11.6,38.4,52.2,52.2,0,0,0,4.7,20.2,45.4,45.4,0,0,0,5.5,8.9l2,2.5H280.5v47.7H466V151H372.8A151.1,151.1,0,0,1,361.8,122.6Z" fill="#fff"/><path d="M420.4,150.1h0Z" fill="#fff"/><rect x="1166.5" y="142" width="87.2" height="194.36" fill="#fff"/><path d="M1103.8,19.8l-1.5-.7-4-1.8-3.2-1.4c-4.3-1.9-9-3.7-13.9-5.4a178.4,178.4,0,0,0-33.5-8.5,103.6,103.6,0,0,0-20-1.1,74.3,74.3,0,0,0-10.8,1.3c-1.9.5-3.7.8-5.6,1.5l-1.4.5-.7.2-.6.2-2.4.9c-6.4,2.3-12.9,4.7-19.6,7.3-3.4,1.3-6.7,2.7-10.4,4.4l-5.2,2.6-4.8,2.4L925.8,42.5C898,56.5,871.6,69.4,847.1,80c-12.2,5.3-23.9,10.1-35,14.3L808,95.9l-4.1,1.5-8,2.9c-5.5,2-10.2,4.1-14.6,5.3a37.9,37.9,0,0,1-6.2,1.3h-6a46.2,46.2,0,0,1-11.3-2.3,64.6,64.6,0,0,1-17.1-8.9,102.8,102.8,0,0,1-9.7-8.1c-1.1-1-1.9-1.8-2.6-2.2s-1.2-.6-1.4-.5-.3.7-.1,1.5a14.8,14.8,0,0,0,1.3,3.4,45.4,45.4,0,0,0,8,11.2,60.4,60.4,0,0,0,18,13,53,53,0,0,0,13.7,4.3l1.9.3,2,.2h4.2a48,48,0,0,0,8.5-1c5.6-1.1,10.8-3,15.9-4.5l8.2-2.4,4.2-1.3,4.3-1.4c11.6-3.7,23.8-8.1,36.5-13.1,25.4-10,52.5-22.7,80.3-36.8,13.9-7,27.4-14,40.5-20.8l2.4-1.3,2.5-1.3,4.5-2.4c2.9-1.4,6.1-2.8,9.3-4.1l19-7.8,2.3-.9.6-.2.5-.2,1-.3c1.3-.5,2.6-.8,4-1.2a60.6,60.6,0,0,1,8.4-1.4,93.9,93.9,0,0,1,17.1.1,191,191,0,0,1,31.5,5.9c4.8,1.3,9.4,2.6,13.6,4l3.2,1,1.5.5.6.2,1.3.4h.6v4l.2,5.4c.2,3.5.4,6.7.6,9.5.8,11.4,1.8,17.8,3.1,17.8v49.4h213.5V19.8Z" fill="#fff"/></g></g></svg>