<svg id="Layer_1" data-name="Layer 1" xmlns="http://www.w3.org/2000/svg" viewBox="0 0 275.36 309.35"><title>boomtech_logo_wordmark</title><path id="SINGLE_COLOR" d="M266.82,82.28H252.63c-1.78,0-3.17,2.92-4.08,7.13L189,89.23l0-7.87h5.3v-.11c.47,2.35,10.71,4.22,23.29,4.22.58,0,1.1-.93,1.49-2.44a25.26,25.26,0,0,0,.61-5.89c0-4.6-.94-8.33-2.1-8.33-12.66,0-22.9,1.83-22.9,4.08v-.15H189l0-2.58H177.26v1.65H175l-2.8-10.56h-9.93l-2.64,10.56h-2.32V70.17h-11v2.78l-13.38,0h-.06a3.08,3.08,0,0,0-.2-.6h0a2.87,2.87,0,0,0-.52-.8h0a1.63,1.63,0,0,0-1.13-.59h-.05l-3,.06h-.27c-1.79,0-3.2,2.66-3.2,6.05s1.41,6,3.2,6h3.28c.46,0,1.12-.32,1.66-1.79h14l.48,7.82H139c-.63-.46-1.26-.9-1.87-1.31-2.59-1-8.86-1.46-13.54,1,.1-6.43-1-15.34-1.85-15.91-.48-.34-.55-1.57-.61-2.87a22.57,22.57,0,0,0-.24-2.62c-.06-.37-2.4-9.94-2.4-9.94,2.94-2.53,9.07-.41,10.78,10.46.6-22.56-11-20.14-13.38-17.79.52-.93,3.4-4.77,10.88-3.54A17.41,17.41,0,0,0,115,47c0-1.09,0-1.63,0-1.63,0-3.38-9.93-5.9-12.63-1.42a8.36,8.36,0,0,0-.42,2,17.78,17.78,0,0,0-2,.81A22.25,22.25,0,0,0,97.75,46c-4.66-.54-10.6,2.68-11.61,7.21-.67.56-1.84,1.69-1.84,1.69A12.83,12.83,0,0,1,83,53.94l-1.23-1.05.14-.11c-.57-.51-.1-.21-.1-.21.28-4.24,4-6.34,6.76-9.34C95.34,33.15,87,17.47,90.34,8.47c-3.79,10.17-10.55,10.29-12.42,21.2C80.1,15,73.32,10.55,71.4,0c-.71,8.12-8.62,17.57-6.2,23.18C60.6,13.07,51.89,11.41,44.43,2.86,45.71,10,48.29,24.59,56.18,28.93c-12.3-6.34-15.28-2.87-29.87-8.08,9.63,7.94,5.39,13.52,22,17.94-8.72-2.22-14,1-25,5.33,14.23-2.64,17.2,2.18,26.31,2.54-11.83.21-13.21,5.76-24.84,15.55,9.73-6.55,18.87-5.88,27.65-6.68-4.87,3.27-9.22,11.29-16.54,12.87,6.31,2.65,22.45-5.59,26-7.66-11.06,6.79.67,17.41,1.33,19-.63-12.86,6.07-11,11.61-15.76l.89.17c1.32,1.08,2.63,2.12,3.91,3.12l.15.12a7.24,7.24,0,0,0,0,.77c-.26,16.3,8.86,21,9,21l-54.72.21a36.69,36.69,0,0,0-1.36-3.85c-1.76-4.21-4.14-7-6.78-7.36h0l-.25,0h-.39l-14.43.09h-.28a4.76,4.76,0,0,0-.55.07,5.14,5.14,0,0,0-1.08.32A7.1,7.1,0,0,0,6.86,80a11.12,11.12,0,0,0-1.19,1.3,15.14,15.14,0,0,0-.89,1.27,21.83,21.83,0,0,0-1.6,3.08A39,39,0,0,0,0,102c0,.15,0,.29,0,.44H0c0,.34,0,.68,0,1,0,13.92,4.86,25.24,10.83,25.24l13.58-.09a4.51,4.51,0,0,0,.86.09,5.68,5.68,0,0,0,3.91-1.8,16.39,16.39,0,0,0,3.74-5.7c.49-1.15,1.27-3.53,1.66-4.89H69.42A133.85,133.85,0,0,0,70,132.37c.67-2.13,4.28-7.71,13-6a16.32,16.32,0,0,0-12,11.92c1-1,3.64-5.94,13.79-8.15-4.32,4.87-4,9.36-3.57,10.42.52.07,2.36,0,2.36,0s4.43-5.27,4.77-5.7c16,1.14,31.17-3.48,31.65-3.48s.3,3.14.3,3.14,3.56-6,4-5.54,1.67,6.11,1.67,6.11c.24-.36.68-1.17.68-1.17a66.33,66.33,0,0,0,1.28-7.59,5.14,5.14,0,0,1,1.26,3.45l.87,7.43a6.28,6.28,0,0,0,1.45.33c1.52.2,2.9-.06,3.24-1l6.06,3.56s1.44,1.28,6.22,2.89a7.32,7.32,0,0,0-.27,1.52c0,2.57,10.17,6.85,11.92,6.85h.15l1-.06a82.89,82.89,0,0,0-13.1,5.46c-.33.45-8.47,7.28-10.59,10.19h0q-1.91,1.33-3.72,2.82l-1.3,1.07s5-8.13,5.35-8.45a12.09,12.09,0,0,0,2.09-3.65c-1.34-2.36-5.61-6.35-9.4-7.11-2.54.34-3.48,0-8.38,2.93,0,0-.72-3-.72-3.57a17.88,17.88,0,0,0,5.89-2.68,45.87,45.87,0,0,0,.68-6.12c-7-.62-19.54,2.74-23.06,5.36-1.38,0-3.62-1.85-5.21-3.79L97,144c1.57,3.06,6.07,12.78,7.2,14.68a22.79,22.79,0,0,0-3.39,8.35c-.4,1.26-1.12,7.71-.69,8.28l-3.34,5.57c-.58.7-20.65,31.82-20.42,49.76a34.24,34.24,0,0,0,.25,6,.32.32,0,0,0,.06.15A10.29,10.29,0,0,0,77.93,238a15.35,15.35,0,0,0,1.73,1.37,23.17,23.17,0,0,0,3.83,2.14A22.94,22.94,0,0,0,87.67,243a13,13,0,0,0,2.27.34,6.59,6.59,0,0,0,1.26,0,3.75,3.75,0,0,0,.7-.16,2.48,2.48,0,0,0,.78-.41,2,2,0,0,0,.19-.17l.07-.08,0,0,.18-.2.36-.39.72-.79.36-.39a1,1,0,0,0,.34.49,12.64,12.64,0,0,0,1.37.47l.62.16h0l.4.12a15.61,15.61,0,0,0,2.26.47,13.86,13.86,0,0,0,3.06.07,9.28,9.28,0,0,0,1.77-.34l.23-.07.23-.09c.15-.06.31-.11.46-.19l.45-.23.43-.26a20.2,20.2,0,0,0,3.35-2.68c1.09-1.05,2.13-2.23,3.2-3.45a20.65,20.65,0,0,0,3-4.16,8.67,8.67,0,0,0,.86-2.61,14.08,14.08,0,0,0,.13-2.6c0-.83-.07-1.61-.08-2.36a10.46,10.46,0,0,1,.16-2.11,4,4,0,0,1,.12-.48c0-.16.08-.32.14-.47a8.53,8.53,0,0,1,.38-.91,13.06,13.06,0,0,1,1-1.68c.72-1.06,1.48-2,2.15-2.94a17.94,17.94,0,0,0,1.64-2.64l.15-.31.13-.3a6,6,0,0,0,.22-.58l.17-.54a3.56,3.56,0,0,0,.11-.52,2.34,2.34,0,0,0-.06-1.6.5.5,0,0,0-.17-.17l.23-.34a9.5,9.5,0,0,0-1-1.77c-1.53,2.19-3.16,4.33-4.83,6.43-.87,1.11-1.78,2.2-2.66,3.3L111.83,219l-2.75,3.24-2.78,3.22-2.79,3.21-2.8,3.2c-1.87,2.13-3.74,4.27-5.63,6.39l-3.72,2.8a.46.46,0,0,1-.16.09,1.69,1.69,0,0,1-.33.09,4.58,4.58,0,0,1-.87.06,12.13,12.13,0,0,1-1.95-.21,27.32,27.32,0,0,1-7.73-2.76,9.44,9.44,0,0,1-2.84-2,8.57,8.57,0,0,1-.94-3.21,4,4,0,0,0,.31.31s1.28.78,1.91,1.14c.31.19.63.35.95.52l.49.23.09,0v0c.05-.55.12-1.09.19-1.63s.14-1.08.22-1.62.15-1.08.25-1.61c.18-1.07.37-2.14.59-3.19l.32-1.59.36-1.58.37-1.58L83,221c.28-1,.54-2.09.87-3.11s.61-2.07.95-3.09l1-3.05c.35-1,.75-2,1.13-3l.58-1.5c.2-.5.41-1,.63-1.49l1.28-3c.45-1,.93-1.94,1.39-2.9.91-1.94,2-3.81,3-5.69s2.19-3.68,3.33-5.48l.47.25c-.37,1-.77,2-1.16,3l-.6,1.47c-.1.25-.2.49-.3.74l-.27.75c-.36,1-.74,2-1.11,3s-.73,2-1.07,3-.7,2-1,3l-1,3c-.16.5-.33,1-.48,1.5l-.45,1.51-.45,1.51c-.15.5-.31,1-.44,1.51-1.13,4-2.12,8.1-2.94,12.19l-.31,1.53-.28,1.54c-.2,1-.34,2.05-.51,3.08-.09.51-.15,1-.23,1.54s-.15,1-.2,1.54-.12,1-.17,1.53c0,.25,0,.52-.26.74l0,0,.37.05a19.52,19.52,0,0,0,4.17.07,19.07,19.07,0,0,0,2-.3c.33-.07.67-.15,1-.24l.09,0a81.61,81.61,0,0,0,7-7.94c10.49-10.74,26.81-30,26-32.55s-4.67-5.54-5-5.82a5.9,5.9,0,0,0-1.2-.9,7.77,7.77,0,0,0-1.4-.6,6.57,6.57,0,0,0-.74-.2A5.78,5.78,0,0,0,116,188h0a7.31,7.31,0,0,1,1.65-.29,9.9,9.9,0,0,1,1.64.08,7.87,7.87,0,0,1,1.59.56c.45.21.89.43,1.35.63a4.48,4.48,0,0,1,1.28.62c.3.18,2.87,2.53,3.12,2.76-.43-.58-2.9-3.74-3.71-3.87-.5-1.35-3-2.14-3.46-2.35a12.88,12.88,0,0,1,9.5,3.81c.62-1.26,5.79-3.94,6.89-4.14a18.22,18.22,0,0,1,.65-5.68,42.87,42.87,0,0,1,.55-4.33,13.68,13.68,0,0,1,.52-1.58h0l.66-1.82-.14,1.93a9.91,9.91,0,0,0,0,1.48q.07.74.21,1.48t.35,1.46c.13.48.29,1,.46,1.43l0,.05v.06a30.45,30.45,0,0,0,0,3.07c0,.1,0,2.83,0,2.93,0-.15,0-2.93,0-3.08.06-.54.13-1.08.21-1.62,0-.27.08-.54.13-.81s.08-.48.15-.75-.05-.31-.08-.47,0-.35,0-.52,0-.35,0-.52a4.68,4.68,0,0,1,.05-.51,12.48,12.48,0,0,1,.46-2c.1-.32.21-.64.32-1s.24-.63.37-.94a19.73,19.73,0,0,1,.86-1.82h0l.87-1.76-.37,1.94a13.2,13.2,0,0,0-.25,1.88,11.84,11.84,0,0,0,0,1.88,11.47,11.47,0,0,0,.33,1.84c.08.3.17.6.27.89s-.7,4.54.24,5.3c14.66-2.8,22.21-6.88,22.21-6.88s7.21-3.4,10.54-7.21c.34-.43.91-6.25,1.1-7.16.1-.52.22-1,.36-1.54s.29-1,.48-1.52h0l.59-1.68L178,160c-.06,1.49-.08,3,0,4.48,0,.37,0,.74.06,1.11l0,.55,0,.27,0,.28.16,1.16c.16-.4.33-.79.52-1.17a19.83,19.83,0,0,1,1.2-2.05q.66-1,1.41-1.91a23.43,23.43,0,0,1,1.58-1.77h0l1.26-1.25-.84,1.57-.64,1.2-.61,1.21c-.39.82-.77,1.64-1.11,2.47s-.69,1.66-1,2.51c-.13.35-.25.7-.37,1.05a10,10,0,0,1,1-1,13.68,13.68,0,0,1,2.42-1.8,15.21,15.21,0,0,1,2.71-1.27l.71-.23.72-.19a9.2,9.2,0,0,1,1.49-.23h0l1.63-.37-1.41.85c-.76.46-1.49,1-2.22,1.48s-1.43,1.06-2.11,1.62-1.37,1.13-2,1.74c-2.94,1.77-4.81,2.44-5.75,4.94a22,22,0,0,0-.06,6.38,42.54,42.54,0,0,0,.83,4.46c.35,1.47.79,2.9,1.26,4.32s1,2.81,1.56,4.19q.42,1,.84,2.06l.88,2c1.19,2.71,2.41,5.4,3.64,8.09l.13,0c.18.68.36,1.36.56,2l.4,1.39.43,1.38c.51,1.61,1.06,3.22,1.67,4.79l-.61.18c-.54.18-1.1.4-1.7.65l.13,0a1.86,1.86,0,0,0-.73.24,2.54,2.54,0,0,0-.53.42,3.58,3.58,0,0,0-.4.49,4.31,4.31,0,0,0-.31.53l-.1.2.18.1h0l.87.5,0,0H186a2.41,2.41,0,0,1,.5.06,2,2,0,0,1,.47.16,2.08,2.08,0,0,1,.42.27,1.93,1.93,0,0,1,.33.34,35.2,35.2,0,0,1,1.52,3.83c.42,1.32.81,2.65,1.11,4s.57,2.71.78,4.08.38,2.75.47,4.12v.05l0,0,.5.92a8.92,8.92,0,0,0-.5,1c-.16.39-.31.78-.44,1.19v.08l.51,12.47v.07l0,0h0a2.72,2.72,0,0,0,.94,1.6,4.77,4.77,0,0,0,1.62.91,7.32,7.32,0,0,0,1.75.35,8,8,0,0,0,.84,0s0,.07,0,.1a5.21,5.21,0,0,0,0,.91,5.06,5.06,0,0,0,.21.89c0,.15.1.29.17.44l.11.22.06.12,0,.06,0,.06a5.05,5.05,0,0,0,1.55,1.69,6.87,6.87,0,0,0,2,.93,12.5,12.5,0,0,0,4,.41c.33,0,.66,0,1-.08l.51-.07h.14l.11,0,.23,0,1.8-.37,3.6-.76c1.2-.25,2.4-.51,3.6-.78s2.4-.52,3.59-.81c2.39-.55,4.78-1.12,7.16-1.75l.17,0v-.14h0a6.51,6.51,0,0,0,0-1.2c0-.39-.08-.77-.13-1.15-.1-.77-.24-1.52-.38-2.28q-.42-2.26-.94-4.5a1.61,1.61,0,0,0-.46-1,3.86,3.86,0,0,0-.83-.67,7.61,7.61,0,0,0-.92-.48,9.51,9.51,0,0,0-1-.37h0l-2.8-.5-.7-.12a22.85,22.85,0,0,1-2.48-1.11h0L215,241.3h0a12.58,12.58,0,0,0-2.12-2.41,23.68,23.68,0,0,1-2.36-3.07l-.08,0v0l.09,0s-1.45-3.35-3-15.55a15.08,15.08,0,0,1,4.14-5,21.45,21.45,0,0,0-5.2-1.51l-.54-4.84c-3.19-50.67-4.4-53.69-4.4-53.69a26,26,0,0,0-4.83-4.77c.21,1.16.47,2.56.71,3.33.06.18.12.37.18.59.1.4.19.8.26,1.2,0,.2.07.41.1.61s0,.31.06.48a23.18,23.18,0,0,1,.51,2.43,20.54,20.54,0,0,1,.27,2.48c.12,1.66.22,3.3.27,5s.07,3.29.06,4.94,0,3.29-.09,4.93l-1.17,1.16c-.07-3.27-.27-6.54-.57-9.79-.16-1.62-.33-3.25-.59-4.85-.18-.79-.27-1.6-.43-2.38s-.62-4.31-.69-4.67l0-.1a29.32,29.32,0,0,0-1-6.34,3.21,3.21,0,0,0-1.39-1.1l-.53-.16c-4.71-2.11-17.71-1.4-31.11,2.67a4,4,0,0,0,0-2.45c-.22-.95-.55-2.05-1.29-2.05-.07,0-.12-.21-.15-.48a2.08,2.08,0,0,0,1.91-1.88,2,2,0,0,0-1.19-2.54l-.35-.07c.12-.65.26-1.34.44-2.07l1.55.13c.78.06,1.49-.73,1.57-1.77l0-.17a1.73,1.73,0,0,0-1.26-2l-.64-.05q.2-.48.42-.93l2.29.2c.85.07,1.62-.87,1.72-2.1a3,3,0,0,0-.21-1.38l-.16-.3a1.48,1.48,0,0,0-.63-.58,2.93,2.93,0,0,1,1.73-.82l2.82-.3.74-.08.26,0h.13c.49-.07.88-.09,1.29-.13,1.32-.14,2.52-.26,3.1-.3l2.17-.14a.59.59,0,0,0,.35-.2l.23-.37,0-.05c1.85.94,14.3,7.26,16.12,8.25l.29,1.1.26.4c1.87,2.7,8.68,4.68,9.17,4.82-.24,1.61-.4,2.76-.4,3,0,1.18,8.57,3.1,11.05,3.1l.32,0v0l1.39-.27a1.39,1.39,0,0,0,1.17-.68c.67-1.16-.36-3.35-.48-3.59l-.27-.37a2,2,0,0,1,0-.54,2.31,2.31,0,0,0-1.61-2.82c0-.06,0-.12,0-.18a2.51,2.51,0,0,0,2.71-2.15,2.63,2.63,0,0,0-1.5-2.92,2.62,2.62,0,0,0,1.19-4.77,6.67,6.67,0,0,1,.82-1h.11a2.73,2.73,0,0,0,2.93-2.48c.06-.84.24-2-.89-2.36,1.27-1.18,3.4-6.17,3.4-8.26l24.71,0c.91,3.58,2.21,6,3.83,6h14.64v0c2-.45,3.19-3.82,3.87-6.67a62.51,62.51,0,0,0,1.41-13.77C272.36,89.74,270.14,82.28,266.82,82.28Zm-49.3-11.43c.64,0,1.15,2.82,1.15,6.29s-.52,6.3-1.15,6.3-1.15-2.82-1.15-6.3S216.89,70.85,217.52,70.85Zm-2.08,6.29a11.72,11.72,0,0,0,1.27,7.39c-11,0-22.45-1.54-22.45-4.21V77.14ZM127.21,82.8c-2.56-1-2.26-5.66-2.26-5.66h3.68s.07,5.3,2.4,5.69C131,82.83,128.07,82.83,127.21,82.8Zm3.72-1.44h1.55s-.81,1.14-1.45,1.14h-.1c-.91,0-1.94-2.62-1.94-6.13,0-2.75,1-4.67,1.88-4.74a2.12,2.12,0,0,1,.89.12,2.09,2.09,0,0,1,.76,1.23h-1.6C129.57,74.34,129.9,80,130.93,81.36Zm59,135.4h0Zm19.95,18.79c.11.15.71,1.08.91,1.33-2.5-.72-8.19,1-10.4,2.55,0,0,.95.88,1.24,1.18,1.72-.89,5.4-3.13,10.08-2.62l1.08,1.34a19.69,19.69,0,0,0-9.59,3.05s.87.87,1.64,1.59c0,0,5.11-3,9.67-2.71.41.45.83.9,1.26,1.34l-.38-.06c-2.09-.33-7.17,1.61-9.14,2.82,0,.28,0,.77-.06.95-.39.16-.73.3-1,.42-1.9-1.9-6.5-6.69-6.5-6.69,0-.28.21-.74.23-1,1.3-1.74,8.19-3.92,10.47-3.48Zm-.62-1.41h-.37c-2.59-.2-6.77.95-8.59,2.62a6.57,6.57,0,0,1-.81-2.75,4,4,0,0,1,2.74-1.27l.32.74a18.11,18.11,0,0,1,4.94-1.09c0-.28-.06-.67-.12-1.13l.52,0a4.87,4.87,0,0,1,.62-.07s0-.07,0-.11C208.77,232.07,209.08,233.37,209.31,234.14Zm-.93-4.23c-1.16,0-7.36.5-9.2,2a5.72,5.72,0,0,1-.66-2.61c.69-.69,2-.86,2.8-1.11l.28.76a18.11,18.11,0,0,1,5-.81c0-.28,0-.67-.05-1.14.18,0,.93,0,1.33.08C208,228,208.37,229.87,208.38,229.91Zm-7.95-6.72.28.76a18.11,18.11,0,0,1,5-.81c0-.28,0-.67-.05-1.14a5.05,5.05,0,0,1,1.28,0l.24.06c.11.87.23,1.77.35,2.68-.08,0,.05.38,0,.35-2.5-.43-7.07.43-9.06,2.07a6.68,6.68,0,0,1-.8-2.84A4.2,4.2,0,0,1,200.43,223.19ZM197,254.35v0l0-.07,0,.12Zm19.27-109.81h0c.29.67,1,2.29.58,2.95a.74.74,0,0,1-.67.35h-.11a5.14,5.14,0,0,0-.53-2.85A2.56,2.56,0,0,0,216.25,144.54ZM188.31,70.76l.05,2h-4.19l0-2Zm0,18.47h-4.09V81.36h4.06ZM171.64,61.92l2.62,9.89h-4.08l-2.37-9.89ZM157.26,82.69l20-.07v6.61h-20Zm-4.48-12h3.75v1.09h-3.75Zm-.39,12h4.19v6.53H152.4ZM116,64.89a35.55,35.55,0,0,0,.75-3.59c1.49,2.06,2,5.09,2.27,5.95a28.3,28.3,0,0,1,.5,2.88c.08,1.58.14,2.83.87,3.37.5.7,1.68,8.55,1.59,15.24l-12.65.14c-2-5.74-5.48-15.18-4.77-16.81a24.14,24.14,0,0,0,4.57,3.1,31.86,31.86,0,0,1-5.69-10.31c-.1-1.46-.16-2.35-.16-2.39v0c-.09-.5.45-1.15,1.44-1.74a12.9,12.9,0,0,1,4-1.42l.61,0s0,0,0-.09h0l-.06-.33a0,0,0,0,0,0,0,5.3,5.3,0,0,1,2.49-1,3.1,3.1,0,0,1,1.94.64C114.63,59.2,114.85,59.7,116,64.89Zm-7-22.42c2.77.3,4.9,1.59,4.76,2.88s-2.49,2.11-5.26,1.81-4.9-1.59-4.76-2.88S106.17,42.17,108.94,42.47Zm-4.46,6.68c.88.88,3.13,1.27,5.33,1.11a16,16,0,0,0-3.33,4.6c-.15.23-3.66-1-6.67.61,1.55-1.6,2.22-3.22,2.14-4.13-.08-.54-.1-1.22-.1-1.22A8,8,0,0,1,104.48,49.14Zm-11.82-.89c3.25-1.48,6.62-1,7.53,1s-1,4.93-4.24,6.41-6.62,1-7.53-1S89.41,49.73,92.66,48.25ZM80.11,63.84c-.17.51-.32,1-.44,1.57a8,8,0,0,0-.14.82c0,.28-1.53-1.67-2.53-2.81a1.08,1.08,0,0,1,0-.14c0-.11,0-.22,0-.33a6.73,6.73,0,0,1,0-.7,8.13,8.13,0,0,1,.2-1.42,11.26,11.26,0,0,1,1-2.76,16.55,16.55,0,0,1,1.65-2.52c.22-.28.5-.65.76-1a3.73,3.73,0,0,1,1.24-.6l.86.44a19,19,0,0,0-2.45,4.39,20.78,20.78,0,0,1,2.7-4,2.6,2.6,0,0,0,1,.51A25.19,25.19,0,0,0,80.39,63C80.29,63.3,80.2,63.57,80.11,63.84Zm7.48,16.48,0-.49c-10.26-14.56-4-23.62-1.46-26.38a6.08,6.08,0,0,0-.08.67l.07,2.95-.68,5.33c.35.72,1.47,10.23,2.26,17.68Zm-.27-17.39L87.64,60l3,.84-.91,2.6-.16,3L88,66.4ZM88.8,79.67a7,7,0,0,1,.66-2.34,4.54,4.54,0,0,1,1.05-1.22l.67-.43-.17.07.11-.07s0-9.92.2-10.93a48.74,48.74,0,0,1,1.47-5.37,16,16,0,0,0,5.12-2.3,8.49,8.49,0,0,0-1.13,1.86,9.22,9.22,0,0,0-.64,2.72c-.25,2.19-.84,20.59-.66,21.49a11.68,11.68,0,0,0,3.49,6l.08.05H96.31a16.29,16.29,0,0,1-2-2.79,6.68,6.68,0,0,1-1.59-.54,5.73,5.73,0,0,1-2.36-1.53,4.71,4.71,0,0,1-.68-1A7.67,7.67,0,0,1,88.8,79.67Zm-70,47.54-8.47,0c-2.76-1.07-3.82-3.75-5.35-7.31-1.91-4.45-2.33-10.1-2.33-16.48,0-.34,0-.69,0-1h12c0,.13,0,.44,0,1,0,7.29,1.29,13.86,3.36,18.48l.14.3a14.84,14.84,0,0,0,3.47,5C20.56,127.23,18.82,127.21,18.82,127.21Zm3.81.69q.25.15.5.28A1.27,1.27,0,0,1,22.63,127.9ZM31,120.56c-1.64,3.92-3.78,6.26-5.73,6.26s-3.76-2-5.35-5.4l-.13-.29c-2-4.54-3.2-11-3.2-17.71s1.15-13.09,3.16-17.62l.13-.29C21.47,82,23.43,80,25.26,80s4.09,2.34,5.73,6.26q.63,1.51,1.13,3.13H26l-.36,0h0c-6.56,1.7-6.26,24.19,0,26.88,1.78,0,6.74,0,6.74,0C32.08,117.44,31.39,119.59,31,120.56Zm-4.5-5.12c-4.71-2.72-4.38-12.84-4.38-12.84l42.23,0c-.16,5.12,2,10.76,3,12.94Zm42.84.06c-3.77-7.2-4.82-19,.23-25.23h9.15c-5.51,6.31-2.64,21.82,0,25.23Zm20.42,11.64s-3.86.78-5-.3a11.26,11.26,0,0,1-.59-3.07s.38-4.36.61-7c.06.37,4.66,9.35,5.67,10.19Zm.47-10.83h38a8.39,8.39,0,0,1-3.75,2.06c-1.22,0-18.16,2.3-25.59,2.5C98,120.88,92.08,117.46,90.21,116.31ZM135,123.14a9.86,9.86,0,0,0-3.23-.26,3.25,3.25,0,0,0-1.27.26,26.87,26.87,0,0,1-.24,12.12c.11-1.53.13-3.07.09-4.6,0-1.07-.08-2.14-.15-3.21s-.32-3.48-.32-3.48a1.91,1.91,0,0,0-.68,0l-3.5.25a171.33,171.33,0,0,0-32.82,2c-.05,0-.62.14-1.55.39-1-2-.78-4.21-.33-4.72l3.95,1.9c9.1-.77,30.47-3.33,34.68-3.66a7.76,7.76,0,0,0,2.14-3.46l.14-.42h11.43a15.82,15.82,0,0,1,2.67,2.23h0a3.54,3.54,0,0,1,1.13,2.17c0,.11,0,.23,0,.34a25.51,25.51,0,0,0-4.73.45s-2.37-.13,3.59-3c-.14,0-7.32,2-9,3.62C137.06,122.17,135.86,123.39,135,123.14Zm6.79,14.29s-2.65,0-6.28-3.27c0,0,2.14-6.73,0-9.67,0,0,4.45-2.81,8.82-.76C144.37,123.73,145.1,134.15,141.83,137.43Zm8.66,4c-.15.55-1.09.77-2.09.49l-.24-.07-.05,0-.21-.08h0l-.22-.11h0l-.2-.13c-.46-.32-.71-.72-.61-1.07s.55-.58,1.13-.61a2.94,2.94,0,0,1,.45,0h0l.19,0h.06l.23.05C150,140.25,150.64,140.92,150.49,141.47Zm1.05-5.09c-.18.51-1.12.65-2.1.31a3.22,3.22,0,0,1-.38-.16c-.76-.37-1.23-.95-1.07-1.39s.85-.6,1.66-.43l.2,0h0l.22.07C151.07,135.18,151.72,135.87,151.54,136.38Zm1.31-5.5c-.11.6-1.08.92-2.16.73h-.07c-1.05-.21-1.82-.84-1.71-1.42s1.08-.92,2.17-.73l.12,0,.19,0,.18.05h0l.17.06h0l.16.07h0l.14.07h0l.13.07h0l.11.07,0,0,.09.07,0,0,.08.07,0,0,.06.07,0,0,0,.06,0,0,0,.06,0,.05,0,.06a.48.48,0,0,1,0,.06v.05a.61.61,0,0,1,0,.07s0,0,0,0A.73.73,0,0,1,152.85,130.89Zm-1.06-5.07c-1.11,0-2-.43-2-1s.9-1,2-1,2,.43,2,1S152.9,125.82,151.78,125.82Zm9,22.71c.24,1,.19,2.2-.34,2.5l-1.09,0c.72-1.13-.1-4.34-1.21-4.34-.22,0-.33-.47-.33-1.24l1.34.28a2.76,2.76,0,0,0,.07.55c.09.35.26.43.4.43C160.09,146.73,160.58,147.49,160.82,148.53Zm-1.13-7.24-1.31-.27c.11-.59.24-1.21.39-1.82l1.36.11C160,140,159.81,140.65,159.69,141.28Zm1.6-5.87-1.38-.12c.11-.32.23-.63.35-.93l1.39.12C161.53,134.78,161.41,135.09,161.29,135.41Zm3-5.2-1.19-.1a2,2,0,0,1,1.1-.35h.76A3.44,3.44,0,0,0,164.26,130.21Zm.4-9a1.26,1.26,0,0,1,1.29-1.23h1.77s-.16.72-.26,1.39l-2.79,0Zm10.42,5a1.39,1.39,0,0,1-1.41,1.35l-7.85.12a1.06,1.06,0,0,1-1.1-1v-1.31l3.22,0,.1.11a4.06,4.06,0,0,0,1.25.92h1.64c-.07-.37-.12-.73-.16-1.07l1.38,0a1.82,1.82,0,0,0,1.84-1.78v-.4a1.82,1.82,0,0,0-1.84-1.78h-.67a4.54,4.54,0,0,1,1.48-1.33l1.27,0c.7.14.87.78.87,1.48Zm-4.7-.95a6.5,6.5,0,0,0,.14.67h-1.27q-.07-.33-.11-.64Zm-.52-4A5.36,5.36,0,0,1,171,120h1.3a3.91,3.91,0,0,0-1.3,1.34Zm8.27,6.19c-.06.12,0,0-.07.13-.21.33-.38.51-.49.51h-1.13c1.22-1.34,3.46-8,4.36-11.84h1.3c-.22.88-.48,1.75-.75,2.61-.33,1.06-.7,2.11-1.07,3.16s-.76,2.09-1.17,3.12c-.2.52-.41,1-.64,1.54Q178.32,127.13,178.14,127.5Zm.53-.21.2-.44c.22-.51.44-1,.64-1.55.41-1,.8-2.09,1.17-3.14l.09-.27c.08-.15.37-1,.4-1.17q.28-.83.54-1.67a116.37,116.37,0,0,0,12,8.62c-.6.77-1.15,1.53-1.56,2.11a1,1,0,0,0,0,1.17,8.46,8.46,0,0,1,1.6,2.48s.12.49.28,1.14Zm3.76-10.67.08-.31h18.34a22,22,0,0,1,1.82,5.95,41.43,41.43,0,0,0-6.51,2.66C193.79,123.57,186.8,119.71,182.42,116.63ZM206,128l-3.61-.74c-1.28-.31-1.74-1.95-1.42-3.22.16-.65,1.12-1,1.78-1.05a5.1,5.1,0,0,1,.15,1c0,1.22,2,1.07,3,2A7.53,7.53,0,0,1,206,128Zm8.58,12.17-1-.21c0-.05,0-.11,0-.17l1,.21ZM216.82,130l-1-.31c.1-.19.19-.35.29-.5l1.35.08A7.33,7.33,0,0,0,216.82,130Zm2.37-6h0l-1.9-.16c1-1.78,3.54-6,3.68-7.52h1.7C222.57,118.08,220.35,123,219.18,124ZM81.11,115.51c-3.37-2.92-3.61-12.94-3.61-12.94l169.85.26a62.12,62.12,0,0,0,1.32,12.66Zm171.58,5.93c-2.14,0-4.53-8.21-4.54-19.22,5.21,0,9,0,13.57.06,0,8.3,1.55,16.94,4.09,19.15Zm14.72-4.57c-1.8,0-3.26-6.58-3.26-14.7s1.46-14.7,3.26-14.7,3.26,6.58,3.26,14.7S269.21,116.87,267.41,116.87Z" fill="#dd6826"/><path d="M35.36,283.64l0-5.53a5,5,0,0,0-5-5H8.54V309.2H30.33a5,5,0,0,0,5-5l0-12.57a4,4,0,0,0-4-4A4,4,0,0,0,35.36,283.64Zm-7.28,17.75c0,.9-1.19,1.63-2.09,1.63l-10.23,0,0-10.74,10.23,0c.9,0,2.09.72,2.09,1.62Zm-.05-17c0,.9-1.24,1.73-2.13,1.73H15.71v-6.84H25.91c.9,0,2.13.62,2.13,1.52Z" fill="#dd6826"/><path d="M60.69,273H46.35a8.55,8.55,0,0,0-8.55,8.55v19.13a8.55,8.55,0,0,0,8.55,8.55H60.69a8.55,8.55,0,0,0,8.55-8.55V281.58A8.55,8.55,0,0,0,60.69,273Zm1.41,26.32a3.58,3.58,0,0,1-3.58,3.58H48.39a3.58,3.58,0,0,1-3.58-3.58L44.94,283a3.62,3.62,0,0,1,3.62-3.62h10.2a3.46,3.46,0,0,1,3.46,3.46Z" fill="#dd6826"/><path d="M94.57,273H80.23a8.55,8.55,0,0,0-8.55,8.55v19.13a8.55,8.55,0,0,0,8.55,8.55H94.57a8.55,8.55,0,0,0,8.55-8.55V281.58A8.55,8.55,0,0,0,94.57,273ZM96,299.43A3.58,3.58,0,0,1,92.46,303H82.34a3.58,3.58,0,0,1-3.58-3.58V283a3.62,3.62,0,0,1,3.62-3.62h10.2A3.46,3.46,0,0,1,96,282.82Z" fill="#dd6826"/><path d="M133.79,273.1H105.56v36.09h6.58l0-29.93h7.24l0,29.93h7.43l0-29.93h4.88c1.27,0,2.29,2,2.29,3.28l0,26.64h6.69V280A6.87,6.87,0,0,0,133.79,273.1Z" fill="#dd6826"/><polygon points="163.16 309.22 163.05 279.43 175.55 279.46 175.54 273.07 143.11 273.07 143.11 279.41 155.57 279.39 155.68 309.22 163.16 309.22" fill="#dd6826"/><path d="M185.45,292.24l17.17,0-.1-6.28-17.09.15,0-3.62c0-1.44,2-3.15,3.41-3.15h20.23v-6.42H184.9a6.9,6.9,0,0,0-6.9,6.9v29.51h31.08l0-6.33-23.71,0Z" fill="#dd6826"/><path d="M236,299.52a3.44,3.44,0,0,1-3.44,3.44H222.1a3.44,3.44,0,0,1-3.44-3.44l.11-16.71a3.44,3.44,0,0,1,3.44-3.44h10.45a3.16,3.16,0,0,1,3.4,3.14l7.15,0v-.89a8.55,8.55,0,0,0-8.55-8.55H220.11a8.55,8.55,0,0,0-8.55,8.55v19.12a8.55,8.55,0,0,0,8.55,8.55h14.55a8.55,8.55,0,0,0,8.55-8.55l.08-1.21Z" fill="#dd6826"/><polygon points="268.3 273.31 268.23 285.98 252.67 285.98 252.74 273.31 245.74 273.31 245.74 308.98 252.77 308.98 252.76 292.43 268.32 292.43 268.33 308.98 275.36 308.98 275.36 273.31 268.3 273.31" fill="#dd6826"/></svg>