<svg id="Layer_1" data-name="Layer 1" xmlns="http://www.w3.org/2000/svg" viewBox="0 0 432.28 215.82"><title>beast_wordmark_svg</title><path d="M154.5,215.82H0V187H154.5ZM2.25,213.57h150V189.21H2.25Zm95.08-36.28H57V138.91H0V110H97.33ZM59.22,175H95.08V112.3H2.25v24.36h57Z" fill="#fff"/><path d="M272,215.82H243.15v-22a4.48,4.48,0,0,0-1.2-3.16,5.13,5.13,0,0,0-3.19-1.59H220.87V160.18H233a10.28,10.28,0,0,0,3.5-1,13.14,13.14,0,0,0,3.38-2.33,11.72,11.72,0,0,0,2.42-3.28,8.84,8.84,0,0,0,.9-4V110H272V151.1c-.46,5.9-1.6,10.58-3.39,13.91a37,37,0,0,1-5.75,8,39.18,39.18,0,0,1,4.29,4.58,20.61,20.61,0,0,1,3.09,5.53,26.49,26.49,0,0,1,1.42,6.48c.23,2.33.34,5.06.34,8.11Zm-26.62-2.25h24.36V197.71c0-3-.11-5.64-.33-7.89a24.26,24.26,0,0,0-1.29-5.93,18.36,18.36,0,0,0-2.75-4.92,39.36,39.36,0,0,0-4.88-5.07l-.9-.8.85-.84a34.65,34.65,0,0,0,6.18-8.3c1.63-3,2.68-7.42,3.13-13V112.3H245.4v37.25a11.07,11.07,0,0,1-1.14,5,14,14,0,0,1-2.88,3.91,15.39,15.39,0,0,1-4,2.73,12.48,12.48,0,0,1-4.33,1.25h-10v24.36H239a7.41,7.41,0,0,1,4.62,2.31h0a6.73,6.73,0,0,1,1.79,4.68Zm-54.73,2.25H161.8V197.71c0-3.08.12-5.81.34-8.11a26.38,26.38,0,0,1,1.42-6.48,20.57,20.57,0,0,1,3.09-5.53A35.34,35.34,0,0,1,171,173a35.06,35.06,0,0,1-5.86-8c-1.79-3.33-2.93-8-3.39-13.91V110h28.87v39.5a8.84,8.84,0,0,0,.9,4,11.72,11.72,0,0,0,2.42,3.28,13.14,13.14,0,0,0,3.38,2.33,10.4,10.4,0,0,0,3.63,1h11.94V189H195.05a5.12,5.12,0,0,0-3.19,1.59,4.47,4.47,0,0,0-1.2,3.16Zm-26.62-2.25h24.36V193.8a6.72,6.72,0,0,1,1.79-4.68,7.4,7.4,0,0,1,4.62-2.32h15.86V162.43h-9.83a12.61,12.61,0,0,1-4.47-1.25,15.39,15.39,0,0,1-4-2.73,14,14,0,0,1-2.88-3.91,11.07,11.07,0,0,1-1.14-5V112.3H164.05V151c.44,5.57,1.49,9.94,3.13,13a32.79,32.79,0,0,0,6.3,8.29l.9.86-1,.81a35.58,35.58,0,0,0-5,5.06,18.33,18.33,0,0,0-2.75,4.92,24.16,24.16,0,0,0-1.29,5.93c-.22,2.23-.33,4.89-.33,7.89Z" fill="#fff"/><path d="M396.87,215.75h-30.8V186.89h20.49a8.08,8.08,0,0,0,5.16-1.47,4.54,4.54,0,0,0,1.71-3.78,3.73,3.73,0,0,0-1.69-3,8.41,8.41,0,0,0-5.18-1.4H366.07V149h30.8a37.38,37.38,0,0,1,14.74,2.78A36.14,36.14,0,0,1,422.7,159a32,32,0,0,1,7.09,10.24,29.81,29.81,0,0,1,2.49,11.88,34.31,34.31,0,0,1-2.85,14,33.61,33.61,0,0,1-7.72,11,35.39,35.39,0,0,1-11.28,7.08A36.85,36.85,0,0,1,396.87,215.75Zm-28.55-2.25h28.55a34.61,34.61,0,0,0,12.74-2.37,33.16,33.16,0,0,0,10.57-6.63,31.38,31.38,0,0,0,7.2-10.25,32.08,32.08,0,0,0,2.66-13.1,27.57,27.57,0,0,0-2.31-11,29.73,29.73,0,0,0-6.59-9.52,33.9,33.9,0,0,0-10.41-6.79,35.16,35.16,0,0,0-13.86-2.6H368.32V175h18.24a10.56,10.56,0,0,1,6.55,1.86,5.91,5.91,0,0,1,2.57,4.81,6.75,6.75,0,0,1-2.55,5.53,10.23,10.23,0,0,1-6.57,2H368.32ZM345,215.75H316a42.13,42.13,0,0,1-15-2.44,31.33,31.33,0,0,1-10.87-6.78,32.35,32.35,0,0,1-7-10.15,51.18,51.18,0,0,1-3.63-12.44l-.21-1.31h40.47v1.12c0,.47,0,1.72,2.68,2.33a38.55,38.55,0,0,0,8.45.79H345Zm-63-30.86a48.36,48.36,0,0,0,3.24,10.59,30.11,30.11,0,0,0,6.51,9.45,29.09,29.09,0,0,0,10.1,6.28A39.92,39.92,0,0,0,316,213.5H342.8V189.14H330.95a40.73,40.73,0,0,1-9-.85c-2.84-.65-3.94-2.06-4.29-3.4Zm63-7.67h-31a36.58,36.58,0,0,1-14.66-2.87,36.14,36.14,0,0,1-11.18-7.42,32.58,32.58,0,0,1-7.08-10.4,30.38,30.38,0,0,1-2.49-12V110H345v28.87H317.51v5.24a4.39,4.39,0,0,0,1.75,3.32,7.53,7.53,0,0,0,5.12,1.6H345Zm-64.14-65v32.35a28.14,28.14,0,0,0,2.31,11.07,30.35,30.35,0,0,0,6.6,9.68,33.91,33.91,0,0,0,10.49,7A34.35,34.35,0,0,0,314.07,175H342.8V151.25H324.38a9.68,9.68,0,0,1-6.61-2.16,6.58,6.58,0,0,1-2.51-5v-7.49H342.8V112.23Zm150.49,26.62H366.07V110h65.32Zm-63.07-2.25h60.82V112.23H368.32Z" fill="#fff"/><path d="M339.06,78.07a21.61,21.61,0,0,0-2.86-6.21,16.3,16.3,0,0,0-4.58-4.52,11.32,11.32,0,0,0-6.28-1.81H296.61a1.8,1.8,0,0,1-1.49-.58,2.25,2.25,0,0,1-.57-1.56,3.06,3.06,0,0,1,.58-2,1.78,1.78,0,0,1,1.47-.61h16.61v-11a35.56,35.56,0,0,0,4.6-2.39V60.79h1.12a7.42,7.42,0,0,1,2.7.5c.77.3.77.66.77.87v1.12h17.44L339.7,62a41.73,41.73,0,0,0-1.45-7.33,21.33,21.33,0,0,0-2.83-6.06,13.62,13.62,0,0,0-4.53-4.17A12.74,12.74,0,0,0,324.57,43h-2.23a14.43,14.43,0,0,0,1.54-2.57,17.07,17.07,0,0,0,1.51-5.94c1,0,2.07.07,3.18.07,5.57,0,10.09-.61,10.09-1.35s-4.52-1.35-10.09-1.35c-1.11,0-2.18,0-3.18.07a20.14,20.14,0,0,0-.83-4.71,20.82,20.82,0,0,0-2.92-5.94,20.5,20.5,0,0,1,2.41,6.06,16.66,16.66,0,0,1,.37,3.57,3.37,3.37,0,0,0-.25-.61,7.5,7.5,0,0,0-1.46-2.15,7.29,7.29,0,0,0-1.22-1l-.35-.22-.37-.2c-.24-.14-.5-.25-.76-.37s-.53-.21-.78-.31l-.77-.25-.75-.21L317,25.4l-.7-.14-.13,0a4.43,4.43,0,0,0,.31-1.6,5.41,5.41,0,0,0-10.76,0,5.14,5.14,0,0,0,5.38,4.86,6,6,0,0,0,.79-.06,45.61,45.61,0,0,1-1.18,6.39,47.85,47.85,0,0,1-3,8.12h-3.91a54,54,0,0,1-3-8.12,38.27,38.27,0,0,1-1.29-7.77c0-.26,0-.51,0-.76l0-1-.71.59c-.25.25-.49.5-.73.77a18.75,18.75,0,0,0-2.33,2.59,20,20,0,0,0-2.55,4.55,16.4,16.4,0,0,0-1.17,5.19,12.18,12.18,0,0,0,.41,3.91l0,0,0,0-.12-.12-.24-.24c-.15-.18-.3-.36-.45-.55s-.29-.39-.42-.6a19.54,19.54,0,0,1-1.44-2.67,25.07,25.07,0,0,1-1.09-2.89,15.36,15.36,0,0,1-.64-3,15.61,15.61,0,0,0,.15,3.15,25.83,25.83,0,0,0,.64,3.12,20.77,20.77,0,0,0,1.06,3c.11.25.24.5.36.75l.22.39a11.56,11.56,0,0,0-3.76,1.4,15.28,15.28,0,0,0-4.67,4.33A21.9,21.9,0,0,0,279,55.43a28.76,28.76,0,0,0-1.14,8.27,25,25,0,0,0,1,7,21,21,0,0,0,2.87,6.11,15.73,15.73,0,0,0,4.62,4.43A11.59,11.59,0,0,0,292.53,83h28.74a1.66,1.66,0,0,1,1.44.66,2.8,2.8,0,0,1,.61,1.76,3.06,3.06,0,0,1-.58,2,1.78,1.78,0,0,1-1.47.61H304.65v17.83h20.7a11.35,11.35,0,0,0,5.77-1.59A15.31,15.31,0,0,0,335.8,100a21.93,21.93,0,0,0,3.12-6.55,28.77,28.77,0,0,0,1.14-8.27A25.5,25.5,0,0,0,339.06,78.07Zm-19-32.5.38-.39h4.13a10.55,10.55,0,0,1,5.23,1.24,11.41,11.41,0,0,1,3.79,3.49,19.12,19.12,0,0,1,2.52,5.43A38.41,38.41,0,0,1,337.33,61H324.43a3.29,3.29,0,0,0-2-1.84,9.57,9.57,0,0,0-2.39-.59Zm16.73,47.18A19.72,19.72,0,0,1,334,98.64a13.09,13.09,0,0,1-4,3.71,9.15,9.15,0,0,1-4.65,1.28H306.88V90.27h14.38a4,4,0,0,0,3.18-1.4,5.2,5.2,0,0,0,1.11-3.45,5,5,0,0,0-1.08-3.12,3.9,3.9,0,0,0-3.21-1.54H292.53a9.26,9.26,0,0,1-5-1.41,13.51,13.51,0,0,1-4-3.8A18.78,18.78,0,0,1,281,70.08a22.76,22.76,0,0,1-.91-6.39,26.54,26.54,0,0,1,1-7.62,19.69,19.69,0,0,1,2.79-5.89,13.06,13.06,0,0,1,4-3.71,9.14,9.14,0,0,1,4.65-1.28H311V58.55H296.61a4,4,0,0,0-3.18,1.4,5.2,5.2,0,0,0-1.11,3.45,4.45,4.45,0,0,0,1.12,3,4,4,0,0,0,3.16,1.33h28.74a9,9,0,0,1,5.06,1.45,14.08,14.08,0,0,1,3.95,3.9,19.39,19.39,0,0,1,2.56,5.57,23.28,23.28,0,0,1,.91,6.44A26.56,26.56,0,0,1,336.78,92.75Z" fill="#fff"/><path d="M297.48,87.95a4.18,4.18,0,0,1-1.17-.3,2.24,2.24,0,0,1-.76-.51.6.6,0,0,1-.15-.47V85.55H278l.14,1.24a41.62,41.62,0,0,0,1.45,7.33,21.31,21.31,0,0,0,2.83,6.06,13.59,13.59,0,0,0,4.53,4.17,12.72,12.72,0,0,0,6.32,1.53h6.75V88h-1.12A12.34,12.34,0,0,1,297.48,87.95Zm.34,15.69H293.3a10.53,10.53,0,0,1-5.23-1.24,11.38,11.38,0,0,1-3.78-3.49,19.1,19.1,0,0,1-2.52-5.43,38.26,38.26,0,0,1-1.21-5.69h12.82a2.66,2.66,0,0,0,.57.9,4.48,4.48,0,0,0,1.49,1,6.4,6.4,0,0,0,1.79.47l.6.06Z" fill="#fff"/><path d="M91.64,105.89h62.87V88H109.08V83.3h45.43V65.43H91.64ZM93.91,67.7h58.33V81H106.81v9.26h45.43v13.33H93.91Z" fill="#fff"/><path d="M140.26,41.64a20.78,20.78,0,0,0,1.06-3,25.83,25.83,0,0,0,.64-3.12c.06-.41.1-.82.13-1.22,1.65.16,3.67.25,5.85.25,5.57,0,10.09-.61,10.09-1.35s-4.52-1.35-10.09-1.35-10.09.61-10.09,1.35c0,.44,1.54.82,3.93,1.07-.09.39-.2.77-.31,1.15a25.07,25.07,0,0,1-1.09,2.89,19.52,19.52,0,0,1-1.44,2.67c-.13.21-.28.4-.42.6s-.3.37-.45.55l-.24.24-.12.12,0,0,0,0a12.18,12.18,0,0,0,.41-3.91,16.4,16.4,0,0,0-1.17-5.19,20,20,0,0,0-2.55-4.55,18.3,18.3,0,0,0-3.13-3.28l-.5-.38v.44l-.07-.06,0,.68c0,.08,0,.16,0,.24a38,38,0,0,1-1.3,8,54.17,54.17,0,0,1-3.14,8.45h-3.86a47.89,47.89,0,0,1-3-8.15,46,46,0,0,1-1.22-6.72,5.91,5.91,0,0,0,1.29.15,5.14,5.14,0,0,0,5.38-4.86,5.41,5.41,0,0,0-10.76,0,4.44,4.44,0,0,0,.37,1.76l-.65.11-.7.14-.73.17-.75.21-.77.25c-.25.1-.52.19-.78.31s-.52.23-.76.37l-.37.2-.35.22a7.29,7.29,0,0,0-1.22,1,7.51,7.51,0,0,0-1.46,2.15,3.37,3.37,0,0,0-.25.61,16.66,16.66,0,0,1,.37-3.57,20.5,20.5,0,0,1,2.41-6.06,20.32,20.32,0,0,0-3.78,12.55,17,17,0,0,0,1.54,6.61,14.46,14.46,0,0,0,1.56,2.61H91.64V60.81h62.87V42.93H139.59c.11-.18.21-.36.31-.54S140.15,41.89,140.26,41.64Zm12,3.56V58.53H93.91V45.21Z" fill="#fff"/><path d="M205.07,105.72h24.41V76.88H205.07Zm2.23-26.61h19.94v24.37H207.31Z" fill="#fff"/><path d="M360.26.05v.1l-1.86,0L355,.09l-6.82,0-14,.05h-2.06a5,5,0,0,0-.77.09,16.74,16.74,0,0,0-2.7.8c-1.71.64-3.34,1.38-4.94,2.12l-2.39,1.09c-.8.36-1.54.65-2.38,1-1.63.61-3.25,1.21-4.84,1.84-6.38,2.47-12.45,5-18.21,7.52L279.6,21.69c-5.11,2.22-9.89,4.26-14.27,6.05-2.2.88-4.28,1.78-6.27,2.47a15.52,15.52,0,0,1-5.75,1,15.12,15.12,0,0,1-5-1,19.23,19.23,0,0,1-3.84-2,21.93,21.93,0,0,1-4.15-3.65L231.1.71,230.83,0h-27.1l-9.6,24.73-.59.64c-.33.32-.67.69-1.08,1a20.22,20.22,0,0,1-3,2.24,18.87,18.87,0,0,1-4.19,2,5.67,5.67,0,0,1-.61.18L184,31c-.43.09-.87.18-1.32.25a13.79,13.79,0,0,1-1.38.12l-.71,0c-.24,0-.48,0-.72,0a21.31,21.31,0,0,1-6.08-1.62c-1.06-.41-2.16-.87-3.28-1.33l-3.45-1.42c-4.7-2-9.83-4.18-15.32-6.59s-11.36-5-17.57-7.66c-3.11-1.32-6.3-2.66-9.59-4s-6.68-2.62-10.09-3.9c-.8-.32-1.64-.71-2.48-1.09l-2.54-1.17a41.13,41.13,0,0,0-5.4-2.1c-.25-.07-.49-.14-.76-.18L103,.2c-.13,0-.29,0-.43,0-.32,0-.53,0-.77,0H101l-2.87,0-5.81,0C83.58.06,75,0,66.81.13l-.1-.05-1.26,0A16.48,16.48,0,0,0,63.54,0H26.85V29H58a2.51,2.51,0,0,1,2.21,1.15,6.89,6.89,0,0,1,.94,3.93,5.18,5.18,0,0,1-.92,3.18A2.56,2.56,0,0,1,58,38.36H20.83V0H0V105.72H20.83V67.2h37.3a2.39,2.39,0,0,1,2.11,1.22,6.3,6.3,0,0,1,1,3.54,6.5,6.5,0,0,1-.92,3.83A2.56,2.56,0,0,1,58,76.88H26.85v28.84H63.54a18.38,18.38,0,0,0,7.22-1.48A16.48,16.48,0,0,0,77,99.44,24.94,24.94,0,0,0,81.35,91,42.24,42.24,0,0,0,83,78.49c0-2.71-.06-5.37-.19-7.89a42.88,42.88,0,0,0-.93-7.12,23.38,23.38,0,0,0-2.24-6.09,15.27,15.27,0,0,0-3.24-4.06,19,19,0,0,0,3.26-3.88A19.47,19.47,0,0,0,81.94,44a31.26,31.26,0,0,0,.89-6.43c.1-2.29.14-4.94.14-7.88a50.07,50.07,0,0,0-1.51-13c-.19-.7-.4-1.38-.62-2l2.1-.35c1.11-.18,2.21-.31,3.3-.47s2.17-.26,3.24-.39l1.59-.17,1.58-.13c2.09-.2,4.13-.29,6.12-.39s3.93-.12,5.81-.11,3.7.06,5.46.09l2.59.13,1.26.06,1.23.09,2.4.18c.78.06,1.54.15,2.29.22s1.48.14,2.19.22l2.08.25c5.41.68,9.64,1.44,12.54,2l.66.13c4.84,2,9.47,4,13.86,5.9,5.52,2.35,10.69,4.5,15.44,6.38q1.78.71,3.48,1.36c1.14.44,2.23.87,3.32,1.27a22.09,22.09,0,0,0,6.46,1.55,15.11,15.11,0,0,0,5.74-.9,19,19,0,0,0,4.31-2.21,19.39,19.39,0,0,0,3-2.46c.3-.28.55-.57.79-.84L162.7,105.72h26.61l28-72.61,28,72.61h26.61L240.73,25.52a20.85,20.85,0,0,0,3.43,3.13,19.26,19.26,0,0,0,3.9,2.19,15.67,15.67,0,0,0,5.22,1.22,16.25,16.25,0,0,0,6.09-.94c2.06-.68,4.14-1.54,6.36-2.39C270.15,27,275,25,280.09,22.84l16.37-7,5.94-2.5,2-.25c2.93-.35,7.23-.81,12.69-1a146.21,146.21,0,0,1,19.53.54c1.87.15,3.79.4,5.76.63l3,.42c1,.13,2,.33,3.06.49l1.56.26,1.57.3c1.05.2,2.12.39,3.18.63s2.15.45,3.24.7l2.34.55V33.43h72V.05ZM80.59,37.47a29,29,0,0,1-.82,6,17.22,17.22,0,0,1-2,4.83,17.7,17.7,0,0,1-3.8,4.22l-1.08.89,1.11.85a13.41,13.41,0,0,1,3.68,4.22,21.14,21.14,0,0,1,2,5.5,40.62,40.62,0,0,1,.88,6.75c.12,2.48.19,5.1.19,7.78a40.05,40.05,0,0,1-1.51,11.83A22.74,22.74,0,0,1,75.3,98a14.27,14.27,0,0,1-5.41,4.17,16.16,16.16,0,0,1-6.35,1.3H29.09V79.12H58a4.81,4.81,0,0,0,4-2A8.59,8.59,0,0,0,63.43,72a8.48,8.48,0,0,0-1.32-4.78,4.62,4.62,0,0,0-4-2.21H18.6v38.52H2.24V2.23H18.6V40.59H58a4.81,4.81,0,0,0,4-2,7.42,7.42,0,0,0,1.36-4.5,9,9,0,0,0-1.34-5.21,4.75,4.75,0,0,0-4-2.11h-29V2.23H63.54a14,14,0,0,1,4.85.86l2.47,1.31L74.6,7.56c.31.37.61.74.89,1.14.15.22.3.44.45.67l.73,1.2a29.79,29.79,0,0,1,2.63,6.67,47.86,47.86,0,0,1,1.43,12.44C80.74,32.59,80.69,35.21,80.59,37.47Zm43.62-24.67-2.09-.31c-.71-.1-1.45-.18-2.2-.28s-1.52-.19-2.3-.27l-2.41-.23L114,11.6l-1.27-.09-2.61-.18c-1.77-.07-3.61-.18-5.51-.18s-3.86,0-5.87,0-4.08.14-6.2.32l-1.6.11-1.61.16c-1.08.12-2.18.2-3.28.35s-2.22.27-3.34.45L81,12.83l-.75.12A25.46,25.46,0,0,0,77.31,7.4,17.9,17.9,0,0,0,71.39,2c6.8,0,13.79,0,21,0l5.8,0h3.59a5.87,5.87,0,0,1,.65,0l.28,0,.3.06c.2,0,.41.1.62.15a39.89,39.89,0,0,1,5.12,2l2.53,1.15c.85.38,1.68.77,2.59,1.13,6.91,2.54,13.45,5.14,19.67,7.75l.86.36C131.71,14.12,128.31,13.43,124.22,12.81Zm122.57,90.68L217.28,26.9l-29.5,76.59H166L205.26,2.23h24l39.3,101.26ZM359.87,15.11l-1.65-.38c-1.1-.25-2.19-.46-3.27-.68s-2.15-.41-3.21-.61l-1.58-.29-1.57-.25c-1-.16-2.07-.34-3.09-.47l-3-.4c-2-.21-3.93-.44-5.81-.57A137.71,137.71,0,0,0,317,11.25a122.85,122.85,0,0,0-12.71,1.42l-.41.07c3.5-1.45,7.09-2.89,10.78-4.31,1.59-.62,3.2-1.21,4.82-1.82l1.24-.47c.42-.17.83-.35,1.23-.53l2.4-1.09c1.6-.73,3.21-1.46,4.84-2.07a15.45,15.45,0,0,1,2.44-.73,3.53,3.53,0,0,1,.57-.07h2l14-.07H355l3.34,0,1.88,0V15.2ZM430,31.19H362.5V2.29H430Z" fill="#fff"/><path d="M411.95,105.78H381.12V39.93h30.83Zm-28.48-2.35H409.6V42.27H383.47Z" fill="#fff"/></svg>