<?xml version="1.0" standalone="no"?>
<svg id="Layer_4" data-name="Layer 4" xmlns="http://www.w3.org/2000/svg" xmlns:xlink="http://www.w3.org/1999/xlink" ><defs><style>.cls-1,.cls-4{fill:none;}.cls-2{clip-path:url(#clip-path);}.cls-3{fill:#df6705;}.cls-4{stroke:#df6705;stroke-miterlimit:10;stroke-width:0.21px;}.cls-5{fill:url(#bt_hudofficial);}</style><clipPath id="clip-path"><rect class="cls-1" width="300" height="300"/></clipPath><pattern id="bt_hudofficial" data-name="bt_hudofficial" width="300" height="300" patternTransform="translate(-30 30)" patternUnits="userSpaceOnUse" ><rect class="cls-1" width="300" height="300"/><g class="cls-2"><g id="BT_HUD_PATTERN"><rect class="cls-3" x="0.1" y="0.1" width="16.66" height="1.67"/><rect class="cls-3" x="0.1" y="0.1" width="1.67" height="16.66"/><rect class="cls-3" x="0.1" y="283.24" width="1.67" height="16.66"/><rect class="cls-3" x="0.1" y="298.23" width="16.66" height="1.67"/><rect class="cls-3" x="283.24" y="298.23" width="16.66" height="1.67"/><rect class="cls-3" x="298.23" y="283.24" width="1.67" height="16.66"/><rect class="cls-3" x="298.23" y="0.1" width="1.67" height="16.66"/><rect class="cls-3" x="283.24" y="0.1" width="16.66" height="1.67"/><path class="cls-3" d="M299.27.73H.73V299.27H299.27V.73M299.9.1V299.9H.1V.1Z"/><g id="BT_GRID"><rect class="cls-4" x="0.1" y="0.1" width="59.96" height="59.96"/><rect class="cls-4" x="60.06" y="0.1" width="59.96" height="59.96"/><rect class="cls-4" x="120.02" y="0.1" width="59.96" height="59.96"/><rect class="cls-4" x="179.98" y="0.1" width="59.96" height="59.96"/><rect class="cls-4" x="239.94" y="0.1" width="59.96" height="59.96"/><rect class="cls-4" x="0.1" y="60.06" width="59.96" height="59.96"/><rect class="cls-4" x="60.06" y="60.06" width="59.96" height="59.96"/><rect class="cls-4" x="120.02" y="60.06" width="59.96" height="59.96"/><rect class="cls-4" x="179.98" y="60.06" width="59.96" height="59.96"/><rect class="cls-4" x="239.94" y="60.06" width="59.96" height="59.96"/><rect class="cls-4" x="0.1" y="120.02" width="59.96" height="59.96"/><rect class="cls-4" x="60.06" y="120.02" width="59.96" height="59.96"/><rect class="cls-4" x="120.02" y="120.02" width="59.96" height="59.96"/><rect class="cls-4" x="179.98" y="120.02" width="59.96" height="59.96"/><rect class="cls-4" x="239.94" y="120.02" width="59.96" height="59.96"/><rect class="cls-4" x="0.1" y="179.98" width="59.96" height="59.96"/><rect class="cls-4" x="60.06" y="179.98" width="59.96" height="59.96"/><rect class="cls-4" x="120.02" y="179.98" width="59.96" height="59.96"/><rect class="cls-4" x="179.98" y="179.98" width="59.96" height="59.96"/><rect class="cls-4" x="239.94" y="179.98" width="59.96" height="59.96"/><rect class="cls-4" x="0.1" y="239.94" width="59.96" height="59.96"/><rect class="cls-4" x="60.06" y="239.94" width="59.96" height="59.96"/><rect class="cls-4" x="120.02" y="239.94" width="59.96" height="59.96"/><rect class="cls-4" x="179.98" y="239.94" width="59.96" height="59.96"/><rect class="cls-4" x="239.94" y="239.94" width="59.96" height="59.96"/></g></g></g></pattern></defs><title>btArtboard 4bthud</title><rect class="cls-5" x="0.41" y="0.37" width="100%" height="100%"/></svg>