<svg id="scroll_arrow" xmlns="http://www.w3.org/2000/svg" width="209.8" height="71.2" viewBox="0 0 209.8 71.2"><title>scroll_arrow_fix2</title><path id="scroll_arrow_icon" d="M104.9,49.2.7,14.4,0,16,104.9,71.2,209.8,16l-.7-1.5Z" fill="#df3f05"/><g id="scroll_arrow_text"><path d="M58.8,12.5V11a17.7,17.7,0,0,0,3.7.5,4.7,4.7,0,0,0,1.9-.3,1.1,1.1,0,0,0,.6-1.1V8.6a1.2,1.2,0,0,0-.4-1.1,2.7,2.7,0,0,0-1.5-.3H61.7a3.5,3.5,0,0,1-2.4-.7,2.8,2.8,0,0,1-.7-2.1V3.5A2.6,2.6,0,0,1,59,1.9,2.5,2.5,0,0,1,60.4,1,10.4,10.4,0,0,1,63.1.7l3,.2V2.3L63,1.9a4.9,4.9,0,0,0-2.2.3,1.2,1.2,0,0,0-.6,1.1V4.7a1,1,0,0,0,.4.9,3,3,0,0,0,1.5.3h1.4a4.9,4.9,0,0,1,1.9.3,1.8,1.8,0,0,1,1,.9,3.7,3.7,0,0,1,.3,1.6v.8a3.6,3.6,0,0,1-.5,2,2.5,2.5,0,0,1-1.4,1,8.4,8.4,0,0,1-2.5.3Z" fill="#303740"/><path d="M71.3,12.7l-.9-.2-.9-.4a2.3,2.3,0,0,1-.5-.8,3.7,3.7,0,0,1-.2-1.3V6.7a3.1,3.1,0,0,1,.6-2.1l.6-.5.8-.3h2l2.5.3V5.2a11.1,11.1,0,0,0-2.7-.4H71.2a.9.9,0,0,0-.6.5,2.6,2.6,0,0,0-.2,1.1v3.6a2,2,0,0,0,.2,1,1.1,1.1,0,0,0,.7.5h1.5a10.4,10.4,0,0,0,2.6-.3v1.2l-2.8.3Z" fill="#303740"/><path d="M77.5,3.9H79V5.3a1.1,1.1,0,0,1,.4-.8l.9-.6,1.1-.2h.8V5.1h-.9a3.5,3.5,0,0,0-1.7.3,1.1,1.1,0,0,0-.5,1.1v6.1H77.5Z" fill="#303740"/><path d="M85.8,12.7l-1.2-.4a1.7,1.7,0,0,1-.9-.9,4.1,4.1,0,0,1-.3-1.6v-3a4.6,4.6,0,0,1,.2-1.4,2.5,2.5,0,0,1,.5-1L85,4l1.1-.2h2.8l1,.2a1.9,1.9,0,0,1,.9.5,2.6,2.6,0,0,1,.5.9,4.9,4.9,0,0,1,.2,1.5v3a3,3,0,0,1-.7,2.2l-.8.5-1.1.2H85.8Zm2.8-1,.7-.2a.8.8,0,0,0,.5-.5,2.5,2.5,0,0,0,.1-.9V6.6a2.6,2.6,0,0,0-.2-1.2,1,1,0,0,0-.7-.5H86a1,1,0,0,0-.7.5,2.6,2.6,0,0,0-.2,1.2v3.5a2.5,2.5,0,0,0,.1.9.8.8,0,0,0,.5.5l.7.2h2.2Z" fill="#303740"/><path d="M94,0h1.6V12.6H94Z" fill="#303740"/><path d="M98.4,0h1.6V12.6H98.4Z" fill="#303740"/><path d="M107.1.9h4.6q4.9,0,4.9,3.3V9.4q0,3.2-4.9,3.2h-4.7Zm4.5,10.5q3.3,0,3.3-2V4.2a2.1,2.1,0,0,0-.3-1.1,1.6,1.6,0,0,0-.8-.7l-1-.3h-4.1v9.3Z" fill="#303740"/><path d="M121.2,12.7l-1.2-.4a1.7,1.7,0,0,1-.9-.9,4.1,4.1,0,0,1-.3-1.6v-3a4.6,4.6,0,0,1,.2-1.4,2.5,2.5,0,0,1,.5-1l.8-.5,1.1-.2h2.8l1,.2a1.9,1.9,0,0,1,.9.5,2.6,2.6,0,0,1,.5.9,4.9,4.9,0,0,1,.2,1.5v3a3,3,0,0,1-.7,2.2l-.8.5-1.1.2h-3.1Zm2.8-1,.7-.2a.8.8,0,0,0,.5-.5,2.5,2.5,0,0,0,.1-.9V6.6a2.6,2.6,0,0,0-.2-1.2,1,1,0,0,0-.7-.5h-3a1,1,0,0,0-.7.5,2.6,2.6,0,0,0-.2,1.2v3.5a2.5,2.5,0,0,0,.1.9.8.8,0,0,0,.5.5l.7.2H124Z" fill="#303740"/><path d="M128.3,3.9H130l2.1,7.2h.1l2.1-7.2h1.8l2.1,7.2h.1l2.1-7.2h1.7l-2.9,8.7h-1.9l-2.1-7-2.1,7h-1.9Z" fill="#303740"/><path d="M143.7,3.9h1.6V4.9q.3-1.2,2.9-1.2a3.5,3.5,0,0,1,2.3.6,2.4,2.4,0,0,1,.7,1.9v6.4h-1.6V6.3a2.4,2.4,0,0,0-.1-.6l-.2-.4a2.1,2.1,0,0,0-1.6-.5h-1.5a1.2,1.2,0,0,0-.7.4,1.5,1.5,0,0,0-.2.9v6.3h-1.6Z" fill="#303740"/></g></svg>