<?xml version="1.0" standalone="no"?>
<!DOCTYPE svg PUBLIC "-//W3C//DTD SVG 20010904//EN"
 "http://www.w3.org/TR/2001/REC-SVG-20010904/DTD/svg10.dtd">
<svg version="1.0" xmlns="http://www.w3.org/2000/svg"
 width="80.000000pt" height="80.000000pt" viewBox="0 0 80.000000 80.000000"
 preserveAspectRatio="xMidYMid meet">
<metadata>
Created by potrace 1.11, written by Peter Selinger 2001-2013
</metadata>
<g transform="translate(0.000000,80.000000) scale(0.100000,-0.100000)"
fill="#000000" stroke="none">
<path d="M150 719 c9 -30 9 -31 -20 -27 -34 5 -36 2 -13 -24 9 -11 11 -18 5
-18 -7 0 -12 -4 -12 -10 0 -5 7 -10 16 -10 12 0 11 -5 -7 -20 l-24 -20 28 6
c17 4 27 2 27 -5 0 -6 -4 -11 -10 -11 -5 0 -10 -4 -10 -10 0 -6 9 -6 24 0 20
7 25 5 29 -11 5 -20 6 -20 28 2 l22 22 11 -34 11 -34 -70 -3 c-54 -2 -72 1
-81 12 -6 9 -25 19 -42 22 -24 5 -32 2 -41 -14 -14 -26 -14 -87 -1 -113 15
-27 76 -27 85 1 5 16 15 20 56 20 46 0 49 -2 45 -22 -7 -41 10 -68 43 -68 51
0 53 -37 6 -168 -33 -91 -30 -105 17 -113 38 -6 68 11 68 39 0 19 34 86 50 99
8 7 29 13 45 13 17 0 41 7 53 16 13 9 24 14 25 13 14 -22 36 -108 42 -163 6
-50 21 -67 54 -62 14 2 32 5 39 5 20 2 14 22 -14 48 -15 14 -24 32 -23 46 1
12 -1 33 -4 47 -3 14 -8 54 -11 90 -7 78 -20 92 -74 79 -49 -11 -48 -12 -48
11 0 11 4 20 7 20 4 0 11 9 14 20 6 20 8 20 56 -6 27 -15 49 -31 49 -36 0 -4
8 -8 18 -8 13 0 22 13 31 50 12 48 14 50 47 50 19 0 34 -4 34 -10 0 -5 13 -10
29 -10 31 0 42 21 36 70 -1 14 -3 31 -4 38 -2 18 -61 16 -61 -3 0 -12 -17 -15
-90 -15 -76 0 -90 3 -90 16 0 11 5 14 18 9 53 -21 88 -12 75 22 -4 9 -22 12
-69 10 -48 -3 -64 0 -64 10 0 7 -9 13 -20 13 -12 0 -20 -7 -20 -16 0 -13 -7
-15 -35 -10 -19 4 -44 2 -55 -4 -18 -9 -20 -8 -20 16 0 23 2 25 15 14 13 -11
14 -10 9 6 -15 43 -57 55 -106 30 -27 -14 -27 -14 -13 7 8 12 12 31 10 42 -2
11 -4 26 -4 34 -1 10 -4 11 -14 2 -11 -8 -17 -5 -27 17 l-12 27 -9 -23 -9 -23
-29 21 -30 20 9 -31z m280 -199 c0 -6 -11 -8 -27 -4 -40 10 -41 14 -5 14 18 0
32 -5 32 -10z m90 0 c0 -5 -13 -10 -30 -10 -16 0 -30 5 -30 10 0 6 14 10 30
10 17 0 30 -4 30 -10z m75 -90 c8 -13 -15 -13 -35 0 -12 8 -11 10 7 10 12 0
25 -4 28 -10z m-165 -80 c13 -11 21 -23 17 -26 -7 -7 -57 25 -57 37 0 15 15
10 40 -11z"/>
</g>
</svg>
